<svg id="Arrow_-_Right" data-name="Arrow - Right" xmlns="http://www.w3.org/2000/svg" width="15.59" height="18.405" viewBox="0 0 15.59 18.405">
  <g id="Arrow_-_Right-2" data-name="Arrow - Right" transform="translate(-12.017 18.405) rotate(-90)">
    <path id="Fill_4" data-name="Fill 4" d="M7.469,15.015c-.09-.089-.468-.42-.782-.731A33.853,33.853,0,0,1,.515,5.249,7.4,7.4,0,0,1,0,3.41a3.068,3.068,0,0,1,.336-1.4A2.892,2.892,0,0,1,1.723.775a15.015,15.015,0,0,1,1.632-.4A36.251,36.251,0,0,1,9.192,0a41.856,41.856,0,0,1,5.656.331,12.668,12.668,0,0,1,2.036.532A2.783,2.783,0,0,1,18.4,3.321V3.41a7.716,7.716,0,0,1-.625,2.06A33.81,33.81,0,0,1,11.7,14.305a8.731,8.731,0,0,1-.85.753,2.711,2.711,0,0,1-1.632.532,2.847,2.847,0,0,1-1.745-.576" transform="translate(0 12.017)" fill="#fab915"/>
  </g>
</svg>
