<svg xmlns="http://www.w3.org/2000/svg" width="1037.949" height="1143.284" viewBox="0 0 1037.949 1143.284">
  <path id="Path_31826" data-name="Path 31826" d="M183.613,163.81s-25.673-104.172,209.028-45.2S672.128,232.986,641.7,382.678s-173.853,154.228,0,340.209,646.909,252.237,177.507,429.145c-5.252-.6-6.114-.65-9.7-1.02-6.313-.646-13.508-1.422-21.3-2.238-22.544-2.363-48.858-5.2-72.74-7.645-73.14-7.483-151.225-16.761-218.469-22.962-106.8-9.848-201.215-20.567-283.489-29.912-29.9-3.4-57.382-6.009-84.126-8.842-8.827-.935-16.832-1.576-25.941-2.726-3.339-.421-8.007.043-11.512-1.21-1.491-.533-3.07.767-4.026-.423.869-10.792.222-16.177,2.576-32.452,1.391-22.852,4.537-36.012,6.341-55.767,6.273-59.035,8.4-69.09,20.169-191.671C146.682,517,183.613,163.81,183.613,163.81Z" transform="matrix(-0.995, 0.105, -0.105, -0.995, 1135.887, 1136.532)" fill="#fff6de"/>
</svg>
