<svg width="33" height="32" viewBox="0 0 33 32" fill="none" xmlns="http://www.w3.org/2000/svg">
<path d="M31.9998 0.754382C32.3927 1.03508 32.5534 1.40935 32.482 1.87719L27.9105 28.8246C27.851 29.1637 27.6605 29.4269 27.3391 29.614C27.1725 29.7076 26.9879 29.7544 26.7855 29.7544C26.6546 29.7544 26.5117 29.7251 26.357 29.6667L16.9463 25.8947L11.6248 31.6316C11.4105 31.8772 11.1308 32 10.7855 32C10.6189 32 10.482 31.9766 10.3748 31.9298C10.1486 31.8479 9.97007 31.7105 9.83912 31.5175C9.70817 31.3246 9.64269 31.1111 9.64269 30.8772V22.9474L1.21412 19.5614C0.773644 19.3977 0.535549 19.076 0.499835 18.5965C0.464121 18.1403 0.654597 17.7953 1.07126 17.5614L30.7855 0.719294C31.2022 0.47368 31.607 0.485376 31.9998 0.754382ZM25.8927 27.0526L29.8391 3.8421L4.23198 18.3509L10.232 20.7544L25.6427 9.54386L17.107 23.5263L25.8927 27.0526Z" fill="white"/>
</svg>
