<svg id="Chat" xmlns="http://www.w3.org/2000/svg" width="18.59" height="18.562" viewBox="0 0 18.59 18.562">
  <g id="Chat-2" data-name="Chat">
    <path id="Fill_1" data-name="Fill 1" d="M9.314,0A9.294,9.294,0,0,0,0,9.295a9.815,9.815,0,0,0,1.255,4.638.972.972,0,0,1,.065.837L.7,16.852a.58.58,0,0,0,.762.725l1.878-.558a1.584,1.584,0,0,1,1.386.335A9.282,9.282,0,1,0,9.314,0" fill="#fab915" opacity="0.4"/>
    <path id="Combined_Shape" data-name="Combined Shape" d="M8.57,1.19A1.19,1.19,0,1,1,9.76,2.38,1.186,1.186,0,0,1,8.57,1.19ZM4.286,1.18a1.19,1.19,0,1,1,1.19,1.2A1.2,1.2,0,0,1,4.286,1.18ZM0,1.19a1.19,1.19,0,0,1,2.379,0A1.2,1.2,0,0,1,1.19,2.38,1.2,1.2,0,0,1,0,1.19Z" transform="translate(3.802 8.114)" fill="#fab915"/>
  </g>
</svg>
