<svg xmlns="http://www.w3.org/2000/svg" width="18.968" height="18.303" viewBox="0 0 18.968 18.303">
  <g id="Component_617_2" data-name="Component 617 – 2" transform="translate(0.1 0.1)">
    <path id="Path_32605" data-name="Path 32605" d="M128.719,296.471a.723.723,0,0,0-.723-.721h-5.775a.722.722,0,0,0,0,1.444H128a.723.723,0,0,0,.723-.723Zm-.962,2.888a.723.723,0,0,0-.723-.721h-4.813a.722.722,0,0,0,0,1.444h4.813a.723.723,0,0,0,.723-.722Zm.24,2.166a.722.722,0,1,1,0,1.444h-5.775a.722.722,0,0,1,0-1.444Z" transform="translate(-117.891 -289.919)" fill="#fff"/>
    <g id="Component_616_1" data-name="Component 616 – 1">
      <path id="Path_32608" data-name="Path 32608" d="M122.3,309.309h12.513a2.647,2.647,0,0,0,2.646-2.646v-5.294a.721.721,0,0,0-.721-.723h-3.129v-7.514a1.684,1.684,0,0,0-2.663-1.371l-.168.121a2.175,2.175,0,0,1-2.524,0,3.626,3.626,0,0,0-4.207,0,2.175,2.175,0,0,1-2.524,0l-.168-.121a1.684,1.684,0,0,0-2.663,1.371V305.7a3.606,3.606,0,0,0,3.609,3.609Zm2.585-16.256a2.188,2.188,0,0,1,2.531,0,3.618,3.618,0,0,0,4.2.005l.168-.121a.235.235,0,0,1,.123-.044.232.232,0,0,1,.127.026.242.242,0,0,1,.095.089.251.251,0,0,1,.036.125v13.53a2.63,2.63,0,0,0,.287,1.2H122.3a2.167,2.167,0,0,1-2.166-2.165V293.132a.251.251,0,0,1,.036-.125.242.242,0,0,1,.095-.089.232.232,0,0,1,.127-.026.235.235,0,0,1,.123.044l.168.121a3.618,3.618,0,0,0,4.2-.005Zm8.724,13.61V302.09h2.408v4.573a1.2,1.2,0,0,1-2.408,0Z" transform="translate(-118.688 -291.206)" fill="#fff" stroke="#fff" stroke-width="0.2" fill-rule="evenodd"/>
    </g>
  </g>
</svg>
