<svg id="Component_631_1" data-name="Component 631 – 1" xmlns="http://www.w3.org/2000/svg" width="65" height="65" viewBox="0 0 65 65">
  <path id="Oval" d="M32.5,0A32.5,32.5,0,1,1,0,32.5,32.5,32.5,0,0,1,32.5,0Z" fill="#fab915"/>
  <path id="instagram-svgrepo-com" d="M17.33,2H8.277C4.344,2,2,4.344,2,8.277v9.042c0,3.943,2.344,6.287,6.277,6.287h9.042c3.932,0,6.277-2.344,6.277-6.277V8.277C23.606,4.344,21.262,2,17.33,2ZM12.8,16.995A4.192,4.192,0,1,1,16.995,12.8,4.2,4.2,0,0,1,12.8,16.995Zm6.4-9.723a1.247,1.247,0,0,1-.227.357,1.247,1.247,0,0,1-.357.227,1.069,1.069,0,0,1-1.178-.227,1.247,1.247,0,0,1-.227-.357,1.018,1.018,0,0,1,0-.821,1.115,1.115,0,0,1,.227-.357A1.079,1.079,0,0,1,18.41,5.8a.652.652,0,0,1,.205.065.818.818,0,0,1,.194.1,1.7,1.7,0,0,1,.162.13,1.115,1.115,0,0,1,.227.357,1.018,1.018,0,0,1,0,.821Z" transform="translate(19.701 19.476)" fill="#fff"/>
</svg>
