<svg id="Component_639_1" data-name="Component 639 – 1" xmlns="http://www.w3.org/2000/svg" xmlns:xlink="http://www.w3.org/1999/xlink" width="424.744" height="378.105" viewBox="0 0 424.744 378.105">
  <defs>
    <clipPath id="clip-path">
      <rect id="Rectangle_147890" data-name="Rectangle 147890" width="424.744" height="378.105" fill="#fff"/>
    </clipPath>
  </defs>
  <g id="Group_67827" data-name="Group 67827" clip-path="url(#clip-path)">
    <path id="Path_35978" data-name="Path 35978" d="M12,141.109S-2.416,204.715,39.261,260.467s113.8,77.8,171.849,97.19,112.09-2.2,132.11-50.946-21.24-75.356-30.719-139.263S310.134,85.2,267.572,36.307,138.276-12,80,37.527,12,141.109,12,141.109Z" transform="translate(3.424 0.002)" fill="#fab915"/>
    <path id="Path_35979" data-name="Path 35979" d="M12,141.109S-2.416,204.715,39.261,260.467s113.8,77.8,171.849,97.19,112.09-2.2,132.11-50.946-21.24-75.356-30.719-139.263S310.134,85.2,267.572,36.307,138.276-12,80,37.527,12,141.109,12,141.109Z" transform="translate(3.424 0.002)" fill="#fff" opacity="0.7"/>
    <path id="Path_35980" data-name="Path 35980" d="M265.7,49.258s1.044-5.4-5.036-14.452S250.57,20.479,250.57,20.479s-6.256,11.7-.668,20.646A135.815,135.815,0,0,0,263.812,59Z" transform="translate(88.389 7.311)" fill="#fab915"/>
    <path id="Path_35981" data-name="Path 35981" d="M252.741,72.563s1.044-5.4-5.036-14.452-10.114-14.327-10.114-14.327-6.256,11.7-.657,20.635A135.3,135.3,0,0,0,250.844,82.3Z" transform="translate(83.756 15.631)" fill="#fab915"/>
    <path id="Path_35982" data-name="Path 35982" d="M260.026,53.2s1.627-5.213,11.271-10.364,15.641-7.852,15.641-7.852,0,13.242-9.154,18.508a136.641,136.641,0,0,1-20.708,9.186Z" transform="translate(91.778 12.49)" fill="#fab915"/>
    <path id="Path_35983" data-name="Path 35983" d="M244.755,79.909s2.168-5.068,12.293-9.124,16.413-6.162,16.413-6.162-1.429,13.169-11.053,17.444a135.042,135.042,0,0,1-21.553,6.955Z" transform="translate(85.987 23.071)" fill="#fab915"/>
    <path id="Path_35984" data-name="Path 35984" d="M239.8,113.8s1.042-5.412,10.114-11.469,14.755-9.468,14.755-9.468,1.356,13.18-7.153,19.374A134.782,134.782,0,0,1,237.9,123.558Z" transform="translate(84.934 33.152)" fill="#fab915"/>
    <path id="Path_35985" data-name="Path 35985" d="M241.824,124.157s1.814-5.214-2.92-15.025-7.977-15.641-7.977-15.641-7.82,10.688-3.6,20.333a135,135,0,0,0,11.231,19.664Z" transform="translate(80.712 33.377)" fill="#fab915"/>
    <path id="Path_35986" data-name="Path 35986" d="M228.153,143.721s1.044-5.4,10.1-11.469,14.764-9.53,14.764-9.53,1.356,13.168-7.153,19.373a135.883,135.883,0,0,1-19.613,11.324Z" transform="translate(80.775 43.812)" fill="#fab915"/>
    <path id="Path_35987" data-name="Path 35987" d="M227.271,166.92s-.343-5.495,6.872-13.68,11.877-12.847,11.877-12.847,4.65,12.4-2.012,20.552a135.061,135.061,0,0,1-16.11,15.923Z" transform="translate(81.137 50.121)" fill="#fab915"/>
    <path id="Path_35988" data-name="Path 35988" d="M274.278,40.765a156.5,156.5,0,0,1-5.349,16.391c-6.016,14.879-15.441,23.388-21.167,36.766s-.646,33.054-6.454,50.54-14.733,26.067-15.078,38.455,3.816,46.828,3.816,46.828" transform="translate(80.759 14.553)" fill="none" stroke="#263238" stroke-linecap="round" stroke-linejoin="round" stroke-width="0.5"/>
    <path id="Path_35989" data-name="Path 35989" d="M258.682,52.272l9.384-4.661" transform="translate(92.352 16.998)" fill="none" stroke="#263238" stroke-linecap="round" stroke-linejoin="round" stroke-width="0.5"/>
    <path id="Path_35990" data-name="Path 35990" d="M260.58,47.562l-2.221-6.736" transform="translate(92.236 14.575)" fill="none" stroke="#263238" stroke-linecap="round" stroke-linejoin="round" stroke-width="0.5"/>
    <path id="Path_35991" data-name="Path 35991" d="M242.515,81.513s7.841-3.785,15.859-7.539" transform="translate(86.58 26.409)" fill="none" stroke="#263238" stroke-linecap="round" stroke-linejoin="round" stroke-width="0.5"/>
    <path id="Path_35992" data-name="Path 35992" d="M248.813,77.674S245.3,65.4,240.294,56.747" transform="translate(85.787 20.259)" fill="none" stroke="#263238" stroke-linecap="round" stroke-linejoin="round" stroke-width="0.5"/>
    <path id="Path_35993" data-name="Path 35993" d="M238.4,118.388A86.058,86.058,0,0,1,256.821,101.7" transform="translate(85.109 36.31)" fill="none" stroke="#263238" stroke-linecap="round" stroke-linejoin="round" stroke-width="0.5"/>
    <path id="Path_35994" data-name="Path 35994" d="M238.407,125.458a97.046,97.046,0,0,0-4.672-15.494c-2.836-6.652-3.253-7.529-3.253-7.529" transform="translate(82.284 36.57)" fill="none" stroke="#263238" stroke-linecap="round" stroke-linejoin="round" stroke-width="0.5"/>
    <path id="Path_35995" data-name="Path 35995" d="M226.225,150.811a91.616,91.616,0,0,1,8.582-11.231,81.435,81.435,0,0,1,10.009-8.884" transform="translate(80.764 46.66)" fill="none" stroke="#263238" stroke-linecap="round" stroke-linejoin="round" stroke-width="0.5"/>
    <path id="Path_35996" data-name="Path 35996" d="M227.731,173.992a23.626,23.626,0,0,1,4.39-11.574c3.92-4.953,8.561-11.522,10.427-14.118" transform="translate(81.302 52.944)" fill="none" stroke="#263238" stroke-linecap="round" stroke-linejoin="round" stroke-width="0.5"/>
    <path id="Path_35997" data-name="Path 35997" d="M214.036,91.968s.073-3.514,5.089-8.342,8.228-7.539,8.228-7.539,2.283,8.112-2.388,12.919A85.893,85.893,0,0,1,213.9,98.245Z" transform="translate(76.364 27.164)" fill="#fab915"/>
    <path id="Path_35998" data-name="Path 35998" d="M218.931,108.211s.083-3.5,5.089-8.341,8.237-7.539,8.237-7.539,2.273,8.112-2.388,12.93a86.129,86.129,0,0,1-11.073,9.228Z" transform="translate(78.112 32.963)" fill="#fab915"/>
    <path id="Path_35999" data-name="Path 35999" d="M217.97,96.135s-.292-3.493-5.6-7.977-8.686-7.007-8.686-7.007-1.772,8.248,3.19,12.752a86.418,86.418,0,0,0,11.627,8.519Z" transform="translate(72.607 28.972)" fill="#fab915"/>
    <path id="Path_36000" data-name="Path 36000" d="M224.233,114.893s-.668-3.44-6.413-7.3-9.384-6.059-9.384-6.059-.886,8.342,4.515,12.346a86.722,86.722,0,0,0,12.46,7.3Z" transform="translate(74.394 36.249)" fill="#fab915"/>
    <path id="Path_36001" data-name="Path 36001" d="M221.94,136.441s.073-3.5-4.722-8.519-7.894-7.883-7.894-7.883-2.627,8.008,1.814,13.012a86.091,86.091,0,0,0,10.666,9.7Z" transform="translate(74.455 42.855)" fill="#fab915"/>
    <path id="Path_36002" data-name="Path 36002" d="M218.375,141.817s-.427-3.473,3.858-8.947,7.07-8.613,7.07-8.613,3.41,7.706-.521,13.128a86.351,86.351,0,0,1-9.646,10.71Z" transform="translate(77.958 44.361)" fill="#fab915"/>
    <path id="Path_36003" data-name="Path 36003" d="M221.933,161.739s1.042-3.346,7.225-6.538,10.021-4.911,10.021-4.911-.095,8.426-5.923,11.72a86.166,86.166,0,0,1-13.232,5.746Z" transform="translate(78.55 53.655)" fill="#fab915"/>
    <path id="Path_36004" data-name="Path 36004" d="M225.14,156.618s.073-3.5-4.735-8.518-7.892-7.883-7.892-7.883-2.629,8.008,1.824,13.012a86.205,86.205,0,0,0,10.667,9.7Z" transform="translate(75.594 50.059)" fill="#fab915"/>
    <path id="Path_36005" data-name="Path 36005" d="M221.7,170.888s.959-3.368-2.409-9.437-5.641-9.624-5.641-9.624-4.577,7.08-1.532,13.054a86,86,0,0,0,7.852,12.1Z" transform="translate(75.354 54.204)" fill="#fab915"/>
    <path id="Path_36006" data-name="Path 36006" d="M213.67,87.114a100.158,100.158,0,0,0,1.1,10.917c1.732,10.063,6.434,16.684,8.186,25.733s-4.076,20.636-2.836,32.324,5.621,18.216,4.171,25.953-8.7,28.6-8.7,28.6" transform="translate(76.282 31.1)" fill="none" stroke="#263238" stroke-linecap="round" stroke-linejoin="round" stroke-width="0.5"/>
    <path id="Path_36007" data-name="Path 36007" d="M215.5,95l-5.2-4.171" transform="translate(75.078 32.428)" fill="none" stroke="#263238" stroke-linecap="round" stroke-linejoin="round" stroke-width="0.5"/>
    <path id="Path_36008" data-name="Path 36008" d="M214.023,91.487l2.295-3.889" transform="translate(76.408 31.273)" fill="none" stroke="#263238" stroke-linecap="round" stroke-linejoin="round" stroke-width="0.5"/>
    <path id="Path_36009" data-name="Path 36009" d="M222.639,115.6s-4.348-3.409-8.831-6.83" transform="translate(76.331 38.833)" fill="none" stroke="#263238" stroke-linecap="round" stroke-linejoin="round" stroke-width="0.5"/>
    <path id="Path_36010" data-name="Path 36010" d="M218.8,111.8a70.911,70.911,0,0,1,8.133-11.866" transform="translate(78.112 35.679)" fill="none" stroke="#263238" stroke-linecap="round" stroke-linejoin="round" stroke-width="0.5"/>
    <path id="Path_36011" data-name="Path 36011" d="M220.63,139.168a54.61,54.61,0,0,0-9.2-12.867" transform="translate(75.484 45.091)" fill="none" stroke="#263238" stroke-linecap="round" stroke-linejoin="round" stroke-width="0.5"/>
    <path id="Path_36012" data-name="Path 36012" d="M218.772,142.925a61.893,61.893,0,0,1,4.984-9c2.669-3.753,3.045-4.243,3.045-4.243" transform="translate(78.103 46.298)" fill="none" stroke="#263238" stroke-linecap="round" stroke-linejoin="round" stroke-width="0.5"/>
    <path id="Path_36013" data-name="Path 36013" d="M220.47,163.422a51.668,51.668,0,0,1,7.5-5.214,33.007,33.007,0,0,0,4.733-2.732" transform="translate(78.71 55.507)" fill="none" stroke="#263238" stroke-linecap="round" stroke-linejoin="round" stroke-width="0.5"/>
    <path id="Path_36014" data-name="Path 36014" d="M223.83,161a58.432,58.432,0,0,0-3.805-8.154A51.8,51.8,0,0,0,215,145.98" transform="translate(76.756 52.116)" fill="none" stroke="#263238" stroke-linecap="round" stroke-linejoin="round" stroke-width="0.5"/>
    <path id="Path_36015" data-name="Path 36015" d="M219.136,175.089a14.943,14.943,0,0,0-1.158-7.788c-1.761-3.608-3.753-8.342-4.577-10.187" transform="translate(76.186 56.091)" fill="none" stroke="#263238" stroke-linecap="round" stroke-linejoin="round" stroke-width="0.5"/>
    <path id="Path_36016" data-name="Path 36016" d="M34.984,145.994s-1.648-4.764-10.615-9.114-14.6-6.683-14.6-6.683.459,12.1,8.946,16.61a123.328,123.328,0,0,0,19.2,7.747Z" transform="translate(3.488 46.481)" fill="#fab915"/>
    <path id="Path_36017" data-name="Path 36017" d="M35.437,170.352s-1.647-4.755-10.615-9.114-14.6-6.683-14.6-6.683.459,12.1,8.946,16.621a124.065,124.065,0,0,0,19.2,7.736Z" transform="translate(3.65 55.177)" fill="#fab915"/>
    <path id="Path_36018" data-name="Path 36018" d="M30.137,154.958S29,150.047,34.308,141.59s8.79-13.4,8.79-13.4,6.037,10.488,1.251,18.831A123.242,123.242,0,0,1,32.2,163.778Z" transform="translate(10.723 45.766)" fill="#fab915"/>
    <path id="Path_36019" data-name="Path 36019" d="M30.453,183.4s-.615-5,5.526-12.856,10.145-12.4,10.145-12.4,4.911,11.064-.73,18.852a124.3,124.3,0,0,1-13.837,15.391Z" transform="translate(10.866 56.458)" fill="#fab915"/>
    <path id="Path_36020" data-name="Path 36020" d="M41.9,211.744s-1.647-4.754,2.711-13.722,7.3-14.253,7.3-14.253,7.122,9.791,3.243,18.591a123.658,123.658,0,0,1-10.3,17.945Z" transform="translate(14.85 65.607)" fill="#fab915"/>
    <path id="Path_36021" data-name="Path 36021" d="M50.113,216.345s-.959-4.942-9.218-10.53-13.461-8.675-13.461-8.675-1.272,12.033,6.5,17.725a123.872,123.872,0,0,0,17.893,10.427Z" transform="translate(9.766 70.38)" fill="#fab915"/>
    <path id="Path_36022" data-name="Path 36022" d="M46.419,240.731S44.772,235.965,49.13,227s7.3-14.253,7.3-14.253,7.122,9.791,3.243,18.591A124.091,124.091,0,0,1,49.36,249.291Z" transform="translate(16.463 75.952)" fill="#fab915"/>
    <path id="Path_36023" data-name="Path 36023" d="M56.427,258.506s-2.8-4.171-.855-13.962,3.472-15.64,3.472-15.64,9.384,7.674,7.831,17.162a123.585,123.585,0,0,1-5.422,19.978Z" transform="translate(19.593 81.721)" fill="#fab915"/>
    <path id="Path_36024" data-name="Path 36024" d="M28.489,140.785a142.413,142.413,0,0,1,3.295,15.4c2.085,14.515-1.481,25.567.146,38.768s14.6,26.411,18.091,42.9.334,27.382,5.724,37.308,24.493,35.265,24.493,35.265" transform="translate(10.171 50.261)" fill="none" stroke="#263238" stroke-linecap="round" stroke-linejoin="round" stroke-width="0.5"/>
    <path id="Path_36025" data-name="Path 36025" d="M30.863,152.36l5.276-7.986" transform="translate(11.019 51.543)" fill="none" stroke="#263238" stroke-linecap="round" stroke-linejoin="round" stroke-width="0.5"/>
    <path id="Path_36026" data-name="Path 36026" d="M30.774,146.636l-4.859-4.306" transform="translate(9.252 50.813)" fill="none" stroke="#263238" stroke-linecap="round" stroke-linejoin="round" stroke-width="0.5"/>
    <path id="Path_36027" data-name="Path 36027" d="M31.163,183.669s4.452-6.59,9.071-13.232" transform="translate(11.125 60.847)" fill="none" stroke="#263238" stroke-linecap="round" stroke-linejoin="round" stroke-width="0.5"/>
    <path id="Path_36028" data-name="Path 36028" d="M35.282,175.826s-8.4-8.122-16.329-12.627" transform="translate(6.767 58.263)" fill="none" stroke="#263238" stroke-linecap="round" stroke-linejoin="round" stroke-width="0.5"/>
    <path id="Path_36029" data-name="Path 36029" d="M43.726,215a78.47,78.47,0,0,1,6.9-21.636" transform="translate(15.611 69.033)" fill="none" stroke="#263238" stroke-linecap="round" stroke-linejoin="round" stroke-width="0.5"/>
    <path id="Path_36030" data-name="Path 36030" d="M48.986,218.356A89.008,89.008,0,0,0,38.2,208.263c-5.3-3.962-6.027-4.462-6.027-4.462" transform="translate(11.488 72.759)" fill="none" stroke="#263238" stroke-linecap="round" stroke-linejoin="round" stroke-width="0.5"/>
    <path id="Path_36031" data-name="Path 36031" d="M48.567,246.221a85.385,85.385,0,0,1,1.627-12.814,74.514,74.514,0,0,1,3.837-11.564" transform="translate(17.339 79.199)" fill="none" stroke="#263238" stroke-linecap="round" stroke-linejoin="round" stroke-width="0.5"/>
    <path id="Path_36032" data-name="Path 36032" d="M60.238,263.4a21.622,21.622,0,0,1-1.846-11.156c.834-5.714,1.481-13.034,1.773-15.944" transform="translate(20.808 84.362)" fill="none" stroke="#263238" stroke-linecap="round" stroke-linejoin="round" stroke-width="0.5"/>
    <path id="Path_36033" data-name="Path 36033" d="M12.581,204.7s-1.554-2.8.209-8.9,3.045-9.728,3.045-9.728,5.526,5.37,4.046,11.3a78.927,78.927,0,0,1-4.515,12.377Z" transform="translate(4.266 66.427)" fill="#fab915"/>
    <path id="Path_36034" data-name="Path 36034" d="M23.906,215.288s-1.543-2.8.209-8.9,3.045-9.728,3.045-9.728,5.526,5.37,4.046,11.3a78.316,78.316,0,0,1-4.5,12.377Z" transform="translate(8.31 70.208)" fill="#fab915"/>
    <path id="Path_36035" data-name="Path 36035" d="M19.322,204.608s-1.835-2.629-8.091-3.733-10.073-1.554-10.073-1.554,2.388,7.3,8.342,8.613a78.288,78.288,0,0,0,13.107,1.4Z" transform="translate(0.413 71.159)" fill="#fab915"/>
    <path id="Path_36036" data-name="Path 36036" d="M32.935,216.573s-2.085-2.418-8.435-2.857-10.187-.48-10.187-.48,3.128,7.028,9.228,7.685a79.318,79.318,0,0,0,13.169,0Z" transform="translate(5.11 76.127)" fill="#fab915"/>
    <path id="Path_36037" data-name="Path 36037" d="M40.863,234.694s-1.554-2.8-7.643-4.568-9.864-2.605-9.864-2.605,1.606,7.538,7.414,9.446a78.458,78.458,0,0,0,12.877,2.774Z" transform="translate(8.338 81.227)" fill="#fab915"/>
    <path id="Path_36038" data-name="Path 36038" d="M38.883,241.806s-1.929-2.554-1.043-8.831S39.477,222.9,39.477,222.9s6.256,4.524,5.61,10.624a78.193,78.193,0,0,1-2.711,12.889Z" transform="translate(13.426 79.578)" fill="#fab915"/>
    <path id="Path_36039" data-name="Path 36039" d="M50.856,256.9s-.688-3.128,2.711-8.477,5.662-8.487,5.662-8.487,3.8,6.714.7,11.991a78.047,78.047,0,0,1-7.82,10.6Z" transform="translate(18.136 85.66)" fill="#fab915"/>
    <path id="Path_36040" data-name="Path 36040" d="M52.64,249.17s-1.543-2.8-7.643-4.557S35.143,242,35.143,242s1.6,7.538,7.414,9.457a78.951,78.951,0,0,0,12.877,2.816Z" transform="translate(12.546 86.395)" fill="#fab915"/>
    <path id="Path_36041" data-name="Path 36041" d="M56.106,262.248s-.782-3.128-6.256-6.351-8.873-5.025-8.873-5.025-.365,7.694,4.776,11.022A78.661,78.661,0,0,0,57.5,267.836Z" transform="translate(14.627 89.563)" fill="#fab915"/>
    <path id="Path_36042" data-name="Path 36042" d="M11.861,199.413a92.851,92.851,0,0,0,5.881,8.112c5.985,7.164,12.721,10.2,18.279,16.579s6.256,18.185,12.575,26.829,12.815,11.814,15.2,18.6,6.256,26.589,6.256,26.589" transform="translate(4.235 71.192)" fill="none" stroke="#263238" stroke-linecap="round" stroke-linejoin="round" stroke-width="0.5"/>
    <path id="Path_36043" data-name="Path 36043" d="M16.912,204.819l-6.027-.919" transform="translate(3.886 72.794)" fill="none" stroke="#263238" stroke-linecap="round" stroke-linejoin="round" stroke-width="0.5"/>
    <path id="Path_36044" data-name="Path 36044" d="M13.659,202.979l.031-4.119" transform="translate(4.877 70.995)" fill="none" stroke="#263238" stroke-linecap="round" stroke-linejoin="round" stroke-width="0.5"/>
    <path id="Path_36045" data-name="Path 36045" d="M32.011,217.816s-5-.7-10.114-1.345" transform="translate(7.817 77.282)" fill="none" stroke="#263238" stroke-linecap="round" stroke-linejoin="round" stroke-width="0.5"/>
    <path id="Path_36046" data-name="Path 36046" d="M25.806,217.549a64.04,64.04,0,0,1,.98-13.1" transform="translate(9.204 72.992)" fill="none" stroke="#263238" stroke-linecap="round" stroke-linejoin="round" stroke-width="0.5"/>
    <path id="Path_36047" data-name="Path 36047" d="M41.246,237.371a50.181,50.181,0,0,0-13.18-5.955" transform="translate(10.02 82.617)" fill="none" stroke="#263238" stroke-linecap="round" stroke-linejoin="round" stroke-width="0.5"/>
    <path id="Path_36048" data-name="Path 36048" d="M39.972,242.141a55.957,55.957,0,0,1-.188-9.385c.386-4.17.459-4.744.459-4.744" transform="translate(14.162 81.402)" fill="none" stroke="#263238" stroke-linecap="round" stroke-linejoin="round" stroke-width="0.5"/>
    <path id="Path_36049" data-name="Path 36049" d="M51.279,258.071a47.415,47.415,0,0,1,3.483-7.58,31.66,31.66,0,0,0,2.492-4.337" transform="translate(18.307 87.879)" fill="none" stroke="#263238" stroke-linecap="round" stroke-linejoin="round" stroke-width="0.5"/>
    <path id="Path_36050" data-name="Path 36050" d="M53.786,253.144a53.63,53.63,0,0,0-6.746-4.693,48.1,48.1,0,0,0-7.132-3.128" transform="translate(14.247 87.583)" fill="none" stroke="#263238" stroke-linecap="round" stroke-linejoin="round" stroke-width="0.5"/>
    <path id="Path_36051" data-name="Path 36051" d="M56.547,266.418a13.758,13.758,0,0,0-4.494-5.63c-3.045-2.033-6.788-4.849-8.342-5.944" transform="translate(15.605 90.981)" fill="none" stroke="#263238" stroke-linecap="round" stroke-linejoin="round" stroke-width="0.5"/>
    <path id="Path_36052" data-name="Path 36052" d="M252.847,153.917H179.43a4.7,4.7,0,0,0-4.7,4.7V316.975a4.7,4.7,0,0,0,4.7,4.7h73.417a4.7,4.7,0,0,0,4.7-4.7V158.619A4.7,4.7,0,0,0,252.847,153.917Z" transform="translate(62.379 54.95)" fill="#fff" stroke="#263238" stroke-linecap="round" stroke-linejoin="round" stroke-width="1.01"/>
    <path id="Path_36053" data-name="Path 36053" d="M250.04,170.138H181.075a4.7,4.7,0,0,0-4.7,4.7V307.18a4.7,4.7,0,0,0,4.7,4.7H250.04a4.7,4.7,0,0,0,4.7-4.7V174.84A4.7,4.7,0,0,0,250.04,170.138Z" transform="translate(62.966 60.741)" fill="#fab915"/>
    <path id="Path_36054" data-name="Path 36054" d="M250.04,170.138H181.075a4.7,4.7,0,0,0-4.7,4.7V307.18a4.7,4.7,0,0,0,4.7,4.7H250.04a4.7,4.7,0,0,0,4.7-4.7V174.84A4.7,4.7,0,0,0,250.04,170.138Z" transform="translate(62.966 60.741)" fill="#fff" opacity="0.5"/>
    <path id="Path_36055" data-name="Path 36055" d="M230.138,127.254h-39.4v36.182h39.4Z" transform="translate(68.093 45.431)" fill="#263238" stroke="#263238" stroke-linecap="round" stroke-linejoin="round" stroke-width="1.01"/>
    <path id="Path_36056" data-name="Path 36056" d="M193.154,129.89v28.7" transform="translate(68.958 46.372)" fill="none" stroke="#fff" stroke-linecap="round" stroke-linejoin="round" stroke-width="1.01"/>
    <path id="Path_36057" data-name="Path 36057" d="M197.641,129.89v28.7" transform="translate(70.56 46.372)" fill="none" stroke="#fff" stroke-linecap="round" stroke-linejoin="round" stroke-width="1.01"/>
    <path id="Path_36058" data-name="Path 36058" d="M204.05,136.621v19.571" transform="translate(72.848 48.775)" fill="none" stroke="#fff" stroke-linecap="round" stroke-linejoin="round" stroke-width="1.01"/>
    <path id="Path_36059" data-name="Path 36059" d="M204.05,129.89v4.786" transform="translate(72.848 46.372)" fill="none" stroke="#fff" stroke-linecap="round" stroke-linejoin="round" stroke-width="1.01"/>
    <path id="Path_36060" data-name="Path 36060" d="M251.581,180.15H178.217v80.966h73.364Z" transform="translate(63.625 64.315)" fill="#fff"/>
    <path id="Path_36061" data-name="Path 36061" d="M212.036,245.844a27.173,27.173,0,1,0-27.173-27.173A27.173,27.173,0,0,0,212.036,245.844Z" transform="translate(65.998 68.367)" fill="#263238"/>
    <path id="Path_36062" data-name="Path 36062" d="M211.169,197.746h-9.947v37.391h9.947Z" transform="translate(71.838 70.597)" fill="#fab915"/>
    <path id="Path_36063" data-name="Path 36063" d="M228.5,217.8v-9.947H191.11V217.8Z" transform="translate(68.228 74.207)" fill="#fab915"/>
    <path id="Path_36064" data-name="Path 36064" d="M321.106,221h-115.5a4.953,4.953,0,0,0-4.953,4.953v67.181a4.953,4.953,0,0,0,4.953,4.952h115.5a4.952,4.952,0,0,0,4.953-4.952V225.95A4.953,4.953,0,0,0,321.106,221Z" transform="translate(71.635 78.898)" fill="#fff" stroke="#263238" stroke-linecap="round" stroke-linejoin="round" stroke-width="1"/>
    <path id="Path_36065" data-name="Path 36065" d="M210.715,251.393a4.629,4.629,0,0,1-4.629-4.63V234.251a4.635,4.635,0,1,1,9.27,0v12.512a4.629,4.629,0,0,1-4.641,4.63Z" transform="translate(73.574 81.973)" fill="#263238" stroke="#263238" stroke-linecap="round" stroke-linejoin="round" stroke-width="1.01"/>
    <path id="Path_36066" data-name="Path 36066" d="M211.81,232.715v7.757" transform="translate(75.618 83.081)" fill="none" stroke="#fff" stroke-linecap="round" stroke-linejoin="round" stroke-width="1.01"/>
    <path id="Path_36067" data-name="Path 36067" d="M211.81,239.907v4.254" transform="translate(75.618 85.649)" fill="none" stroke="#fff" stroke-linecap="round" stroke-linejoin="round" stroke-width="1.01"/>
    <path id="Path_36068" data-name="Path 36068" d="M225.645,251.393a4.628,4.628,0,0,1-4.629-4.63V234.251a4.629,4.629,0,1,1,9.259,0v12.512a4.628,4.628,0,0,1-4.63,4.63Z" transform="translate(78.905 81.973)" fill="#263238" stroke="#263238" stroke-linecap="round" stroke-linejoin="round" stroke-width="1.01"/>
    <path id="Path_36069" data-name="Path 36069" d="M226.748,232.715v7.757" transform="translate(80.951 83.081)" fill="none" stroke="#fff" stroke-linecap="round" stroke-linejoin="round" stroke-width="1.01"/>
    <path id="Path_36070" data-name="Path 36070" d="M226.748,239.907v4.254" transform="translate(80.951 85.649)" fill="none" stroke="#fff" stroke-linecap="round" stroke-linejoin="round" stroke-width="1.01"/>
    <path id="Path_36071" data-name="Path 36071" d="M240.6,251.393a4.628,4.628,0,0,1-4.629-4.63V234.251a4.629,4.629,0,1,1,9.259,0v12.512a4.628,4.628,0,0,1-4.63,4.63Z" transform="translate(84.245 81.973)" fill="#263238" stroke="#263238" stroke-linecap="round" stroke-linejoin="round" stroke-width="1.01"/>
    <path id="Path_36072" data-name="Path 36072" d="M241.693,232.715v7.757" transform="translate(86.286 83.081)" fill="none" stroke="#fff" stroke-linecap="round" stroke-linejoin="round" stroke-width="1.01"/>
    <path id="Path_36073" data-name="Path 36073" d="M241.693,239.907v4.254" transform="translate(86.286 85.649)" fill="none" stroke="#fff" stroke-linecap="round" stroke-linejoin="round" stroke-width="1.01"/>
    <path id="Path_36074" data-name="Path 36074" d="M255.551,251.393a4.628,4.628,0,0,1-4.63-4.63V234.251a4.629,4.629,0,1,1,9.259,0v12.512a4.628,4.628,0,0,1-4.629,4.63Z" transform="translate(89.581 81.973)" fill="#263238" stroke="#263238" stroke-linecap="round" stroke-linejoin="round" stroke-width="1.01"/>
    <path id="Path_36075" data-name="Path 36075" d="M256.638,232.715v7.757" transform="translate(91.622 83.081)" fill="none" stroke="#fff" stroke-linecap="round" stroke-linejoin="round" stroke-width="1.01"/>
    <path id="Path_36076" data-name="Path 36076" d="M256.638,239.907v4.254" transform="translate(91.622 85.649)" fill="none" stroke="#fff" stroke-linecap="round" stroke-linejoin="round" stroke-width="1.01"/>
    <path id="Path_36077" data-name="Path 36077" d="M270.5,251.393a4.632,4.632,0,0,1-4.641-4.63V234.251a4.635,4.635,0,1,1,9.27,0v12.512a4.628,4.628,0,0,1-4.629,4.63Z" transform="translate(94.914 81.973)" fill="#263238" stroke="#263238" stroke-linecap="round" stroke-linejoin="round" stroke-width="1.01"/>
    <path id="Path_36078" data-name="Path 36078" d="M271.583,232.715v7.757" transform="translate(96.957 83.081)" fill="none" stroke="#fff" stroke-linecap="round" stroke-linejoin="round" stroke-width="1.01"/>
    <path id="Path_36079" data-name="Path 36079" d="M271.583,239.907v4.254" transform="translate(96.957 85.649)" fill="none" stroke="#fff" stroke-linecap="round" stroke-linejoin="round" stroke-width="1.01"/>
    <path id="Path_36080" data-name="Path 36080" d="M285.433,251.393a4.631,4.631,0,0,1-4.63-4.63V234.251a4.63,4.63,0,1,1,9.26,0v12.512a4.631,4.631,0,0,1-4.63,4.63Z" transform="translate(100.249 81.973)" fill="#263238" stroke="#263238" stroke-linecap="round" stroke-linejoin="round" stroke-width="1.01"/>
    <path id="Path_36081" data-name="Path 36081" d="M286.52,232.715v7.757" transform="translate(102.29 83.081)" fill="none" stroke="#fff" stroke-linecap="round" stroke-linejoin="round" stroke-width="1.01"/>
    <path id="Path_36082" data-name="Path 36082" d="M286.52,239.907v4.254" transform="translate(102.29 85.649)" fill="none" stroke="#fff" stroke-linecap="round" stroke-linejoin="round" stroke-width="1.01"/>
    <path id="Path_36083" data-name="Path 36083" d="M210.715,275.886a4.629,4.629,0,0,1-4.629-4.63V258.744a4.635,4.635,0,0,1,9.27,0v12.512a4.629,4.629,0,0,1-4.641,4.63Z" transform="translate(73.574 90.721)" fill="#263238" stroke="#263238" stroke-linecap="round" stroke-linejoin="round" stroke-width="1.01"/>
    <path id="Path_36084" data-name="Path 36084" d="M211.81,257.249v7.758" transform="translate(75.618 91.84)" fill="none" stroke="#fff" stroke-linecap="round" stroke-linejoin="round" stroke-width="1.01"/>
    <path id="Path_36085" data-name="Path 36085" d="M211.81,264.441V268.7" transform="translate(75.618 94.408)" fill="none" stroke="#fff" stroke-linecap="round" stroke-linejoin="round" stroke-width="1.01"/>
    <path id="Path_36086" data-name="Path 36086" d="M225.645,275.886a4.628,4.628,0,0,1-4.629-4.63V258.744a4.629,4.629,0,1,1,9.259,0v12.512a4.621,4.621,0,0,1-4.63,4.63Z" transform="translate(78.905 90.721)" fill="#263238" stroke="#263238" stroke-linecap="round" stroke-linejoin="round" stroke-width="1.01"/>
    <path id="Path_36087" data-name="Path 36087" d="M226.748,257.249v7.758" transform="translate(80.951 91.84)" fill="none" stroke="#fff" stroke-linecap="round" stroke-linejoin="round" stroke-width="1.01"/>
    <path id="Path_36088" data-name="Path 36088" d="M226.748,264.441V268.7" transform="translate(80.951 94.408)" fill="none" stroke="#fff" stroke-linecap="round" stroke-linejoin="round" stroke-width="1.01"/>
    <path id="Path_36089" data-name="Path 36089" d="M240.6,275.886a4.628,4.628,0,0,1-4.629-4.63V258.744a4.629,4.629,0,1,1,9.259,0v12.512a4.628,4.628,0,0,1-4.63,4.63Z" transform="translate(84.245 90.721)" fill="#263238" stroke="#263238" stroke-linecap="round" stroke-linejoin="round" stroke-width="1.01"/>
    <path id="Path_36090" data-name="Path 36090" d="M241.693,257.249v7.758" transform="translate(86.286 91.84)" fill="none" stroke="#fff" stroke-linecap="round" stroke-linejoin="round" stroke-width="1.01"/>
    <path id="Path_36091" data-name="Path 36091" d="M241.693,264.441V268.7" transform="translate(86.286 94.408)" fill="none" stroke="#fff" stroke-linecap="round" stroke-linejoin="round" stroke-width="1.01"/>
    <path id="Path_36092" data-name="Path 36092" d="M255.551,275.886a4.621,4.621,0,0,1-4.63-4.63V258.744a4.629,4.629,0,0,1,9.259,0v12.512a4.628,4.628,0,0,1-4.629,4.63Z" transform="translate(89.581 90.721)" fill="#263238" stroke="#263238" stroke-linecap="round" stroke-linejoin="round" stroke-width="1.01"/>
    <path id="Path_36093" data-name="Path 36093" d="M256.638,257.249v7.758" transform="translate(91.622 91.84)" fill="none" stroke="#fff" stroke-linecap="round" stroke-linejoin="round" stroke-width="1.01"/>
    <path id="Path_36094" data-name="Path 36094" d="M256.638,264.441V268.7" transform="translate(91.622 94.408)" fill="none" stroke="#fff" stroke-linecap="round" stroke-linejoin="round" stroke-width="1.01"/>
    <path id="Path_36095" data-name="Path 36095" d="M270.5,275.886a4.632,4.632,0,0,1-4.641-4.63V258.744a4.635,4.635,0,0,1,9.27,0v12.512a4.628,4.628,0,0,1-4.629,4.63Z" transform="translate(94.914 90.721)" fill="#263238" stroke="#263238" stroke-linecap="round" stroke-linejoin="round" stroke-width="1.01"/>
    <path id="Path_36096" data-name="Path 36096" d="M271.583,257.249v7.758" transform="translate(96.957 91.84)" fill="none" stroke="#fff" stroke-linecap="round" stroke-linejoin="round" stroke-width="1.01"/>
    <path id="Path_36097" data-name="Path 36097" d="M271.583,264.441V268.7" transform="translate(96.957 94.408)" fill="none" stroke="#fff" stroke-linecap="round" stroke-linejoin="round" stroke-width="1.01"/>
    <path id="Path_36098" data-name="Path 36098" d="M285.433,275.886a4.631,4.631,0,0,1-4.63-4.63V258.744a4.63,4.63,0,1,1,9.26,0v12.512a4.621,4.621,0,0,1-4.63,4.63Z" transform="translate(100.249 90.721)" fill="#263238" stroke="#263238" stroke-linecap="round" stroke-linejoin="round" stroke-width="1.01"/>
    <path id="Path_36099" data-name="Path 36099" d="M286.52,257.249v7.758" transform="translate(102.29 91.84)" fill="none" stroke="#fff" stroke-linecap="round" stroke-linejoin="round" stroke-width="1.01"/>
    <path id="Path_36100" data-name="Path 36100" d="M286.52,264.441V268.7" transform="translate(102.29 94.408)" fill="none" stroke="#fff" stroke-linecap="round" stroke-linejoin="round" stroke-width="1.01"/>
    <path id="Path_36101" data-name="Path 36101" d="M217.058,223.948v2.605" transform="translate(77.492 79.951)" fill="none" stroke="#263238" stroke-linecap="round" stroke-linejoin="round" stroke-width="0.5"/>
    <path id="Path_36102" data-name="Path 36102" d="M217.058,229.434v55.628" transform="translate(77.492 81.91)" fill="none" stroke="#263238" stroke-linecap="round" stroke-linejoin="round" stroke-width="0.5" stroke-dasharray="4.64 4.64"/>
    <path id="Path_36103" data-name="Path 36103" d="M217.058,272.21v2.607" transform="translate(77.492 97.181)" fill="none" stroke="#263238" stroke-linecap="round" stroke-linejoin="round" stroke-width="0.5"/>
    <path id="Path_36104" data-name="Path 36104" d="M232,223.948v2.605" transform="translate(82.827 79.951)" fill="none" stroke="#263238" stroke-linecap="round" stroke-linejoin="round" stroke-width="0.5"/>
    <path id="Path_36105" data-name="Path 36105" d="M232,229.434v55.628" transform="translate(82.827 81.91)" fill="none" stroke="#263238" stroke-linecap="round" stroke-linejoin="round" stroke-width="0.5" stroke-dasharray="4.64 4.64"/>
    <path id="Path_36106" data-name="Path 36106" d="M232,272.21v2.607" transform="translate(82.827 97.181)" fill="none" stroke="#263238" stroke-linecap="round" stroke-linejoin="round" stroke-width="0.5"/>
    <path id="Path_36107" data-name="Path 36107" d="M246.948,223.948v2.605" transform="translate(88.163 79.951)" fill="none" stroke="#263238" stroke-linecap="round" stroke-linejoin="round" stroke-width="0.5"/>
    <path id="Path_36108" data-name="Path 36108" d="M246.948,229.434v55.628" transform="translate(88.163 81.91)" fill="none" stroke="#263238" stroke-linecap="round" stroke-linejoin="round" stroke-width="0.5" stroke-dasharray="4.64 4.64"/>
    <path id="Path_36109" data-name="Path 36109" d="M246.948,272.21v2.607" transform="translate(88.163 97.181)" fill="none" stroke="#263238" stroke-linecap="round" stroke-linejoin="round" stroke-width="0.5"/>
    <path id="Path_36110" data-name="Path 36110" d="M261.886,223.948v2.605" transform="translate(93.496 79.951)" fill="none" stroke="#263238" stroke-linecap="round" stroke-linejoin="round" stroke-width="0.5"/>
    <path id="Path_36111" data-name="Path 36111" d="M261.886,229.434v55.628" transform="translate(93.496 81.91)" fill="none" stroke="#263238" stroke-linecap="round" stroke-linejoin="round" stroke-width="0.5" stroke-dasharray="4.64 4.64"/>
    <path id="Path_36112" data-name="Path 36112" d="M261.886,272.21v2.607" transform="translate(93.496 97.181)" fill="none" stroke="#263238" stroke-linecap="round" stroke-linejoin="round" stroke-width="0.5"/>
    <path id="Path_36113" data-name="Path 36113" d="M276.831,223.948v2.605" transform="translate(98.831 79.951)" fill="none" stroke="#263238" stroke-linecap="round" stroke-linejoin="round" stroke-width="0.5"/>
    <path id="Path_36114" data-name="Path 36114" d="M276.831,229.434v55.628" transform="translate(98.831 81.91)" fill="none" stroke="#263238" stroke-linecap="round" stroke-linejoin="round" stroke-width="0.5" stroke-dasharray="4.64 4.64"/>
    <path id="Path_36115" data-name="Path 36115" d="M276.831,272.21v2.607" transform="translate(98.831 97.181)" fill="none" stroke="#263238" stroke-linecap="round" stroke-linejoin="round" stroke-width="0.5"/>
    <path id="Path_36116" data-name="Path 36116" d="M203.035,249.4H321.456" transform="translate(72.485 89.039)" fill="none" stroke="#263238" stroke-linecap="round" stroke-linejoin="round" stroke-width="0.5" stroke-dasharray="5 5"/>
    <path id="Path_36117" data-name="Path 36117" d="M295.823,233.338V216.31H268.285v17.028l-6.6,9.039a7.5,7.5,0,0,0-1.429,4.4V299.4H303.81V246.757a7.494,7.494,0,0,0-1.428-4.4Z" transform="translate(92.914 77.225)" fill="#263238" stroke="#263238" stroke-linecap="round" stroke-linejoin="round" stroke-width="1.01"/>
    <path id="Path_36118" data-name="Path 36118" d="M293.691,210.555H266.258v2.95h27.433Z" transform="translate(95.056 75.17)" fill="#263238" stroke="#263238" stroke-linecap="round" stroke-linejoin="round" stroke-width="1.01"/>
    <path id="Path_36119" data-name="Path 36119" d="M298.758,205.614H263.223v7.56h35.535Z" transform="translate(93.973 73.406)" fill="#fab915" stroke="#263238" stroke-linecap="round" stroke-linejoin="round" stroke-width="1.01"/>
    <path id="Path_36120" data-name="Path 36120" d="M297.433,212.622H264.547a1.323,1.323,0,0,0-1.324,1.323V217.3a1.323,1.323,0,0,0,1.324,1.323h32.886a1.323,1.323,0,0,0,1.324-1.323v-3.359A1.323,1.323,0,0,0,297.433,212.622Z" transform="translate(93.973 75.908)" fill="#263238" stroke="#263238" stroke-linecap="round" stroke-linejoin="round" stroke-width="1.01"/>
    <path id="Path_36121" data-name="Path 36121" d="M288.417,241.136H260.265v35.056h28.152Z" transform="translate(92.917 86.088)" fill="#fab915" stroke="#263238" stroke-linecap="round" stroke-linejoin="round" stroke-width="1.01"/>
    <path id="Path_36122" data-name="Path 36122" d="M198.972,34.879H60.6a15.14,15.14,0,0,0-15.14,15.14v298.86a15.14,15.14,0,0,0,15.14,15.14H198.972a15.14,15.14,0,0,0,15.14-15.14V50.019A15.14,15.14,0,0,0,198.972,34.879Z" transform="translate(16.228 12.452)" fill="#263238"/>
    <path id="Path_36123" data-name="Path 36123" d="M59.975,34.879A14.535,14.535,0,0,0,45.44,49.414v300.07a14.494,14.494,0,0,0,5.213,11.146l98.4-325.751Z" transform="translate(16.222 12.452)" fill="#fff" opacity="0.2"/>
    <path id="Path_36124" data-name="Path 36124" d="M114.845,271.921a5.736,5.736,0,1,0-1.68,4.055,5.739,5.739,0,0,0,1.68-4.055Z" transform="translate(36.906 95.031)" fill="none" stroke="#fff" stroke-linecap="round" stroke-linejoin="round" stroke-width="1"/>
    <path id="Path_36125" data-name="Path 36125" d="M198.972,34.879H60.6a15.14,15.14,0,0,0-15.14,15.14v298.86a15.14,15.14,0,0,0,15.14,15.14H198.972a15.14,15.14,0,0,0,15.14-15.14V50.019A15.14,15.14,0,0,0,198.972,34.879Z" transform="translate(16.228 12.452)" fill="none" stroke="#263238" stroke-linecap="round" stroke-linejoin="round" stroke-width="1"/>
    <path id="Path_36126" data-name="Path 36126" d="M204.65,51.353H50.987V338.607H204.65Z" transform="translate(18.203 18.333)" fill="#fab915"/>
    <path id="Path_36127" data-name="Path 36127" d="M183.391,161.6l-24.357-22.011-23.649.406-23.649-.406L87.379,161.6l-57.6,37.934V311.455H240.99V199.531Z" transform="translate(10.632 49.834)" fill="#fff" stroke="#263238" stroke-linecap="round" stroke-linejoin="round" stroke-width="1.01"/>
    <path id="Path_36128" data-name="Path 36128" d="M108.912,237.75l-10.5,14.889s12.513-5.672,24.566-10.583,27.2-20.405,30.6-26.068,8.342-13.983,8.342-13.983l-15.14-11.668H163.06s-.385-17.725-5.3-32.126" transform="translate(35.134 56.483)" fill="none" stroke="#263238" stroke-linecap="round" stroke-linejoin="round" stroke-width="1.01"/>
    <path id="Path_36129" data-name="Path 36129" d="M114.54,244.256c-1.761-.74-3.545-1.48-5.328-2.2-12.085-4.911-27.2-20.405-30.6-26.068s-8.342-13.983-8.342-13.983l15.15-11.668h-16.2s.386-17.725,5.3-32.126" transform="translate(24.71 56.483)" fill="none" stroke="#263238" stroke-linecap="round" stroke-linejoin="round" stroke-width="1.01"/>
    <path id="Path_36130" data-name="Path 36130" d="M88.707,140.816S84,215.484,112.481,243.961c0,0,30.04-20.625,30.04-102.248Z" transform="translate(31.566 50.273)" fill="#fff"/>
    <path id="Path_36131" data-name="Path 36131" d="M107.225,78.2h24.223a26.182,26.182,0,0,1,26.182,26.182v54.335a35.152,35.152,0,0,1-35.138,35.16h-6.257a35.15,35.15,0,0,1-35.149-35.149V104.383A26.182,26.182,0,0,1,107.267,78.2Z" transform="translate(28.948 27.918)" fill="#fab915"/>
    <path id="Path_36132" data-name="Path 36132" d="M107.225,78.2h24.223a26.182,26.182,0,0,1,26.182,26.182v54.335a35.152,35.152,0,0,1-35.138,35.16h-6.257a35.15,35.15,0,0,1-35.149-35.149V104.383A26.182,26.182,0,0,1,107.267,78.2Z" transform="translate(28.948 27.918)" fill="#fff" opacity="0.5"/>
    <path id="Path_36133" data-name="Path 36133" d="M88.707,140.816S84,215.484,112.481,243.961c0,0,30.04-20.625,30.04-102.248Z" transform="translate(31.566 50.273)" fill="none" stroke="#263238" stroke-linecap="round" stroke-linejoin="round" stroke-width="1.01"/>
    <path id="Path_36134" data-name="Path 36134" d="M97.5,136.129s-2.607,32.585,13.127,45.013c0,0,16.6-9,16.6-44.617Z" transform="translate(34.751 48.599)" fill="none" stroke="#263238" stroke-linecap="round" stroke-linejoin="round" stroke-width="1.01"/>
    <path id="Path_36135" data-name="Path 36135" d="M93.587,179.529,111.969,169.3l20.636,14.265" transform="translate(33.411 60.442)" fill="none" stroke="#263238" stroke-linecap="round" stroke-linejoin="round" stroke-width="1.01"/>
    <path id="Path_36136" data-name="Path 36136" d="M115.911,185.807l3.587-10.313-8.53-6.193-11.209,6.193,5.829,9.385-9.2,27.621c3.316,8.259,7.633,15.641,13.242,21.262,0,0,7.987-5.485,15.724-21.992Z" transform="translate(34.413 60.442)" fill="#fab915" stroke="#263238" stroke-linecap="round" stroke-linejoin="round" stroke-width="1.01"/>
    <path id="Path_36137" data-name="Path 36137" d="M142.429,230.784a14.984,14.984,0,1,0-17.2-12.377A14.984,14.984,0,0,0,142.429,230.784Z" transform="translate(44.638 71.762)" fill="#fff" stroke="#263238" stroke-linecap="round" stroke-linejoin="round" stroke-width="1.01"/>
    <path id="Path_36138" data-name="Path 36138" d="M148.86,218.978a10.771,10.771,0,1,0-14.057,5.866A10.77,10.77,0,0,0,148.86,218.978Z" transform="translate(45.742 72.868)" fill="#fff" stroke="#263238" stroke-linecap="round" stroke-linejoin="round" stroke-width="1.01"/>
    <path id="Path_36139" data-name="Path 36139" d="M136.666,238.111a2.293,2.293,0,0,1-2.293-2.293V147.781a2.293,2.293,0,0,1,4.587,0v88.036a2.28,2.28,0,0,1-2.293,2.293Z" transform="translate(47.972 51.94)" fill="#263238"/>
    <path id="Path_36140" data-name="Path 36140" d="M89.454,247.786h-.219c-2.085-.354-22.095-19.811-23.982-25.025s-1.356-13.555-1.335-13.867a1.149,1.149,0,0,1,2.294.145c0,.073-.469,8.185,1.2,12.972,1.533,4.368,19.342,21.814,22.158,23.513,1.564-.49,7.3-5.63,9.384-10.9a1.152,1.152,0,0,1,.612-.631,1.148,1.148,0,0,1,.879-.015,1.149,1.149,0,0,1,.646,1.491C98.922,241.051,92.092,247.786,89.454,247.786Z" transform="translate(22.789 74.193)" fill="#fff" stroke="#263238" stroke-linecap="round" stroke-linejoin="round" stroke-width="1.01"/>
    <path id="Path_36141" data-name="Path 36141" d="M72.707,247.8c-2.648,0-9.468-6.735-11.678-12.376a1.149,1.149,0,0,1,2.138-.845c2.085,5.267,7.81,10.427,9.384,10.9,2.815-1.7,20.625-19.145,22.158-23.513,1.668-4.786,1.209-12.9,1.2-12.972a1.149,1.149,0,0,1,2.294-.145c0,.354.5,8.654-1.335,13.867s-21.8,24.712-23.982,25.025Z" transform="translate(21.759 74.176)" fill="#fff" stroke="#263238" stroke-linecap="round" stroke-linejoin="round" stroke-width="1.01"/>
    <path id="Path_36142" data-name="Path 36142" d="M76.971,191.237a2.306,2.306,0,0,1-2.294-2.295v-38.4a2.294,2.294,0,1,1,4.588,0v38.4a2.3,2.3,0,0,1-2.294,2.295Z" transform="translate(26.66 52.925)" fill="#263238"/>
    <path id="Path_36143" data-name="Path 36143" d="M96.143,224.564a2.3,2.3,0,0,1-2.294-2.293V194.639a13.159,13.159,0,1,0-26.318,0v27.61a2.294,2.294,0,1,1-4.588,0V194.617a17.726,17.726,0,0,1,35.452,0v27.631a2.3,2.3,0,0,1-2.252,2.315Z" transform="translate(22.471 63.152)" fill="#263238"/>
    <path id="Path_36144" data-name="Path 36144" d="M59.819,225.151l-.387.3a2.669,2.669,0,0,0-.471,3.745l1.7,2.182a2.67,2.67,0,0,0,3.745.471l.387-.3a2.669,2.669,0,0,0,.471-3.745l-1.7-2.182A2.67,2.67,0,0,0,59.819,225.151Z" transform="translate(20.849 80.18)" fill="#fff" stroke="#263238" stroke-linecap="round" stroke-linejoin="round" stroke-width="1.01"/>
    <path id="Path_36145" data-name="Path 36145" d="M89.194,231.539l.387.3a2.67,2.67,0,0,0,3.745-.471l1.7-2.182a2.669,2.669,0,0,0-.47-3.745l-.387-.3a2.67,2.67,0,0,0-3.746.471l-1.7,2.182A2.669,2.669,0,0,0,89.194,231.539Z" transform="translate(31.475 80.177)" fill="#fff" stroke="#263238" stroke-linecap="round" stroke-linejoin="round" stroke-width="1.01"/>
    <path id="Path_36146" data-name="Path 36146" d="M81.282,105.255h-.97a5.443,5.443,0,0,0-5.443,5.443v9.77a5.443,5.443,0,0,0,5.443,5.443h.97a5.443,5.443,0,0,0,5.443-5.443V110.7A5.443,5.443,0,0,0,81.282,105.255Z" transform="translate(26.729 37.577)" fill="#fff" stroke="#263238" stroke-linecap="round" stroke-linejoin="round" stroke-width="1.01"/>
    <path id="Path_36147" data-name="Path 36147" d="M140.324,105.255h-.97a5.443,5.443,0,0,0-5.443,5.443v9.77a5.443,5.443,0,0,0,5.443,5.443h.97a5.443,5.443,0,0,0,5.443-5.443V110.7A5.443,5.443,0,0,0,140.324,105.255Z" transform="translate(47.807 37.577)" fill="#fff" stroke="#263238" stroke-linecap="round" stroke-linejoin="round" stroke-width="1.01"/>
    <path id="Path_36148" data-name="Path 36148" d="M107.228,67.12H131.45A26.182,26.182,0,0,1,157.633,93.3v54.335a35.147,35.147,0,0,1-35.149,35.149h-6.256a35.15,35.15,0,0,1-35.15-35.149V93.3a26.182,26.182,0,0,1,26.15-26.182Z" transform="translate(28.945 23.963)" fill="#fff" stroke="#263238" stroke-linecap="round" stroke-linejoin="round" stroke-width="1.01"/>
    <path id="Path_36149" data-name="Path 36149" d="M106.333,100.814H94.259a1.97,1.97,0,0,0-1.971,1.97v.354a1.971,1.971,0,0,0,1.971,1.972h12.074a1.971,1.971,0,0,0,1.97-1.972v-.354A1.97,1.97,0,0,0,106.333,100.814Z" transform="translate(32.948 35.991)" fill="#263238" stroke="#263238" stroke-linecap="round" stroke-linejoin="round" stroke-width="1.01"/>
    <path id="Path_36150" data-name="Path 36150" d="M129.654,100.814H117.579a1.97,1.97,0,0,0-1.97,1.97v.354a1.971,1.971,0,0,0,1.97,1.972h12.075a1.971,1.971,0,0,0,1.97-1.972v-.354A1.97,1.97,0,0,0,129.654,100.814Z" transform="translate(41.273 35.991)" fill="#263238" stroke="#263238" stroke-linecap="round" stroke-linejoin="round" stroke-width="1.01"/>
    <path id="Path_36151" data-name="Path 36151" d="M102.822,111.647c0,2.482-1.137,4.484-2.545,4.484s-2.534-2-2.534-4.484,1.137-4.494,2.534-4.494S102.822,109.165,102.822,111.647Z" transform="translate(34.895 38.255)" fill="#263238" stroke="#263238" stroke-linecap="round" stroke-linejoin="round" stroke-width="1.01"/>
    <path id="Path_36152" data-name="Path 36152" d="M123.863,111.647c0,2.482-1.137,4.484-2.544,4.484s-2.544-2-2.544-4.484,1.137-4.494,2.544-4.494S123.863,109.165,123.863,111.647Z" transform="translate(42.403 38.255)" fill="#263238" stroke="#263238" stroke-linecap="round" stroke-linejoin="round" stroke-width="1.01"/>
    <path id="Path_36153" data-name="Path 36153" d="M133.044,67.12H105.652a24.6,24.6,0,0,0-24.6,24.6v57.8a33.272,33.272,0,0,0,33.273,33.272h10.093a33.265,33.265,0,0,0,33.272-33.272v-57.8a24.6,24.6,0,0,0-24.65-24.6Zm18.769,74.251s0,7.028-7.028,14.067c0,0-7.424-9.77-10.552-10.553-2.023-.5-9.551-.354-14.66-.187-5.1-.167-12.638-.312-14.6.187-3.128.783-10.552,10.553-10.552,10.553-7.028-7.039-7.028-14.067-7.028-14.067V109.329l3.66-4.817a10.854,10.854,0,0,0,.511-12.658,10.364,10.364,0,0,1,1.47-13.107l.073-.063a10.364,10.364,0,0,1,12.773-1.293l5.464,4.285a13.555,13.555,0,0,0,16.683,0l5.443-4.285a10.428,10.428,0,0,1,12.847,1.293l.062.063A10.479,10.479,0,0,1,147.756,92a10.824,10.824,0,0,0,.615,12.513l3.786,4.817Z" transform="translate(28.937 23.963)" fill="#263238" stroke="#263238" stroke-linecap="round" stroke-linejoin="round" stroke-width="1.01"/>
    <path id="Path_36154" data-name="Path 36154" d="M114.519,120.869s4.693-.626,4.693,2.086-2.743,4.682-8.206,2.732" transform="translate(39.63 43.129)" fill="#fff"/>
    <path id="Path_36155" data-name="Path 36155" d="M114.519,120.869s4.693-.626,4.693,2.086-2.743,4.682-8.206,2.732" transform="translate(39.63 43.129)" fill="none" stroke="#263238" stroke-linecap="round" stroke-linejoin="round" stroke-width="1.01"/>
    <path id="Path_36156" data-name="Path 36156" d="M116.811,104.556v22.669a4.691,4.691,0,0,1-4.682,4.691h-4.17c-2.983.209-4.025-.521-4.379-1.783a3.12,3.12,0,0,1,.4-2.491c0-1.168,4.983-1.168,4.983-1.168" transform="translate(36.942 37.327)" fill="#fff"/>
    <path id="Path_36157" data-name="Path 36157" d="M116.811,104.556v22.669a4.691,4.691,0,0,1-4.682,4.691h-4.17c-2.983.209-4.025-.521-4.379-1.783a3.12,3.12,0,0,1,.4-2.491h0c0-1.168,4.983-1.168,4.983-1.168" transform="translate(36.942 37.327)" fill="none" stroke="#263238" stroke-linecap="round" stroke-linejoin="round" stroke-width="1.01"/>
    <path id="Path_36158" data-name="Path 36158" d="M113.152,135.954a24.873,24.873,0,0,1-12.418-3.242,1.72,1.72,0,0,1,1.835-2.909,22.076,22.076,0,0,0,21.355-.1,1.72,1.72,0,1,1,1.616,3.034A26.062,26.062,0,0,1,113.152,135.954Z" transform="translate(35.69 46.219)" fill="#fff" stroke="#263238" stroke-linecap="round" stroke-linejoin="round" stroke-width="1.01"/>
    <path id="Path_36159" data-name="Path 36159" d="M118.936,115.459h7.569" transform="translate(42.461 41.22)" fill="none" stroke="#263238" stroke-linecap="round" stroke-linejoin="round" stroke-width="1.01"/>
    <path id="Path_36160" data-name="Path 36160" d="M96.775,115.459h7.57" transform="translate(34.55 41.22)" fill="none" stroke="#263238" stroke-linecap="round" stroke-linejoin="round" stroke-width="1.01"/>
    <path id="Path_36161" data-name="Path 36161" d="M78.237,265.263A13.535,13.535,0,1,0,64.7,251.728,13.535,13.535,0,0,0,78.237,265.263Z" transform="translate(23.1 85.037)" fill="none" stroke="#263238" stroke-linecap="round" stroke-linejoin="round" stroke-width="0.724"/>
    <path id="Path_36162" data-name="Path 36162" d="M75.38,254.348a2.733,2.733,0,0,1-2.732-2.732v-8.655a2.732,2.732,0,1,1,5.464,0v8.655a2.733,2.733,0,0,1-2.732,2.732Z" transform="translate(25.936 85.764)" fill="#263238"/>
    <path id="Path_36163" data-name="Path 36163" d="M75.947,254.558a4.838,4.838,0,0,1-4.828-4.828v-4.067a.5.5,0,0,1,.5-.5.472.472,0,0,1,.193.035.493.493,0,0,1,.164.107.5.5,0,0,1,.108.164.49.49,0,0,1,.035.193v4.067a3.837,3.837,0,0,0,7.664,0v-4.067a.49.49,0,0,1,.035-.193.5.5,0,0,1,.108-.164.493.493,0,0,1,.164-.107.471.471,0,0,1,.193-.035.5.5,0,0,1,.5.5v4.067a4.839,4.839,0,0,1-4.838,4.828Z" transform="translate(25.39 87.525)" fill="#263238"/>
    <path id="Path_36164" data-name="Path 36164" d="M74.806,257.552a.459.459,0,0,1-.19-.038.49.49,0,0,1-.3-.461v-5.214a.521.521,0,1,1,1.043,0v5.214a.489.489,0,0,1-.161.377.5.5,0,0,1-.182.1A.476.476,0,0,1,74.806,257.552Z" transform="translate(26.531 89.723)" fill="#263238"/>
    <path id="Path_36165" data-name="Path 36165" d="M79.02,256.375H72.357a.51.51,0,0,1-.5-.5.5.5,0,0,1,.5-.5H79.02a.5.5,0,0,1,.5.5.51.51,0,0,1-.5.5Z" transform="translate(25.653 91.171)" fill="#263238"/>
    <path id="Path_36166" data-name="Path 36166" d="M144.279,265.263a13.535,13.535,0,1,0-13.533-13.535A13.535,13.535,0,0,0,144.279,265.263Z" transform="translate(46.677 85.037)" fill="none" stroke="#263238" stroke-linecap="round" stroke-linejoin="round" stroke-width="0.724"/>
    <path id="Path_36167" data-name="Path 36167" d="M151.112,245.562l-3.952,2.284v-1.877a1.617,1.617,0,0,0-1.616-1.605h-8.926A1.605,1.605,0,0,0,135,245.969v7.195a1.607,1.607,0,0,0,.471,1.145,1.606,1.606,0,0,0,1.145.471h8.926a1.617,1.617,0,0,0,1.616-1.616v-1.825l3.952,2.284Z" transform="translate(48.197 87.24)" fill="#263238"/>
    <path id="Path_36168" data-name="Path 36168" d="M111.263,265.263a13.535,13.535,0,1,0-13.534-13.535A13.536,13.536,0,0,0,111.263,265.263Z" transform="translate(34.89 85.037)" fill="#263238" stroke="#263238" stroke-linecap="round" stroke-linejoin="round" stroke-width="0.724"/>
    <path id="Path_36169" data-name="Path 36169" d="M117.035,246.062h-13.7a2.584,2.584,0,0,0-2.544,3.055l.4,2.148a.644.644,0,0,0,.626.521h4.17a.646.646,0,0,0,.647-.646v-2.326h7.195v2.326a.644.644,0,0,0,.646.646h4.17a.646.646,0,0,0,.636-.521l.4-2.148a2.585,2.585,0,0,0-1.51-2.842A2.571,2.571,0,0,0,117.035,246.062Z" transform="translate(35.968 87.846)" fill="#fab915"/>
    <path id="Path_36170" data-name="Path 36170" d="M163.12,53.551H150.378v6.986H163.12Z" transform="translate(53.686 19.118)" fill="none" stroke="#263238" stroke-linecap="round" stroke-linejoin="round" stroke-width="0.821"/>
    <path id="Path_36171" data-name="Path 36171" d="M160.315,53.551h-9.937v6.986h9.937Z" transform="translate(53.686 19.118)" fill="#263238" stroke="#263238" stroke-linecap="round" stroke-linejoin="round" stroke-width="0.725"/>
    <path id="Path_36172" data-name="Path 36172" d="M161.538,54.987h-1.793v3.076h1.793Z" transform="translate(57.03 19.631)" fill="#263238" stroke="#263238" stroke-linecap="round" stroke-linejoin="round" stroke-width="0.725"/>
    <path id="Path_36173" data-name="Path 36173" d="M55.267,55.141H52.931v4h2.336Z" transform="translate(18.897 19.686)" fill="#263238" stroke="#263238" stroke-linecap="round" stroke-linejoin="round" stroke-width="0.883"/>
    <path id="Path_36174" data-name="Path 36174" d="M57.972,54.112H55.636v5.412h2.336Z" transform="translate(19.863 19.318)" fill="#263238" stroke="#263238" stroke-linecap="round" stroke-linejoin="round" stroke-width="0.883"/>
    <path id="Path_36175" data-name="Path 36175" d="M60.676,52.882H58.341v7.069h2.336Z" transform="translate(20.828 18.879)" fill="#263238" stroke="#263238" stroke-linecap="round" stroke-linejoin="round" stroke-width="0.883"/>
    <path id="Path_36176" data-name="Path 36176" d="M204.65,51.353H50.987V338.607H204.65Z" transform="translate(18.203 18.333)" fill="none" stroke="#263238" stroke-linecap="round" stroke-linejoin="round" stroke-width="1"/>
    <path id="Path_36177" data-name="Path 36177" d="M24.893,277.427H414.979" transform="translate(8.887 99.044)" fill="none" stroke="#263238" stroke-linecap="round" stroke-linejoin="round" stroke-width="1.01"/>
    <path id="Path_36178" data-name="Path 36178" d="M9.141,277.427H19.453" transform="translate(3.263 99.044)" fill="none" stroke="#263238" stroke-linecap="round" stroke-linejoin="round" stroke-width="1.01"/>
  </g>
</svg>
