<svg xmlns="http://www.w3.org/2000/svg" width="21.619" height="24.295" viewBox="0 0 21.619 24.295">
  <g id="Component_615_2" data-name="Component 615 – 2" transform="translate(0.101 0.1)">
    <path id="Path_32666" data-name="Path 32666" d="M109.917,152.1H125.5a2.792,2.792,0,0,0,2.028-.824,2.954,2.954,0,0,0,.889-2.094v-.093a4.043,4.043,0,0,0-.593-2.118l-7.2-9.93v-7.013h.958a.946.946,0,0,0,.682-.329,1,1,0,0,0,.32-.706.931.931,0,0,0-.32-.682.977.977,0,0,0-.682-.306h-7.747a.977.977,0,0,0-.684.306.931.931,0,0,0-.32.682,1,1,0,0,0,.32.706.946.946,0,0,0,.684.329h.957v6.918l-7.109,9.93a3.884,3.884,0,0,0-.593,2.023l-.091.189a3.089,3.089,0,0,0,.911,2.142A2.75,2.75,0,0,0,109.917,152.1Zm4.876-11.766.5-.564a9.236,9.236,0,0,0,1.458-3.625v-6.118h1.915v6.025a8.263,8.263,0,0,0,1.458,3.576l.5.611,1.96,2.731h-9.753Zm-5.56,7.766,2.006-2.822,12.8-.191,2.142,3.013a3.109,3.109,0,0,1,.274.894,1.1,1.1,0,0,1-.3.753.88.88,0,0,1-.662.329H109.917a.88.88,0,0,1-.662-.329,1.1,1.1,0,0,1-.3-.753A1.243,1.243,0,0,1,109.233,148.1Z" transform="translate(-107 -128)" fill="#fff" stroke="#fff" stroke-width="0.2"/>
  </g>
</svg>
