<svg id="Component_620_3" data-name="Component 620 – 3" xmlns="http://www.w3.org/2000/svg" width="16.731" height="18.59" viewBox="0 0 16.731 18.59">
  <path id="Path" d="M12.261,0H4.471C1.645,0,0,1.655,0,4.489v9.6c0,2.881,1.645,4.5,4.471,4.5h7.79c2.871,0,4.47-1.617,4.47-4.5v-9.6c0-2.835-1.6-4.489-4.47-4.489" transform="translate(0 0)" fill="#fab915" opacity="0.4"/>
  <path id="Combined_Shape" data-name="Combined Shape" d="M.111,9.573a.741.741,0,0,1,0-.78.73.73,0,0,1,.7-.344H8.1a.734.734,0,0,1,0,1.459H.809a.68.68,0,0,1-.091.006A.728.728,0,0,1,.111,9.573Zm.7-3.913a.726.726,0,0,1,0-1.451H8.1a.726.726,0,0,1,0,1.451Zm0-4.2a.725.725,0,1,1,0-1.45V0H3.587a.729.729,0,0,1,0,1.459Z" transform="translate(3.913 4.322)" fill="#fab915"/>
</svg>
