<svg id="Component_637_1" data-name="Component 637 – 1" xmlns="http://www.w3.org/2000/svg" width="438.853" height="376.215" viewBox="0 0 438.853 376.215">
  <path id="Path_35773" data-name="Path 35773" d="M93.85,52.184S44.713,99.8,30.156,153.827s6.5,110.734,56.018,142.121,115.59,4.133,181.3,13.1S394.118,292.457,402.249,226.6s-39.405-74.387-68.064-138.443S212.158-53.385,93.85,52.184Z" transform="translate(9.735 -0.171)" fill="#fab915"/>
  <path id="Path_35774" data-name="Path 35774" d="M93.85,52.184S44.713,99.8,30.156,153.827s6.5,110.734,56.018,142.121,115.59,4.133,181.3,13.1S394.118,292.457,402.249,226.6s-39.405-74.387-68.064-138.443S212.158-53.385,93.85,52.184Z" transform="translate(9.735 -0.171)" fill="#fff" opacity="0.7"/>
  <path id="Path_35775" data-name="Path 35775" d="M304.266,132.644s0-4.34-6.075-10.425-9.99-9.546-9.99-9.546-3.038,9.98,2.6,16.065a107.247,107.247,0,0,0,13.43,11.717Z" transform="translate(116.593 45.757)" fill="#fab915"/>
  <path id="Path_35776" data-name="Path 35776" d="M298.005,151.895s0-4.34-6.075-10.415-9.98-9.556-9.98-9.556-3.1,9.991,2.6,16.065a106.483,106.483,0,0,0,13.43,11.717Z" transform="translate(114.031 53.616)" fill="#fab915"/>
  <path id="Path_35777" data-name="Path 35777" d="M299.341,137.372s.453-4.319,7.148-9.722,10.932-8.441,10.932-8.441,1.973,10.249-4.288,15.693a107.116,107.116,0,0,1-14.619,10.228Z" transform="translate(121.137 48.426)" fill="#fab915"/>
  <path id="Path_35778" data-name="Path 35778" d="M292.013,159.525s.908-4.247,8.12-8.917,11.769-7.233,11.769-7.233.877,10.4-5.91,15.168a107.643,107.643,0,0,1-15.622,8.637Z" transform="translate(117.812 58.291)" fill="#fab915"/>
  <path id="Path_35779" data-name="Path 35779" d="M292.96,185.423s0-4.35,6.075-10.425,9.98-9.546,9.98-9.546,3.038,9.98-2.6,16.055a106.357,106.357,0,0,1-13.43,11.726Z" transform="translate(118.869 67.303)" fill="#fab915"/>
  <path id="Path_35780" data-name="Path 35780" d="M297.22,192.069s.608-4.3-4.536-11.179-8.524-10.869-8.524-10.869-4.432,9.454.29,16.272A106.58,106.58,0,0,0,296.1,199.808Z" transform="translate(114.507 69.169)" fill="#fab915"/>
  <path id="Path_35781" data-name="Path 35781" d="M288.631,209.431s0-4.339,6.075-10.414,9.98-9.546,9.98-9.546,3.049,9.98-2.6,16.055a106.361,106.361,0,0,1-13.432,11.726Z" transform="translate(117.102 77.11)" fill="#fab915"/>
  <path id="Path_35782" data-name="Path 35782" d="M291.529,226.655s-1.105-4.2,3.233-11.624,7.231-11.767,7.231-11.767,5.465,8.885,1.55,16.2a107.46,107.46,0,0,1-10.053,14.743Z" transform="translate(118.234 82.741)" fill="#fab915"/>
  <path id="Path_35783" data-name="Path 35783" d="M304.387,126.061a122.189,122.189,0,0,1-1.663,13.482c-2.4,12.4-8.41,20.417-10.807,31.636s4.494,25.654,2.645,40.056-7.45,22.409-5.848,32.028,10.2,36.575,10.2,36.575" transform="translate(117.02 51.223)" fill="none" stroke="#263238" stroke-linecap="round" stroke-linejoin="round" stroke-width="0.75"/>
  <path id="Path_35784" data-name="Path 35784" d="M299.057,135.611l6.55-5.03" transform="translate(121.358 53.069)" fill="none" stroke="#263238" stroke-linecap="round" stroke-linejoin="round" stroke-width="0.75"/>
  <path id="Path_35785" data-name="Path 35785" d="M300.074,131.459l-2.749-4.877" transform="translate(120.651 51.436)" fill="none" stroke="#263238" stroke-linecap="round" stroke-linejoin="round" stroke-width="0.75"/>
  <path id="Path_35786" data-name="Path 35786" d="M291.162,160.129s5.487-4.132,11.118-8.265" transform="translate(118.135 61.757)" fill="none" stroke="#263238" stroke-linecap="round" stroke-linejoin="round" stroke-width="0.75"/>
  <path id="Path_35787" data-name="Path 35787" d="M295.641,155.205a85.117,85.117,0,0,0-9.454-14.133" transform="translate(116.104 57.351)" fill="none" stroke="#263238" stroke-linecap="round" stroke-linejoin="round" stroke-width="0.75"/>
  <path id="Path_35788" data-name="Path 35788" d="M293.107,188.56a67.664,67.664,0,0,1,11.736-15.684" transform="translate(118.929 70.334)" fill="none" stroke="#263238" stroke-linecap="round" stroke-linejoin="round" stroke-width="0.75"/>
  <path id="Path_35789" data-name="Path 35789" d="M295.134,193.154a76.225,76.225,0,0,0-5.94-11.272c-3.193-4.722-3.659-5.332-3.659-5.332" transform="translate(115.838 71.835)" fill="none" stroke="#263238" stroke-linecap="round" stroke-linejoin="round" stroke-width="0.75"/>
  <path id="Path_35790" data-name="Path 35790" d="M288.631,214.605a72.274,72.274,0,0,1,4.939-9.991,64.2,64.2,0,0,1,6.4-8.379" transform="translate(117.102 79.87)" fill="none" stroke="#263238" stroke-linecap="round" stroke-linejoin="round" stroke-width="0.75"/>
  <path id="Path_35791" data-name="Path 35791" d="M292.941,231.643a18.6,18.6,0,0,1,1.642-9.608c2.284-4.422,4.877-10.208,5.941-12.491" transform="translate(118.827 85.304)" fill="none" stroke="#263238" stroke-linecap="round" stroke-linejoin="round" stroke-width="0.75"/>
  <path id="Path_35792" data-name="Path 35792" d="M271.119,172.182s-.476-2.718,2.676-7.233,5.227-7.076,5.227-7.076,2.985,5.94.114,10.331a68.354,68.354,0,0,1-7.171,8.813Z" transform="translate(109.943 64.21)" fill="#fab915"/>
  <path id="Path_35793" data-name="Path 35793" d="M277.134,183.583s-.465-2.718,2.687-7.233,5.217-7.076,5.217-7.076,3,5.93.114,10.331a67.939,67.939,0,0,1-7.171,8.8Z" transform="translate(112.398 68.865)" fill="#fab915"/>
  <path id="Path_35794" data-name="Path 35794" d="M275.714,174.038s-.755-2.655-5.539-5.32-7.779-4.133-7.779-4.133-.114,6.644,4.4,9.372a67.728,67.728,0,0,0,10.28,4.834Z" transform="translate(106.392 66.95)" fill="#fab915"/>
  <path id="Path_35795" data-name="Path 35795" d="M283.188,187.041s-1.032-2.563-6.064-4.7-8.162-3.266-8.162-3.266.579,6.613,5.351,8.865a68.2,68.2,0,0,0,10.735,3.719Z" transform="translate(109.072 72.866)" fill="#fab915"/>
  <path id="Path_35796" data-name="Path 35796" d="M284.43,203.556s-.465-2.718-4.939-5.868-7.3-4.908-7.3-4.908-.817,6.592,3.378,9.794a69.01,69.01,0,0,0,9.713,5.889Z" transform="translate(110.362 78.46)" fill="#fab915"/>
  <path id="Path_35797" data-name="Path 35797" d="M281.607,208.636s-.858-2.625,1.632-7.5,4.133-7.738,4.133-7.738,3.8,5.444,1.58,10.228a67.88,67.88,0,0,1-5.837,9.744Z" transform="translate(114.176 78.711)" fill="#fab915"/>
  <path id="Path_35798" data-name="Path 35798" d="M287.146,223.122s.32-2.749,4.6-6.2,7.006-5.31,7.006-5.31,1.2,6.53-2.811,9.959a67.351,67.351,0,0,1-9.361,6.437Z" transform="translate(116.264 86.149)" fill="#fab915"/>
  <path id="Path_35799" data-name="Path 35799" d="M289.749,218.126s-.475-2.716-4.939-5.868-7.3-4.908-7.3-4.908-.815,6.592,3.378,9.784a67.839,67.839,0,0,0,9.713,5.9Z" transform="translate(112.534 84.409)" fill="#fab915"/>
  <path id="Path_35800" data-name="Path 35800" d="M289.037,229.44s.238-2.759-3.3-6.944-5.816-6.591-5.816-6.591-2.459,6.2.8,10.331a67.442,67.442,0,0,0,7.9,8.152Z" transform="translate(113.184 87.901)" fill="#fab915"/>
  <path id="Path_35801" data-name="Path 35801" d="M270.781,167.586a80.806,80.806,0,0,0,2.5,8.265c2.862,7.521,7.49,11.893,10.218,18.67s0,16.53,2.686,25.4,7.109,13.235,7.15,19.434-2.407,23.433-2.407,23.433" transform="translate(109.815 68.175)" fill="none" stroke="#263238" stroke-linecap="round" stroke-linejoin="round" stroke-width="0.75"/>
  <path id="Path_35802" data-name="Path 35802" d="M273.453,173.292l-4.66-2.448" transform="translate(109.003 69.505)" fill="none" stroke="#263238" stroke-linecap="round" stroke-linejoin="round" stroke-width="0.75"/>
  <path id="Path_35803" data-name="Path 35803" d="M271.515,170.992l1.2-3.347" transform="translate(110.115 68.2)" fill="none" stroke="#263238" stroke-linecap="round" stroke-linejoin="round" stroke-width="0.75"/>
  <path id="Path_35804" data-name="Path 35804" d="M281.9,187.651s-3.9-1.983-7.873-3.946" transform="translate(111.139 74.755)" fill="none" stroke="#263238" stroke-linecap="round" stroke-linejoin="round" stroke-width="0.75"/>
  <path id="Path_35805" data-name="Path 35805" d="M277.707,185.07a63.144,63.144,0,0,1,4.526-9.546" transform="translate(112.643 71.415)" fill="none" stroke="#263238" stroke-linecap="round" stroke-linejoin="round" stroke-width="0.75"/>
  <path id="Path_35806" data-name="Path 35806" d="M283.849,205.681a43.363,43.363,0,0,0-9.062-8.565" transform="translate(111.45 80.231)" fill="none" stroke="#263238" stroke-linecap="round" stroke-linejoin="round" stroke-width="0.75"/>
  <path id="Path_35807" data-name="Path 35807" d="M282.19,209.165a48.378,48.378,0,0,1,2.5-7.717c1.489-3.307,1.715-3.73,1.715-3.73" transform="translate(114.473 80.476)" fill="none" stroke="#263238" stroke-linecap="round" stroke-linejoin="round" stroke-width="0.75"/>
  <path id="Path_35808" data-name="Path 35808" d="M286.643,224.217a40.974,40.974,0,0,1,5.01-5.167,26.833,26.833,0,0,0,3.245-2.831" transform="translate(116.291 88.03)" fill="none" stroke="#263238" stroke-linecap="round" stroke-linejoin="round" stroke-width="0.75"/>
  <path id="Path_35809" data-name="Path 35809" d="M289.435,221.533a46.249,46.249,0,0,0-4.184-5.723,41.145,41.145,0,0,0-4.918-4.557" transform="translate(113.715 86.001)" fill="none" stroke="#263238" stroke-linecap="round" stroke-linejoin="round" stroke-width="0.75"/>
  <path id="Path_35810" data-name="Path 35810" d="M287.917,232.822a11.874,11.874,0,0,0-2.067-5.848c-1.911-2.521-4.132-5.868-5.082-7.231" transform="translate(113.892 89.467)" fill="none" stroke="#263238" stroke-linecap="round" stroke-linejoin="round" stroke-width="0.75"/>
  <path id="Path_35811" data-name="Path 35811" d="M279.637,233.608h29.641V248.93a2.572,2.572,0,0,1-2.571,2.573h-24.5a2.572,2.572,0,0,1-2.573-2.573Z" transform="translate(113.43 95.127)" fill="#263238" stroke="#263238" stroke-linecap="round" stroke-linejoin="round" stroke-width="1"/>
  <path id="Path_35812" data-name="Path 35812" d="M36.122,146.326s0-3.7-5.166-8.865-8.513-8.12-8.513-8.12S19.859,137.833,24.653,143A91.4,91.4,0,0,0,36.1,152.968Z" transform="translate(8.15 52.562)" fill="#fab915"/>
  <path id="Path_35813" data-name="Path 35813" d="M30.81,162.7s0-3.688-5.166-8.855-8.513-8.161-8.513-8.161-2.583,8.482,2.211,13.657a90.814,90.814,0,0,0,11.468,10Z" transform="translate(5.981 59.235)" fill="#fab915"/>
  <path id="Path_35814" data-name="Path 35814" d="M31.922,150.338s.382-3.668,6.075-8.266,9.3-7.169,9.3-7.169,1.674,8.709-3.647,13.349a91.368,91.368,0,0,1-12.4,8.7Z" transform="translate(12.029 54.832)" fill="#fab915"/>
  <path id="Path_35815" data-name="Path 35815" d="M25.7,169.2s.775-3.616,6.9-7.583,10.011-6.2,10.011-6.2.744,8.834-5.031,12.883A91.018,91.018,0,0,1,24.3,175.654Z" transform="translate(9.193 63.206)" fill="#fab915"/>
  <path id="Path_35816" data-name="Path 35816" d="M26.513,191.2s0-3.688,5.166-8.865,8.462-8.121,8.462-8.121,2.583,8.493-2.221,13.659a89.9,89.9,0,0,1-11.437,9.97Z" transform="translate(10.083 70.882)" fill="#fab915"/>
  <path id="Path_35817" data-name="Path 35817" d="M30.115,196.859s.527-3.647-3.854-9.506-7.232-9.246-7.232-9.246-3.761,8.038.248,13.844A90.815,90.815,0,0,0,29.2,203.44Z" transform="translate(6.387 72.47)" fill="#fab915"/>
  <path id="Path_35818" data-name="Path 35818" d="M22.823,211.6s0-3.688,5.166-8.863,8.482-8.121,8.482-8.121,2.583,8.493-2.211,13.659a91.534,91.534,0,0,1-11.447,9.97Z" transform="translate(8.585 79.209)" fill="#fab915"/>
  <path id="Path_35819" data-name="Path 35819" d="M25.3,226.284s-.94-3.564,2.758-9.876,6.2-10.011,6.2-10.011,4.608,7.49,1.24,13.751a91.331,91.331,0,0,1-8.544,12.532Z" transform="translate(9.558 84.019)" fill="#fab915"/>
  <path id="Path_35820" data-name="Path 35820" d="M36.218,140.727A103.259,103.259,0,0,1,34.8,152.2c-2.066,10.548-7.149,17.357-9.185,26.862s3.823,21.821,2.252,34.093-6.344,19.052-4.98,27.224,8.679,31.109,8.679,31.109" transform="translate(8.518 57.21)" fill="none" stroke="#263238" stroke-linecap="round" stroke-linejoin="round" stroke-width="0.75"/>
  <path id="Path_35821" data-name="Path 35821" d="M31.69,148.849l5.569-4.278" transform="translate(12.209 58.78)" fill="none" stroke="#263238" stroke-linecap="round" stroke-linejoin="round" stroke-width="0.75"/>
  <path id="Path_35822" data-name="Path 35822" d="M32.551,145.31l-2.335-4.143" transform="translate(11.607 57.39)" fill="none" stroke="#263238" stroke-linecap="round" stroke-linejoin="round" stroke-width="0.75"/>
  <path id="Path_35823" data-name="Path 35823" d="M24.977,169.724s4.66-3.5,9.453-6.995" transform="translate(9.469 66.192)" fill="none" stroke="#263238" stroke-linecap="round" stroke-linejoin="round" stroke-width="0.75"/>
  <path id="Path_35824" data-name="Path 35824" d="M28.77,165.508a72.466,72.466,0,0,0-8-12.015" transform="translate(7.752 62.422)" fill="none" stroke="#263238" stroke-linecap="round" stroke-linejoin="round" stroke-width="0.75"/>
  <path id="Path_35825" data-name="Path 35825" d="M26.643,193.874a57.673,57.673,0,0,1,9.98-13.339" transform="translate(10.148 73.461)" fill="none" stroke="#263238" stroke-linecap="round" stroke-linejoin="round" stroke-width="0.75"/>
  <path id="Path_35826" data-name="Path 35826" d="M28.343,197.784A65.144,65.144,0,0,0,23.3,188.2c-2.727-4.019-3.1-4.535-3.1-4.535" transform="translate(7.519 74.738)" fill="none" stroke="#263238" stroke-linecap="round" stroke-linejoin="round" stroke-width="0.75"/>
  <path id="Path_35827" data-name="Path 35827" d="M22.82,216.013a62.925,62.925,0,0,1,4.195-8.493A54.778,54.778,0,0,1,32.46,200.4" transform="translate(8.588 81.573)" fill="none" stroke="#263238" stroke-linecap="round" stroke-linejoin="round" stroke-width="0.75"/>
  <path id="Path_35828" data-name="Path 35828" d="M26.488,230.509a15.8,15.8,0,0,1,1.395-8.172c1.942-3.761,4.133-8.679,5.052-10.621" transform="translate(10.056 86.191)" fill="none" stroke="#263238" stroke-linecap="round" stroke-linejoin="round" stroke-width="0.75"/>
  <path id="Path_35829" data-name="Path 35829" d="M7.926,179.935s-.393-2.314,2.283-6.116,4.443-6.013,4.443-6.013,2.542,5.043.093,8.8a57.72,57.72,0,0,1-6.1,7.49Z" transform="translate(2.5 68.265)" fill="#fab915"/>
  <path id="Path_35830" data-name="Path 35830" d="M13.047,189.63s-.4-2.314,2.283-6.116,4.443-6.024,4.443-6.024,2.542,5.053.093,8.814a57.828,57.828,0,0,1-6.1,7.49Z" transform="translate(4.589 72.218)" fill="#fab915"/>
  <path id="Path_35831" data-name="Path 35831" d="M11.83,181.514s-.641-2.253-4.7-4.516S.517,173.507.517,173.507s-.1,5.64,3.73,7.976a58.071,58.071,0,0,0,8.741,4.132Z" transform="translate(-0.517 70.592)" fill="#fab915"/>
  <path id="Path_35832" data-name="Path 35832" d="M18.189,192.591s-.878-2.18-5.166-4.009S6.1,185.8,6.1,185.8s.5,5.63,4.556,7.543a58.18,58.18,0,0,0,9.123,3.171Z" transform="translate(1.763 75.612)" fill="#fab915"/>
  <path id="Path_35833" data-name="Path 35833" d="M19.252,206.613s-.4-2.314-4.2-4.989-6.2-4.133-6.2-4.133-.744,5.568,2.862,8.286a58.439,58.439,0,0,0,8.265,5.01Z" transform="translate(2.858 80.383)" fill="#fab915"/>
  <path id="Path_35834" data-name="Path 35834" d="M16.846,210.945s-.723-2.232,1.384-6.375,3.544-6.581,3.544-6.581,3.234,4.629,1.343,8.7a57.408,57.408,0,0,1-4.959,8.265Z" transform="translate(6.101 80.586)" fill="#fab915"/>
  <path id="Path_35835" data-name="Path 35835" d="M21.56,223.277s.269-2.335,3.916-5.227,5.951-4.515,5.951-4.515,1.033,5.548-2.387,8.472a57.988,57.988,0,0,1-7.966,5.5Z" transform="translate(7.875 86.933)" fill="#fab915"/>
  <path id="Path_35836" data-name="Path 35836" d="M23.806,219s-.4-2.315-4.2-4.991-6.2-4.133-6.2-4.133-.7,5.61,2.872,8.328a58.059,58.059,0,0,0,8.265,5.011Z" transform="translate(4.72 85.442)" fill="#fab915"/>
  <path id="Path_35837" data-name="Path 35837" d="M23.163,228.63s.2-2.335-2.8-5.9-4.949-5.6-4.949-5.6-2.066,5.239.672,8.782a57.923,57.923,0,0,0,6.726,6.933Z" transform="translate(5.26 88.401)" fill="#fab915"/>
  <path id="Path_35838" data-name="Path 35838" d="M7.641,176.038a69.223,69.223,0,0,0,2.128,7.036c2.428,6.395,6.375,10.1,8.689,15.869s0,14.092,2.283,21.6,6.044,11.262,6.075,16.53-2.066,19.929-2.066,19.929" transform="translate(2.392 71.625)" fill="none" stroke="#263238" stroke-linecap="round" stroke-linejoin="round" stroke-width="0.75"/>
  <path id="Path_35839" data-name="Path 35839" d="M9.911,180.888l-3.957-2.077" transform="translate(1.702 72.757)" fill="none" stroke="#263238" stroke-linecap="round" stroke-linejoin="round" stroke-width="0.75"/>
  <path id="Path_35840" data-name="Path 35840" d="M8.272,178.941l1.013-2.852" transform="translate(2.649 71.646)" fill="none" stroke="#263238" stroke-linecap="round" stroke-linejoin="round" stroke-width="0.75"/>
  <path id="Path_35841" data-name="Path 35841" d="M17.094,193.1s-3.306-1.684-6.695-3.357" transform="translate(3.518 77.22)" fill="none" stroke="#263238" stroke-linecap="round" stroke-linejoin="round" stroke-width="0.75"/>
  <path id="Path_35842" data-name="Path 35842" d="M13.532,190.908a54.479,54.479,0,0,1,3.854-8.121" transform="translate(4.796 74.381)" fill="none" stroke="#263238" stroke-linecap="round" stroke-linejoin="round" stroke-width="0.75"/>
  <path id="Path_35843" data-name="Path 35843" d="M18.775,208.419a36.776,36.776,0,0,0-7.707-7.231" transform="translate(3.79 81.893)" fill="none" stroke="#263238" stroke-linecap="round" stroke-linejoin="round" stroke-width="0.75"/>
  <path id="Path_35844" data-name="Path 35844" d="M17.34,211.386a41.725,41.725,0,0,1,2.128-6.561c1.271-2.809,1.457-3.183,1.457-3.183" transform="translate(6.351 82.078)" fill="none" stroke="#263238" stroke-linecap="round" stroke-linejoin="round" stroke-width="0.75"/>
  <path id="Path_35845" data-name="Path 35845" d="M21.133,224.2a34.421,34.421,0,0,1,4.257-4.412,22.8,22.8,0,0,0,2.758-2.408" transform="translate(7.899 88.502)" fill="none" stroke="#263238" stroke-linecap="round" stroke-linejoin="round" stroke-width="0.75"/>
  <path id="Path_35846" data-name="Path 35846" d="M23.486,221.919a39.016,39.016,0,0,0-3.554-4.865,34.527,34.527,0,0,0-4.133-3.885" transform="translate(5.722 86.784)" fill="none" stroke="#263238" stroke-linecap="round" stroke-linejoin="round" stroke-width="0.75"/>
  <path id="Path_35847" data-name="Path 35847" d="M22.215,231.5a10.152,10.152,0,0,0-1.767-4.98c-1.622-2.139-3.544-4.991-4.319-6.106" transform="translate(5.856 89.743)" fill="none" stroke="#263238" stroke-linecap="round" stroke-linejoin="round" stroke-width="0.75"/>
  <path id="Path_35848" data-name="Path 35848" d="M14.053,233.608H43.695V248.93a2.574,2.574,0,0,1-2.614,2.573H16.626a2.572,2.572,0,0,1-2.573-2.573Z" transform="translate(5.009 95.127)" fill="#263238" stroke="#263238" stroke-linecap="round" stroke-linejoin="round" stroke-width="1"/>
  <path id="Path_35849" data-name="Path 35849" d="M218.387,97.265a35.228,35.228,0,0,0-7.15,15.5c-1.9,9.639-6.582,27.751-5.993,34.033s2.067,9.783,7.74,10.807,8.906-3.947,10.083-8.183a74.141,74.141,0,0,0,1.746-8.472l1.167-23.019s-2.066-13.833-3.047-16.747S218.387,97.265,218.387,97.265Z" transform="translate(83.04 39.467)" fill="#fab915" stroke="#263238" stroke-linecap="round" stroke-linejoin="round" stroke-width="1"/>
  <path id="Path_35850" data-name="Path 35850" d="M271.157,94.011s2.066-.455,4.029,6.716,4.329,17.461,8.2,30.148,4.629,16.872,4.329,19.7-2.531,5.971-10.331,5.971-11.366-2.985-13.432-9.7-1.766-27.461-1.911-30.148S268.761,92.668,271.157,94.011Z" transform="translate(106.248 38.114)" fill="#fab915" stroke="#263238" stroke-linecap="round" stroke-linejoin="round" stroke-width="1"/>
  <path id="Path_35851" data-name="Path 35851" d="M233.74,253.356s-5.074,5.372-8.059,8.813-4.029,5.517.889,7.6,12.543-1.034,14.785-4.474,7.014-7.314,7.014-7.314,2.532-2.832-.753-6.861S235.227,251.713,233.74,253.356Z" transform="translate(90.375 101.622)" fill="#fff" stroke="#263238" stroke-linecap="round" stroke-linejoin="round" stroke-width="1"/>
  <path id="Path_35852" data-name="Path 35852" d="M252.294,257.2s5.074.744,7.759,3.1,12.1,7.614,18.359,5.073,2.242-6.716-1.187-9.7a36.476,36.476,0,0,0-6.272-4.474s-10-.744-14.464,1.489S252.294,257.2,252.294,257.2Z" transform="translate(102.267 102.26)" fill="#fff" stroke="#263238" stroke-linecap="round" stroke-linejoin="round" stroke-width="1"/>
  <path id="Path_35853" data-name="Path 35853" d="M227.056,208.339s2.4,17.916,1.2,23.288-4.629,8.513-2.066,13.742a54.046,54.046,0,0,1,4.132,12.687c.3,1.787-1.342,2.232,0,4.133a16.859,16.859,0,0,1,2.387,4.029c0,.455-1.787,2.985-1.787,3.585s.9,4.329.9,4.329,4.774-1.034,8.2.3a35.31,35.31,0,0,1,7.016,4.03s3.1-1.2,4.184-2.987a6.963,6.963,0,0,0,1.034-3.1c.144-.6,1.642-3.739,1.5-6.126s-1.8-7.459-1.8-10.445,2.242-6.272,2.242-11.045-2.242-35.376-2.242-35.376l2.066-.753s3.285,18.214,3.285,26.728-2.531,19.1-.889,21.19,3.576,3.884,3.576,4.329-1.942,3.729-1.488,5.372a65.44,65.44,0,0,1,1.788,6.571c0,.9,1.642,4.329,2.985,4.927s2.066-.753,10-2.386,12.4-1.2,11.643-3.585-1.487-5.527-2.387-6.127.3-1.032,0-3.274-1.942-4.629-3.429-8.214.589-7.459,1.187-11.2-.3-9.3-1.787-15.374-.155-21.045-.155-21.045l.755-5.817s-22.844,2.067-36.875,1.932l-15.074-.144S226.167,203.567,227.056,208.339Z" transform="translate(91.231 81.703)" fill="#263238" stroke="#263238" stroke-linecap="round" stroke-linejoin="round" stroke-width="1"/>
  <path id="Path_35854" data-name="Path 35854" d="M268.6,161.827s2.066,27.172,4.773,41.326a171.668,171.668,0,0,1,2.954,24.208H265.47c-.455,0,.744-50.305,1.032-54.758A64.941,64.941,0,0,1,268.6,161.827Z" transform="translate(107.605 65.824)" fill="#fab915" stroke="#263238" stroke-linecap="round" stroke-linejoin="round" stroke-width="1"/>
  <path id="Path_35855" data-name="Path 35855" d="M244.393,83.723s-12.688,8.5-19.248,11.489-10.156,6.87-10.6,8.265,7.161,22.833,7.161,22.833-.445,70.906-.445,82.849-3.729,47.908-3.285,47.908,12.4,7.769,28.805,8.213,21.7-1.942,26.862-1.942,15.5,0,15.672-1.488.3-34.486.445-49.86.3-26.273,0-28.8-4.474-57.176-4.474-57.176,3.1-9.1,4.927-16.416S292,101.38,289.76,98.1,270.7,85.9,267.711,84.756a44.887,44.887,0,0,0-11.365-2.387C253.537,82.174,244.393,83.723,244.393,83.723Z" transform="translate(86.85 33.379)" fill="#fab915" stroke="#263238" stroke-linecap="round" stroke-linejoin="round" stroke-width="1"/>
  <path id="Path_35856" data-name="Path 35856" d="M220.2,126.428s1.942,4.474,4.329,6.416,7.914,2.842,9.1,5.827,0,5.218-1.342,8.8-.59,9.556-5.517,10.331-6.416-1.032-10.456-3.884-6.56-3.285-8.947-7.614-3.1-10.332-1.034-13.577" transform="translate(83.01 51.372)" fill="#fab915"/>
  <path id="Path_35857" data-name="Path 35857" d="M220.2,126.428s1.942,4.474,4.329,6.416,7.914,2.842,9.1,5.827,0,5.218-1.342,8.8-.59,9.556-5.517,10.331-6.416-1.032-10.456-3.884-6.56-3.285-8.947-7.614-3.1-10.332-1.034-13.577" transform="translate(83.01 51.372)" fill="none" stroke="#263238" stroke-linecap="round" stroke-linejoin="round" stroke-width="1"/>
  <path id="Path_35858" data-name="Path 35858" d="M235.5,79.151l-.476,12.543s-1.189,1.787,5.972,2.232a54.15,54.15,0,0,0,13.73-1.033l-1.189-13.576s-7.469,3.1-11.8,1.643A41.814,41.814,0,0,0,235.5,79.151Z" transform="translate(95.187 32.073)" fill="#fff" stroke="#263238" stroke-linecap="round" stroke-linejoin="round" stroke-width="1"/>
  <path id="Path_35859" data-name="Path 35859" d="M233.965,76.928s-1.032,14.464-1.787,18.8-.6,7.015,1.034,8.059,11.188,4.784,16.117,4.484,12.4-4.784,12.987-6.127-4.464-22.409-4.464-22.409l-.753.9S258.442,91.682,258,92s-17.759-.9-20.9-1.033-2.231-.3-2.231-.3l-.155-12.687Z" transform="translate(93.878 31.165)" fill="#fff" stroke="#263238" stroke-linecap="round" stroke-linejoin="round" stroke-width="1"/>
  <path id="Path_35860" data-name="Path 35860" d="M232.984,89.151s16.313,2.407,26.1.517" transform="translate(94.385 36.155)" fill="none" stroke="#263238" stroke-miterlimit="10" stroke-width="0.5"/>
  <path id="Path_35861" data-name="Path 35861" d="M232.5,91.836s11.364,4.8,26.779.506" transform="translate(94.188 37.251)" fill="none" stroke="#263238" stroke-miterlimit="10" stroke-width="0.5"/>
  <path id="Path_35862" data-name="Path 35862" d="M233.351,95.107s10.817,5.837,25.581-.351" transform="translate(94.535 38.443)" fill="none" stroke="#263238" stroke-miterlimit="10" stroke-width="0.5"/>
  <path id="Path_35863" data-name="Path 35863" d="M260.684,71.743c.372-4.587.682-9.3-.455-11.644-1.787-3.73-7.169-8.059-14.929-7.759s-14.33,3.286-14.175,12.832c0,0,.331,2.841.713,6.323a8.571,8.571,0,0,0-.713,4.877,12.016,12.016,0,0,0,1.643,4.494c.072.888.124,1.653.144,2.221.145,4.029,2.832,8.8,5.229,10.445s6.86,4.184,9.7,4.184,7.9-2.686,10.331-6.571c1.881-3.1,2.067-5.166,2.067-8.813h.144a32.36,32.36,0,0,0,.755-5.827A18,18,0,0,0,260.684,71.743Z" transform="translate(93.588 21.121)" fill="#fff" stroke="#263238" stroke-linecap="round" stroke-linejoin="round" stroke-width="1"/>
  <path id="Path_35864" data-name="Path 35864" d="M232.067,67.315s.444,3.73,1.187,3.575,1.643-5.517,1.643-5.517Z" transform="translate(94.011 26.448)" fill="#263238" stroke="#263238" stroke-linecap="round" stroke-linejoin="round" stroke-width="1"/>
  <path id="Path_35865" data-name="Path 35865" d="M250.071,66.452s0,4.184,1.032,4.784,1.787-3.585,1.787-3.585A7.406,7.406,0,0,0,250.071,66.452Z" transform="translate(101.36 26.888)" fill="#263238" stroke="#263238" stroke-linecap="round" stroke-linejoin="round" stroke-width="1"/>
  <path id="Path_35866" data-name="Path 35866" d="M260.226,60.1c-1.787-3.73-7.169-8.059-14.929-7.759s-14.33,3.286-14.175,12.832c0,0,.331,2.841.713,6.323a8.587,8.587,0,0,0-.794,3.213c2.9-2.325,8.337-5.651,15.155-5.052a35.383,35.383,0,0,1,14.919,5.259,17.332,17.332,0,0,0-.434-3.172C261.052,67.156,261.414,62.476,260.226,60.1Z" transform="translate(93.591 21.121)" fill="#fab915" stroke="#263238" stroke-linecap="round" stroke-linejoin="round" stroke-width="1"/>
  <path id="Path_35867" data-name="Path 35867" d="M241.022,68.784l-.9,5.373s-1.643.145-1.034,1.188,3.729,2.242,5.227,1.8S247.3,75.2,247.148,74.6a1.028,1.028,0,0,0-.744-.744l-1.942-5.527" transform="translate(96.822 27.655)" fill="none" stroke="#263238" stroke-linecap="round" stroke-linejoin="round" stroke-width="1"/>
  <path id="Path_35868" data-name="Path 35868" d="M239.256,76.59a17.707,17.707,0,0,0,8.658-.3" transform="translate(96.945 30.905)" fill="none" stroke="#263238" stroke-linecap="round" stroke-linejoin="round" stroke-width="1"/>
  <path id="Path_35869" data-name="Path 35869" d="M238.608,68.909c0,.785-.4,1.416-.9,1.416s-.889-.63-.889-1.416.4-1.415.889-1.415S238.608,68.093,238.608,68.909Z" transform="translate(95.951 27.314)" fill="#263238"/>
  <path id="Path_35870" data-name="Path 35870" d="M246.663,68.858c0,.785-.4,1.416-.889,1.416s-.9-.63-.9-1.416.4-1.415.9-1.415S246.663,68.114,246.663,68.858Z" transform="translate(99.24 27.292)" fill="#263238"/>
  <path id="Path_35871" data-name="Path 35871" d="M235.654,67.5s1.034-2.542,4.329-1.643" transform="translate(95.475 26.566)" fill="none" stroke="#263238" stroke-linecap="round" stroke-linejoin="round" stroke-width="1"/>
  <path id="Path_35872" data-name="Path 35872" d="M243.5,66.088s3.1-2.242,5.372,1.643" transform="translate(98.677 26.477)" fill="none" stroke="#263238" stroke-linecap="round" stroke-linejoin="round" stroke-width="1"/>
  <path id="Path_35873" data-name="Path 35873" d="M224.756,141.373s9.113,2.066,11.2,1.642a13.238,13.238,0,0,0,7.159-3.884c2.7-2.687,4.929-4.929,4.929-2.687a6.663,6.663,0,0,1-1.943,4.774c-1.032,1.2-2.985,2.542-3.429,4.484s.155,3.43,2.54,4.329,9.846,2.232,9.846,4.133-.6,6.426-3.285,7.913-9.246.445-9.246.445,5.372,2.985,4.329,3.74-4.184-.3-5.672-1.643-2.066-1.5-6.426-4.629-8.059-6.869-10.146-8.058a12.482,12.482,0,0,1-3.1-2.066c-1.2-1.034-1.642-3.1-.753-5.517a5.6,5.6,0,0,1,3.285-3.1Z" transform="translate(89.202 55.087)" fill="#fff" stroke="#263238" stroke-linecap="round" stroke-linejoin="round" stroke-width="1"/>
  <path id="Path_35874" data-name="Path 35874" d="M281.329,127.595s-10.745,2.066-11.788,2.831,0,3.884,0,3.884-9.113,4.329-12.543,6.716-.3,7.171-.145,7.759c0,0,2.687,8.813,7.161,11.8s9.1,1.932,13.585-2.84,7.314-11.366,9.4-13.587,4.329-4.329,3.585-9.3-4.629-5.527-4.629-5.527" transform="translate(103.535 51.849)" fill="#fab915"/>
  <path id="Path_35875" data-name="Path 35875" d="M281.329,127.595s-10.745,2.066-11.788,2.831,0,3.884,0,3.884-9.113,4.329-12.543,6.716-.3,7.171-.145,7.759c0,0,2.687,8.813,7.161,11.8s9.1,1.932,13.585-2.84,7.314-11.366,9.4-13.587,4.329-4.329,3.585-9.3-4.629-5.527-4.629-5.527" transform="translate(103.535 51.849)" fill="none" stroke="#263238" stroke-linecap="round" stroke-linejoin="round" stroke-width="1"/>
  <path id="Path_35876" data-name="Path 35876" d="M268.649,144.055s-6.861,1.788-8.8,1.943-2.242.444-3.43-.455-6.726-4.133-9.3-7.159-4.484-3.585-4.184-1.943-.3,2.832,1.5,4.03,3.574,4.484,3.574,5.826-.144,1.788-3.874,3.1-12.243,2.987-11.364,4.03,2.686,1.342,4.629,1.2,10-1.343,10.59-.9a1.788,1.788,0,0,1-.445,2.832c-1.344.9-6.116.9-8.958,1.2s-2.985,1.032-1.787,1.642a15.691,15.691,0,0,0,6.023.982c2.387,0,5.167-.238,3.978.507s-2.842.9-5.827,1.342-4.029-.887-3.574.3,4.029,1.2,8.5,1.034a24.3,24.3,0,0,0,11.5-3.576c2.987-1.8,13.875-4.484,14.63-5.072s1.932-4.039,1.189-8.213S268.649,144.055,268.649,144.055Z" transform="translate(94.271 55.09)" fill="#fff" stroke="#263238" stroke-linecap="round" stroke-linejoin="round" stroke-width="1"/>
  <path id="Path_35877" data-name="Path 35877" d="M266.607,130.994a54.593,54.593,0,0,1,9.4-6.261" transform="translate(108.111 50.681)" fill="none" stroke="#263238" stroke-linecap="round" stroke-linejoin="round" stroke-width="1"/>
  <path id="Path_35878" data-name="Path 35878" d="M237.987,149.469s8.492-.97,9.349-1.094,2.429.846,1.7,1.942-1.1.848-4.133,1.456a54.222,54.222,0,0,1-9.113.61" transform="translate(95.529 60.328)" fill="#fff"/>
  <path id="Path_35879" data-name="Path 35879" d="M237.987,149.469s8.492-.97,9.349-1.094,2.429.846,1.7,1.942-1.1.848-4.133,1.456a54.222,54.222,0,0,1-9.113.61" transform="translate(95.529 60.328)" fill="none" stroke="#263238" stroke-linecap="round" stroke-linejoin="round" stroke-width="1"/>
  <path id="Path_35880" data-name="Path 35880" d="M239.624,153.356s9.463-.61,9.225.124-.848,1.694-4.246,1.943-7.233.484-10.446-1.1" transform="translate(94.864 62.269)" fill="#fff"/>
  <path id="Path_35881" data-name="Path 35881" d="M239.624,153.356s9.463-.61,9.225.124-.848,1.694-4.246,1.943-7.233.484-10.446-1.1" transform="translate(94.864 62.269)" fill="none" stroke="#263238" stroke-linecap="round" stroke-linejoin="round" stroke-width="1"/>
  <path id="Path_35882" data-name="Path 35882" d="M175.634,247.709s1.611,1.6-4.815,5.527-11.788,5.713-11.788,8.038,7.14,4.639,14.464,2.852,10.332-2.314,14.464-3.028,5.363-4.287,5.363-9.3-10.89-6.2-12.139-6.426S176.533,245.746,175.634,247.709Z" transform="translate(64.194 99.912)" fill="#fff" stroke="#263238" stroke-linecap="round" stroke-linejoin="round" stroke-width="1"/>
  <path id="Path_35883" data-name="Path 35883" d="M186.534,250.876a47.631,47.631,0,0,1-9.815,10.714c-5.537,4.132-6.25,6.064-3.388,7.138s11.066,1.427,16.6-.713,8.214-5.351,9.815-6.788,2.5-.538,2.5-6.251-6.075-7.676-11.065-7.314S186.534,250.876,186.534,250.876Z" transform="translate(69.36 100.848)" fill="#fff" stroke="#263238" stroke-linecap="round" stroke-linejoin="round" stroke-width="1"/>
  <path id="Path_35884" data-name="Path 35884" d="M166.771,167.754s1.612,32.494,2.149,41.957,4.464,44.983,5.167,53.374.713,10.888.713,10.888-3.214,2.325-3.214,2.863-.362,5.527-.362,5.527a34.241,34.241,0,0,0,7.5,3.038,27.44,27.44,0,0,0,8.751.537s5.889,1.963,10.888,3.388,6.964.714,6.964.714,1.427-7.14,1.777-9.465,6.427-26.955,6.427-38.227-1.427-16.427-3.566-23.029,2.852-30.179,4.64-38.743a141.382,141.382,0,0,0,2.324-14.464S201.578,174.005,166.771,167.754Z" transform="translate(67.354 67.574)" fill="#263238" stroke="#263238" stroke-linecap="round" stroke-linejoin="round" stroke-width="1"/>
  <path id="Path_35885" data-name="Path 35885" d="M181.227,175.033s-.9,23.763-.9,32.844,2.325,20.177,3.388,30.891.362,28.206-.887,31.243-2.139,4.132-1.963,6.426.36,5.527.36,5.527" transform="translate(72.889 71.215)" fill="none" stroke="#fff" stroke-linecap="round" stroke-linejoin="round" stroke-width="1"/>
  <path id="Path_35886" data-name="Path 35886" d="M179.952,77.537s-1.034-3.213-2.686-1.963-.528,3.575.9,5.9,3.028,2.852,3.214,1.6S179.952,77.537,179.952,77.537Z" transform="translate(71.304 30.494)" fill="#fff" stroke="#263238" stroke-linecap="round" stroke-linejoin="round" stroke-width="1"/>
  <path id="Path_35887" data-name="Path 35887" d="M181.08,86.6l-1.787-5.166s-7.49-3.037-5.165-10.538S194.3,56.613,199.12,56.613s14.1,6.426,15.715,13.927-3.75,14.278-3.75,14.278-2.325,6.6-4.133,6.251-.724-5.538-3.038-9.639-3.75-6.2-6.251-5.166-12.852,4.133-13.74,5.527S181.442,87.484,181.08,86.6Z" transform="translate(70.175 22.871)" fill="#263238" stroke="#263238" stroke-linecap="round" stroke-linejoin="round" stroke-width="1"/>
  <path id="Path_35888" data-name="Path 35888" d="M207.622,132.307l.889,4.639-11.066,17.141,2.5,3.925A76.417,76.417,0,0,0,214.224,145.7c7.138-7.851,7.852-8.925,7.852-12.139s-2.49-8.751-2.49-8.751S214.586,132.307,207.622,132.307Z" transform="translate(79.876 50.711)" fill="#fff" stroke="#263238" stroke-linecap="round" stroke-linejoin="round" stroke-width="1"/>
  <path id="Path_35889" data-name="Path 35889" d="M162.549,122.782s-3.574,8.565-2.852,11.241,13.029,18.39,13.029,18.39l2.138-5.889s-4.639-9.639-4.639-12.852,1.612-9.465,1.612-9.465Z" transform="translate(64.427 49.884)" fill="none" stroke="#263238" stroke-linecap="round" stroke-linejoin="round" stroke-width="1"/>
  <path id="Path_35890" data-name="Path 35890" d="M194.949,92.607S179.6,98.5,176.734,99.394s-4.825,1.426-5,2.314S162.993,124.563,161.4,127.6s-3.75,6.426-3.75,6.426a71.885,71.885,0,0,0,6.426,3.574,40.4,40.4,0,0,0,6.964,2.315l1.034,12.325-10.539,46.41s21.067,5.889,35.128,5.363a87,87,0,0,0,26.243-5c2.685-.9,6.788-2.5,6.788-2.5l-13.432-50.521,1.034-7.5.713,7.326s7.14,1.6,11.241.527,9.3-5.165,9.3-5.165L225.335,99.942,200.7,93.154Z" transform="translate(63.631 37.566)" fill="#fab915" stroke="#263238" stroke-linecap="round" stroke-linejoin="round" stroke-width="1"/>
  <path id="Path_35891" data-name="Path 35891" d="M203.089,96.295l-11.457-3.151-5.889-.537-5.3,2.066c-.1,2.81-.238,7.594-.238,13.328,0,9.3,1.034,17.5,3.752,15.891s15.5-18.918,17.666-23.763A26.821,26.821,0,0,0,203.089,96.295Z" transform="translate(72.838 37.566)" fill="#fab915" stroke="#263238" stroke-linecap="round" stroke-linejoin="round" stroke-width="1"/>
  <path id="Path_35892" data-name="Path 35892" d="M200.678,129.744c-.362-.351-1.963-15.715-1.963-15.715" transform="translate(80.395 46.311)" fill="none" stroke="#263238" stroke-linecap="round" stroke-linejoin="round" stroke-width="1"/>
  <path id="Path_35893" data-name="Path 35893" d="M167.422,133.29s-1.249-6.065-.889-8.39,2.852-16.065,2.852-16.065" transform="translate(67.23 44.191)" fill="none" stroke="#263238" stroke-linecap="round" stroke-linejoin="round" stroke-width="1"/>
  <path id="Path_35894" data-name="Path 35894" d="M173.894,144.461s-8.213,2.677-8.213,3.214-.186,3.028-.186,3.028l8.4-3.926Z" transform="translate(66.833 58.735)" fill="none" stroke="#263238" stroke-linecap="round" stroke-linejoin="round" stroke-width="1"/>
  <path id="Path_35895" data-name="Path 35895" d="M187.03,145.349l-.362,2.315,17.854,4.639.887-1.777Z" transform="translate(75.477 59.097)" fill="none" stroke="#263238" stroke-linecap="round" stroke-linejoin="round" stroke-width="1"/>
  <path id="Path_35896" data-name="Path 35896" d="M197.679,132.051a.921.921,0,0,1-.92-.92c0-3.1,1.539-10.58,3.038-17.813,1.187-5.754,2.314-11.2,2.314-12.9a6.615,6.615,0,0,0-2-5.073c-2.139-1.984-5.941-2.79-11.293-2.4-11.169.826-11.986,25.829-12,26.067a.919.919,0,0,1-.92.9.923.923,0,0,1-.641-.29.916.916,0,0,1-.248-.66c0-1.094.879-26.862,13.7-27.9,5.889-.424,10.156.537,12.677,2.893a8.479,8.479,0,0,1,2.594,6.416c0,1.891-1.084,7.17-2.346,13.276-1.415,6.809-3.005,14.526-3.005,17.44a.94.94,0,0,1-.061.373.92.92,0,0,1-.206.315.908.908,0,0,1-.314.208A.927.927,0,0,1,197.679,132.051Z" transform="translate(70.717 36.897)" fill="#263238" stroke="#263238" stroke-linecap="round" stroke-linejoin="round" stroke-width="1"/>
  <path id="Path_35897" data-name="Path 35897" d="M182.942,89.11s0,5.166-.175,6.2,0,5.538,0,11.613,1.032,10.166,2.5,8.74,10.89-14.1,11.426-16.6a22.553,22.553,0,0,0,.538-4.277l.713-7.149s-11.064,3.213-15.715,1.787" transform="translate(73.665 35.535)" fill="#fff"/>
  <path id="Path_35898" data-name="Path 35898" d="M182.942,89.11s0,5.166-.175,6.2,0,5.538,0,11.613,1.032,10.166,2.5,8.74,10.89-14.1,11.426-16.6a22.553,22.553,0,0,0,.538-4.277l.713-7.149s-11.064,3.213-15.715,1.787" transform="translate(73.665 35.535)" fill="none" stroke="#263238" stroke-linecap="round" stroke-linejoin="round" stroke-width="1"/>
  <path id="Path_35899" data-name="Path 35899" d="M197.409,81.543a84.812,84.812,0,0,1,.713,18.742c-.713,10.89-2.005,15.993-5.165,17.564s.918,3.347,5.733,3.523,11.964-.538,13.215-14.816-9.1-23.566-10-25.354a2.479,2.479,0,0,0-4.494.341Z" transform="translate(77.589 32.388)" fill="#263238" stroke="#263238" stroke-linecap="round" stroke-linejoin="round" stroke-width="1"/>
  <path id="Path_35900" data-name="Path 35900" d="M171.347,123.67h-.073a.916.916,0,0,1-.359-.1.931.931,0,0,1-.29-.234.912.912,0,0,1-.2-.7c0-.507,1.034-12.46,7.345-12.46s6.458,11.5,6.458,11.994a.92.92,0,1,1-1.839,0c0-.1-.135-10.145-4.608-10.145-3.844,0-5.279,7.759-5.508,10.755a.929.929,0,0,1-.929.889Z" transform="translate(68.843 44.739)" fill="#263238"/>
  <path id="Path_35901" data-name="Path 35901" d="M171.078,118.6s0,8.927.351,10.7,4.825,5.537,10.177,7.862" transform="translate(69.112 48.177)" fill="none" stroke="#263238" stroke-linecap="round" stroke-linejoin="round" stroke-width="2"/>
  <path id="Path_35902" data-name="Path 35902" d="M182.474,117.808s.351,8.925-1.427,12.852-7.138,5.539-9.463,6.427" transform="translate(69.319 47.854)" fill="none" stroke="#263238" stroke-linecap="round" stroke-linejoin="round" stroke-width="2"/>
  <path id="Path_35903" data-name="Path 35903" d="M181.262,132.463a1.612,1.612,0,1,0-1.607,1.741,1.61,1.61,0,0,0,1.607-1.741Z" transform="translate(71.956 53.231)" fill="#fff" stroke="#263238" stroke-linecap="round" stroke-linejoin="round" stroke-width="1"/>
  <path id="Path_35904" data-name="Path 35904" d="M173.407,132.254a1.613,1.613,0,1,0-.476,1.132A1.615,1.615,0,0,0,173.407,132.254Z" transform="translate(68.747 53.089)" fill="#fff" stroke="#263238" stroke-linecap="round" stroke-linejoin="round" stroke-width="1"/>
  <path id="Path_35905" data-name="Path 35905" d="M198.118,123.5a5.539,5.539,0,1,0-1.622,3.905A5.535,5.535,0,0,0,198.118,123.5Z" transform="translate(75.629 47.913)" fill="#fff" stroke="#263238" stroke-linecap="round" stroke-linejoin="round" stroke-width="1"/>
  <path id="Path_35906" data-name="Path 35906" d="M194.893,122.775a3.039,3.039,0,1,0-.887,2.145A3.041,3.041,0,0,0,194.893,122.775Z" transform="translate(76.354 48.641)" fill="#fff" stroke="#263238" stroke-linecap="round" stroke-linejoin="round" stroke-width="1"/>
  <path id="Path_35907" data-name="Path 35907" d="M198.978,68.014s-15.529,6.065-17.492,7.1a13.891,13.891,0,0,1-2.676,1.25s.887,13.565,1.249,17.14,6.065,6.963,11.066,6.788,9.1-2.862,10-4.463,3.388-6.426,3.388-6.426,5.889-1.033,6.2-6.251-1.427-4.133-3.39-3.038-3.036,1.787-3.036,1.787a7.964,7.964,0,0,0-.9-5.538C201.84,73.728,199.339,70.515,198.978,68.014Z" transform="translate(72.27 27.526)" fill="#fff" stroke="#263238" stroke-linecap="round" stroke-linejoin="round" stroke-width="1"/>
  <path id="Path_35908" data-name="Path 35908" d="M184.137,79.8s1.425,2.139,2.676,1.963" transform="translate(74.443 32.339)" fill="none" stroke="#263238" stroke-linecap="round" stroke-linejoin="round" stroke-width="1"/>
  <path id="Path_35909" data-name="Path 35909" d="M183.755,82.086s3.028,2.862,8.266.537" transform="translate(74.288 33.271)" fill="none" stroke="#263238" stroke-linecap="round" stroke-linejoin="round" stroke-width="1"/>
  <path id="Path_35910" data-name="Path 35910" d="M189.206,76.89s3.657-1.6,5.713,1.25" transform="translate(76.513 30.966)" fill="none" stroke="#263238" stroke-linecap="round" stroke-linejoin="round" stroke-width="1.5"/>
  <path id="Path_35911" data-name="Path 35911" d="M185.587,76.775s-2.862-1.787-5-.362" transform="translate(72.994 30.73)" fill="none" stroke="#263238" stroke-linecap="round" stroke-linejoin="round" stroke-width="1.5"/>
  <path id="Path_35912" data-name="Path 35912" d="M188.549,77.492a5.043,5.043,0,1,1-1.477-3.555A5.045,5.045,0,0,1,188.549,77.492Z" transform="translate(72.128 29.341)" fill="none" stroke="#263238" stroke-linecap="round" stroke-linejoin="round" stroke-width="1"/>
  <path id="Path_35913" data-name="Path 35913" d="M197.463,78.5a5.051,5.051,0,1,1-1.483-3.556,5.03,5.03,0,0,1,1.483,3.556Z" transform="translate(75.768 29.751)" fill="none" stroke="#263238" stroke-linecap="round" stroke-linejoin="round" stroke-width="1"/>
  <path id="Path_35914" data-name="Path 35914" d="M185.626,76.066a2.129,2.129,0,0,1,2.118.444" transform="translate(75.052 30.767)" fill="none" stroke="#263238" stroke-linecap="round" stroke-linejoin="round" stroke-width="1"/>
  <path id="Path_35915" data-name="Path 35915" d="M194.665,77.807l4.949-.7" transform="translate(78.742 31.237)" fill="none" stroke="#263238" stroke-linecap="round" stroke-linejoin="round" stroke-width="1"/>
  <path id="Path_35916" data-name="Path 35916" d="M47.826,248.125a43.81,43.81,0,0,1-5.021,8.192c-2.986,3.668-3.74,6.282-.5,8.555s9.154,1.922,12.129-1.746,7.769-13.782,7.769-13.782S51.752,246.2,47.826,248.125Z" transform="translate(15.682 100.799)" fill="#fff" stroke="#263238" stroke-linecap="round" stroke-linejoin="round" stroke-width="1"/>
  <path id="Path_35917" data-name="Path 35917" d="M71.475,250.422s5.166,6.809,8.265,10.332,8.958,5.227,12.088,5.051,7.625-1.218,4.587-6.8-9.381-10.993-9.381-10.993-6.633,0-11.189-.527S71.248,249.378,71.475,250.422Z" transform="translate(28.421 100.764)" fill="#fff" stroke="#263238" stroke-linecap="round" stroke-linejoin="round" stroke-width="1"/>
  <path id="Path_35918" data-name="Path 35918" d="M49.11,159.435s-2.066,23.763-1.364,40.48-2.376,50.077-3.409,58.239.94,21.635,1.033,24.6.2,4.546.2,4.546,1.529-1.032,7.16,0a50.332,50.332,0,0,0,7.718,1.034,67.971,67.971,0,0,0,5.734-12.4c1.684-5.579.734-11.365.6-14.309s-.62-6.106-.289-6.633,7.232-50.419,7.6-61.412a121.835,121.835,0,0,1,3.306-22.1s3.3,15.353,3.554,21.284-.589,54.261-.165,64.055-.331,12.4-1.446,14.837-.713,3.657.072,5.578S82.667,287.7,82.667,287.7s12.594.7,14.3-.175,2.366-1.736,2.335-2.263,6.065-13.09,5.486-18.318-1.24-4.36-1.829-13.782,3.265-88.851,3.254-92.985-.7,3.833-26.387-1.032S49.844,156.119,49.11,159.435Z" transform="translate(17.25 63.515)" fill="#fab915" stroke="#263238" stroke-linecap="round" stroke-linejoin="round" stroke-width="1"/>
  <path id="Path_35919" data-name="Path 35919" d="M71.983,247.261s8.069-6.983,14.795-8.73Z" transform="translate(28.658 97.137)" fill="#fff"/>
  <path id="Path_35920" data-name="Path 35920" d="M71.983,247.261s8.069-6.983,14.795-8.73" transform="translate(28.658 97.137)" fill="none" stroke="#263238" stroke-linecap="round" stroke-linejoin="round" stroke-width="1"/>
  <path id="Path_35921" data-name="Path 35921" d="M48.586,244.138s10.084-4.887,13-6.106Z" transform="translate(19.106 96.934)" fill="#fff"/>
  <path id="Path_35922" data-name="Path 35922" d="M48.586,244.138s10.084-4.887,13-6.106" transform="translate(19.106 96.934)" fill="none" stroke="#263238" stroke-linecap="round" stroke-linejoin="round" stroke-width="1"/>
  <path id="Path_35923" data-name="Path 35923" d="M62.235,68.1s-2.707-6.106-4.711-4.009-.486,4.877,2.273,8.193,4.938,1.219,4.36-.176S62.235,68.1,62.235,68.1Z" transform="translate(22.381 25.745)" fill="#fff" stroke="#263238" stroke-linecap="round" stroke-linejoin="round" stroke-width="1"/>
  <path id="Path_35924" data-name="Path 35924" d="M79.416,65.577s2.707-5.93,4.918-3.1-2.541,9.774-3.709,10.993S78.7,65.442,78.7,65.442Z" transform="translate(31.401 24.953)" fill="#fff" stroke="#263238" stroke-linecap="round" stroke-linejoin="round" stroke-width="1"/>
  <path id="Path_35925" data-name="Path 35925" d="M38.724,118.725s-.754,10.817-1.674,13.606a68.189,68.189,0,0,0-2.6,20.229c.362,8.193,3.575,25.995,3.637,31.4s-1.622,6.633.186,8.027,5.651,5.589,7.046,5.589,3.523.693,3.471-.351-.734-.879-1.322-2.273a48.419,48.419,0,0,1-1.839-6.23,41.073,41.073,0,0,1,1.539-4.536s1.24,4.36,1.478,5.765,2.18,1.911,2.066-.7-.165-3.667-.289-6.457-2.325-5.229-3.255-6.633-1.663-2.263-1.694-2.79,3.007-19.01,3.1-25.468.186-11.7.651-12.915S52,122.775,52,122.775Z" transform="translate(13.327 48.228)" fill="#fff" stroke="#263238" stroke-linecap="round" stroke-linejoin="round" stroke-width="1"/>
  <path id="Path_35926" data-name="Path 35926" d="M102.612,119.092s.744,10.879,1.674,13.751a71.127,71.127,0,0,1,2.593,20.466c-.362,8.172-3.6,25.685-3.657,31.088s1.632,6.767-.176,8.007-5.662,5.082-7.057,4.97-3.513.382-3.471-.662.734-.805,1.322-2.149a44.189,44.189,0,0,0,1.849-6.116,43.566,43.566,0,0,0-1.55-4.681s-1.24,4.257-1.477,5.632-2.17,1.725-2.066-.879.155-3.647.279-6.426,2.325-5.032,3.265-6.344,1.663-2.128,1.694-2.645-3.006-19.279-3.1-25.747-.176-11.705-.651-12.966-2.779-12.46-2.779-12.46Z" transform="translate(35.729 48.378)" fill="#fff" stroke="#263238" stroke-linecap="round" stroke-linejoin="round" stroke-width="1"/>
  <path id="Path_35927" data-name="Path 35927" d="M76.67,81.284S66.752,86,60.759,88.609s-13.524,5.755-13.431,6.984S40.943,121.236,38.9,126.3s-3.957,9.072-3.957,9.072,7.325,4.9,12.078,5.93a60.086,60.086,0,0,0,9.3,1.22l-5.651,50.253s11.365,4.535,29.166,4.711a275.288,275.288,0,0,0,33.061-1.746s1.674-41.326,1.5-45.366a36.714,36.714,0,0,1,.238-6.633,16.143,16.143,0,0,0,8.183-.341,71.323,71.323,0,0,0,6.85-2.964s-8.668-34.55-10.094-39.261-.765-5.4-2-5.93-14.94-6.457-19.413-9.071-6.2-2.624-10.115-3.843S78.684,79.538,76.67,81.284Z" transform="translate(13.536 32.626)" fill="#fab915" stroke="#263238" stroke-linecap="round" stroke-linejoin="round" stroke-width="1"/>
  <path id="Path_35928" data-name="Path 35928" d="M92.183,134.39l-2.211-30.984" transform="translate(36.002 41.974)" fill="none" stroke="#263238" stroke-linecap="round" stroke-linejoin="round" stroke-width="1"/>
  <path id="Path_35929" data-name="Path 35929" d="M50.53,137.087l19.351-.527s-.857,24.258-1.446,26.862-4.515,4.36-9.588,4.184-8.141-2.614-8.72-3.833" transform="translate(19.736 55.509)" fill="none" stroke="#263238" stroke-linecap="round" stroke-linejoin="round" stroke-width="1"/>
  <path id="Path_35930" data-name="Path 35930" d="M49.643,139.215l20.4-.175" transform="translate(19.538 56.522)" fill="none" stroke="#263238" stroke-linecap="round" stroke-linejoin="round" stroke-width="1"/>
  <path id="Path_35931" data-name="Path 35931" d="M90.106,167.312c-1.9.527-6.437.527-7.428-2.263s-.341-27.741-.341-27.741l9.96.341" transform="translate(32.799 55.815)" fill="none" stroke="#263238" stroke-linecap="round" stroke-linejoin="round" stroke-width="1"/>
  <path id="Path_35932" data-name="Path 35932" d="M82.217,138.79l9.474,1.4" transform="translate(32.836 56.419)" fill="none" stroke="#263238" stroke-linecap="round" stroke-linejoin="round" stroke-width="1"/>
  <path id="Path_35933" data-name="Path 35933" d="M50.12,133.292s.7-23.9.424-30.179" transform="translate(19.732 41.855)" fill="none" stroke="#263238" stroke-linecap="round" stroke-linejoin="round" stroke-width="1"/>
  <path id="Path_35934" data-name="Path 35934" d="M62.475,72.754s1.509,14.464,1.57,16.055,1.829,5.93,3.5,8.2,6.354,9.6,8.214,8.193,7.1-9.247,7.6-13.607.754-14.65.754-14.65-6.788.351-11.933-1.395S62.475,72.754,62.475,72.754Z" transform="translate(24.776 29.461)" fill="#fff" stroke="#263238" stroke-linecap="round" stroke-linejoin="round" stroke-width="1"/>
  <path id="Path_35935" data-name="Path 35935" d="M57.6,62.369l3.854,12.222S62.9,83.663,65.5,87.32s11.726,8.906,15.869,7.852,9.03-4.887,8.844-9.071-1.033-16.4-.92-21.108S88.263,50.684,85.411,48.07s-12.4-4.195-19.248-1.395S54.664,54.693,57.6,62.369Z" transform="translate(22.42 18.211)" fill="#263238" stroke="#263238" stroke-linecap="round" stroke-linejoin="round" stroke-width="1"/>
  <path id="Path_35936" data-name="Path 35936" d="M60.248,72.813s-.341.176.558-3.317,3.606-5.238,3.874-6.974-3.409-2.273-3.006-4.887,4-4.536,11.633-5.414,12.718,3.668,12.47,5.93-.93,2.624.186,4.195,1.591,4.536,1.674,6.282,1.033,8.017-.62,9.939-2.893,1.57-4.536,0-2.252-3.657-5.91-3.657S71.747,76.3,71.106,77.7s-1.26,3.1-3.347,3.1S64.184,78.877,62.7,76.78A33.773,33.773,0,0,1,60.248,72.813Z" transform="translate(23.842 21.034)" fill="#fff" stroke="#263238" stroke-linecap="round" stroke-linejoin="round" stroke-width="1"/>
  <path id="Path_35937" data-name="Path 35937" d="M72.378,60.737s3.378,9.422,3.234,10.125-1.8,2.79-3.73,2.614-2.893-2.438-2.893-2.438" transform="translate(27.436 24.555)" fill="none" stroke="#263238" stroke-linecap="round" stroke-linejoin="round" stroke-width="1"/>
  <path id="Path_35938" data-name="Path 35938" d="M72.1,60.66a2.18,2.18,0,0,1,1.973-2.789,7.708,7.708,0,0,1,5.848,2.273" transform="translate(28.668 23.381)" fill="none" stroke="#263238" stroke-linecap="round" stroke-linejoin="round" stroke-width="2"/>
  <path id="Path_35939" data-name="Path 35939" d="M70.794,59.355a4.2,4.2,0,0,0-3.523-.7c-2.066.527-4.556,3.668-4.525,4.195" transform="translate(24.887 23.653)" fill="none" stroke="#263238" stroke-linecap="round" stroke-linejoin="round" stroke-width="2"/>
  <path id="Path_35940" data-name="Path 35940" d="M68.544,63.18c0,.868-.361,1.57-.9,1.57s-1.033-.7-1.033-1.57.362-1.57.888-1.57S68.5,62.312,68.544,63.18Z" transform="translate(26.466 24.911)" fill="#263238"/>
  <path id="Path_35941" data-name="Path 35941" d="M75.709,62.806c0,.868-.362,1.57-.888,1.57s-1.033-.7-1.033-1.57.362-1.57.888-1.57S75.668,61.938,75.709,62.806Z" transform="translate(29.395 24.759)" fill="#263238"/>
  <path id="Path_35942" data-name="Path 35942" d="M68.784,72.715s3.379,1.57,8.513-.7" transform="translate(27.352 29.159)" fill="none" stroke="#fff" stroke-linecap="round" stroke-linejoin="round" stroke-width="2"/>
  <path id="Path_35943" data-name="Path 35943" d="M59.958,83.326s5.166,17.791,10.714,29.486S80.621,132.7,80.621,132.7s8.358-28.091,8.317-37.194-.093-10.115-.093-10.115" transform="translate(23.749 33.777)" fill="none" stroke="#263238" stroke-linecap="round" stroke-linejoin="round" stroke-width="1"/>
  <path id="Path_35944" data-name="Path 35944" d="M82.338,136.142H71.687l-.775-17.792H81.553Z" transform="translate(28.221 48.075)" fill="#fff" stroke="#263238" stroke-linecap="round" stroke-linejoin="round" stroke-width="1"/>
  <path id="Path_35945" data-name="Path 35945" d="M140.338,254.059s5.579,4.535,9.587,5.754,6.106,1.922,5.239,3.843-3.668,2.614-11.862,2.79-9.773-1.57-12.914-2.449-7.5,0-8.9-1.735-.879-4.371-.879-7.159,12.047-4.009,15.188-2.966A22.876,22.876,0,0,1,140.338,254.059Z" transform="translate(48.473 102.541)" fill="#fff" stroke="#263238" stroke-linecap="round" stroke-linejoin="round" stroke-width="1"/>
  <path id="Path_35946" data-name="Path 35946" d="M129.487,255.874s5.237,5.579,9.6,8.018,6.8,4.194,5.755,5.413-4.36,2.79-13.091,1.922-10.466-2.8-14.65-5.765-6.106-2.614-7.5-4.185-1.4-5.063-1.4-5.063Z" transform="translate(43.444 104.217)" fill="#fff" stroke="#263238" stroke-linecap="round" stroke-linejoin="round" stroke-width="1"/>
  <path id="Path_35947" data-name="Path 35947" d="M156.729,165.195s-3.1,41.523-4.36,49.024-2.449,11.7-2.273,16.924,1.746,20.239-1.394,29.145-3.1,19.713-2.79,22.853,1.394,7.326,1.218,8.028-5.227,3.481-8.894,4.184a42.432,42.432,0,0,1-6.985.693,46.963,46.963,0,0,1-10.983,2.449c-5.237.351-12.4-1.219-12.4-1.219s0-12.915-.7-21.294-3.1-21.8-.176-31.925,2.273-15.5,2.066-18.845,0-18.317-.175-18.844-1.22-44.137-1.22-44.137,19.01,2.79,31.749,1.57,16.055-1.22,16.055-1.22S158.3,159.441,156.729,165.195Z" transform="translate(42.372 65.783)" fill="#263238" stroke="#263238" stroke-linecap="round" stroke-linejoin="round" stroke-width="1"/>
  <path id="Path_35948" data-name="Path 35948" d="M125.017,276.364a35.465,35.465,0,0,0-1.034-8.379c-1.034-3.481-1.229-15.868-.7-20.931s3.1-17.792,3.1-24.951.7-18.142.7-18.142" transform="translate(49.484 83.025)" fill="none" stroke="#fff" stroke-linecap="round" stroke-linejoin="round" stroke-width="1"/>
  <path id="Path_35949" data-name="Path 35949" d="M156.087,205.126l-19.877-.176c-.869,0-.869-13.256-.869-13.256Z" transform="translate(54.523 78.017)" fill="#fff" stroke="#263238" stroke-linecap="round" stroke-linejoin="round" stroke-width="1"/>
  <path id="Path_35950" data-name="Path 35950" d="M120.885,195.554s19.887,1.22,31.056-.7L148.1,100.989s-2.614-4.36-9.6-6.809-15.353,1.033-18.317,4.36-.869,96.663-.869,96.663Z" transform="translate(47.687 37.872)" fill="#fab915" stroke="#263238" stroke-linecap="round" stroke-linejoin="round" stroke-width="1"/>
  <path id="Path_35951" data-name="Path 35951" d="M128.31,94.162s-19.713,9.949-22.678,11.7-3.1,8.017-3.1,10.993.868,135.035.868,135.035a67.012,67.012,0,0,0,22.161-2.263,57.863,57.863,0,0,0,19.714-9.423l-3.316-71.009L138.238,106.9S135.986,89.626,128.31,94.162Z" transform="translate(41.129 37.891)" fill="#fff" stroke="#263238" stroke-linecap="round" stroke-linejoin="round" stroke-width="1"/>
  <path id="Path_35952" data-name="Path 35952" d="M128.133,89.356s-4.536.527-6.457,3.1a14.932,14.932,0,0,0-2.439,5.062l-1.746,15.7,5.932-1.4-2.966,6.975s2.966,8.73,6.282,16.055,8.2,22.326,8.2,22.326l-2.273-46.927s0-13.606-1.034-16.53S129.529,89.356,128.133,89.356Z" transform="translate(47.236 36.239)" fill="#fff" stroke="#263238" stroke-linecap="round" stroke-linejoin="round" stroke-width="1"/>
  <path id="Path_35953" data-name="Path 35953" d="M133.173,97.225l3.491,142.194,20.405,5.755-2.964-108.339s.527-27.894-1.22-31.759-17.44-11.685-19.01-11.479S133.173,97.225,133.173,97.225Z" transform="translate(53.541 37.969)" fill="#fff" stroke="#263238" stroke-linecap="round" stroke-linejoin="round" stroke-width="1"/>
  <path id="Path_35954" data-name="Path 35954" d="M133.375,91.1a9.047,9.047,0,0,1,5.93,4.711c1.746,3.833,6.281,15.7,6.281,15.7l-5.754.693,6.106,4.36-10.818,40.654-1.218-44-1.034-18.143S131.628,92.139,133.375,91.1Z" transform="translate(53.339 36.949)" fill="#fff" stroke="#263238" stroke-linecap="round" stroke-linejoin="round" stroke-width="1"/>
  <path id="Path_35955" data-name="Path 35955" d="M124.207,85.145s.7,5.062-.352,7.852,3.316,11.52,5.063,16.923,3.492,9.775,4.536,9.248,4.711-20.932,4.536-23.557,1.57-10.466,1.57-10.466S129.961,87.935,124.207,85.145Z" transform="translate(49.768 34.52)" fill="#fff" stroke="#263238" stroke-linecap="round" stroke-linejoin="round" stroke-width="1"/>
  <path id="Path_35956" data-name="Path 35956" d="M118.241,87.393A10.4,10.4,0,1,0,108.292,77,10.179,10.179,0,0,0,118.241,87.393Z" transform="translate(43.481 26.952)" fill="#263238" stroke="#263238" stroke-linecap="round" stroke-linejoin="round" stroke-width="1"/>
  <path id="Path_35957" data-name="Path 35957" d="M120.351,78.381s-1.746-4.536-3.843-2.79,0,5.579,1.57,7.852,4.536,1.219,4.194-1.033A8.761,8.761,0,0,0,120.351,78.381Z" transform="translate(46.475 30.456)" fill="#fff" stroke="#263238" stroke-linecap="round" stroke-linejoin="round" stroke-width="1"/>
  <path id="Path_35958" data-name="Path 35958" d="M138.158,76.158s.879-4.36,2.067-1.395a8.047,8.047,0,0,1-.352,7.325c-1.032,1.746-.867,1.57-1.218,0A53.925,53.925,0,0,1,138.158,76.158Z" transform="translate(55.673 29.86)" fill="#fff" stroke="#263238" stroke-linecap="round" stroke-linejoin="round" stroke-width="1"/>
  <path id="Path_35959" data-name="Path 35959" d="M117.242,76.3s3.316,16.045,5.413,19.888,9.072,10.332,15.353,7.676,9.775-7.5,9.775-13.431.867-13.431-.176-19.9a13.141,13.141,0,0,0-12.4-10.817c-5.589-.176-14.309,2.965-16.055,8.554A41.047,41.047,0,0,0,117.242,76.3Z" transform="translate(47.135 24.137)" fill="#fff" stroke="#263238" stroke-linecap="round" stroke-linejoin="round" stroke-width="1"/>
  <path id="Path_35960" data-name="Path 35960" d="M118.979,84.077s9.773-3.843,16.055-8.555,8.2-8.193,8.2-8.193,2.966,8.017,4.184,10.641,2.263,5.579,2.263,5.579,1.922-3.317,1.922-10.332-1.922-12.563-9.3-16.231-19.362-1.395-24.8,3.843-4.36,13.782-2.966,17.1A20.977,20.977,0,0,0,118.979,84.077Z" transform="translate(45.573 22.29)" fill="#263238" stroke="#263238" stroke-linecap="round" stroke-linejoin="round" stroke-width="1"/>
  <path id="Path_35961" data-name="Path 35961" d="M133.735,71.118s-1.032.176-1.032,3.316,1.032,8.369.867,9.071-2.066,2.79-3.307,1.57" transform="translate(52.451 28.793)" fill="none" stroke="#263238" stroke-linecap="round" stroke-linejoin="round" stroke-width="1"/>
  <path id="Path_35962" data-name="Path 35962" d="M127.154,83.715s4.536,1.922,10.331-1.57" transform="translate(51.181 33.294)" fill="none" stroke="#263238" stroke-linecap="round" stroke-linejoin="round" stroke-width="1"/>
  <path id="Path_35963" data-name="Path 35963" d="M133.229,70.987s3.677-1.4,6.1.7" transform="translate(53.661 28.552)" fill="none" stroke="#263238" stroke-linecap="round" stroke-linejoin="round" stroke-width="1"/>
  <path id="Path_35964" data-name="Path 35964" d="M131.625,71.494A10.537,10.537,0,0,0,122.2,73.24" transform="translate(49.159 28.769)" fill="none" stroke="#263238" stroke-linecap="round" stroke-linejoin="round" stroke-width="1"/>
  <path id="Path_35965" data-name="Path 35965" d="M127.708,75.509c0,1.033-.424,1.922-.951,1.922s-.962-.857-.962-1.922.424-1.911.962-1.911S127.708,74.455,127.708,75.509Z" transform="translate(50.626 29.805)" fill="#263238"/>
  <path id="Path_35966" data-name="Path 35966" d="M135.781,75.02c0,1.033-.434,1.922-.96,1.922s-.962-.857-.962-1.922.435-1.922.962-1.922S135.781,73.956,135.781,75.02Z" transform="translate(53.918 29.602)" fill="#263238"/>
  <path id="Path_35967" data-name="Path 35967" d="M148.267,126.414l-3.1-5.063c-.879-1.394-4.887-.867-6.809-.867a6.5,6.5,0,0,0-4.887,3.1c-.693,1.4-3.833,3.668-2.614,5.063s4.536.517,5.063.867,4.887,3.316,6.457,3.845a6,6,0,0,0,2.614.341Z" transform="translate(52.58 48.907)" fill="none" stroke="#263238" stroke-linecap="round" stroke-linejoin="round" stroke-width="1"/>
  <path id="Path_35968" data-name="Path 35968" d="M149.967,101.007a14.175,14.175,0,0,1,7.5,8.369c1.921,6.1,8.368,46.761,6.974,50.625s-4.877,6.8-10.983,4.711-15.5-12.046-15.5-12.046l7.326-18.318,5.755,2.966-1.22-16.4" transform="translate(55.592 40.995)" fill="#fff"/>
  <path id="Path_35969" data-name="Path 35969" d="M149.967,101.007a14.175,14.175,0,0,1,7.5,8.369c1.921,6.1,8.368,46.761,6.974,50.625s-4.877,6.8-10.983,4.711-15.5-12.046-15.5-12.046l7.326-18.318,5.755,2.966-1.22-16.4" transform="translate(55.592 40.995)" fill="none" stroke="#263238" stroke-linecap="round" stroke-linejoin="round" stroke-width="1"/>
  <path id="Path_35970" data-name="Path 35970" d="M147.227,126.773s9.246,5.413,10.124,7.336" transform="translate(59.375 51.514)" fill="none" stroke="#263238" stroke-linecap="round" stroke-linejoin="round" stroke-width="1"/>
  <path id="Path_35971" data-name="Path 35971" d="M148.683,109.429H115.012v47.113h33.671Z" transform="translate(46.224 44.433)" fill="#263238" stroke="#263238" stroke-linecap="round" stroke-linejoin="round" stroke-width="1"/>
  <path id="Path_35972" data-name="Path 35972" d="M126,135.054s6.448-3.492,8.369-5.415,2.273-2.066,3.316-2.066a56.2,56.2,0,0,0,7.676-.527c1.034-.351.527,2.066,0,2.614s-3.833,1.229-3.833,1.229,5.579-.527,5.755,1.22a2.8,2.8,0,0,1-.879,2.79l-.517.527s.517,3.657,0,5.4-1.57,2.273-3.843,2.614a37.646,37.646,0,0,1-9.07-.517c-1.746-.351-7.676.869-7.676.869Z" transform="translate(50.423 51.612)" fill="#fff" stroke="#263238" stroke-linecap="round" stroke-linejoin="round" stroke-width="1"/>
  <path id="Path_35973" data-name="Path 35973" d="M115.364,100.016s-10.332,2.263-12.047,3.307-7.5,42.577-8.72,49.593,10.817,8.379,14.464,9.773,30.386,3.45,30.386,3.45l.351-21.633L121.3,139.793l-.176-29.838" transform="translate(37.854 40.59)" fill="#fff"/>
  <path id="Path_35974" data-name="Path 35974" d="M115.364,100.016s-10.332,2.263-12.047,3.307-7.5,42.577-8.72,49.593,10.817,8.379,14.464,9.773,30.386,3.45,30.386,3.45l.351-21.633L121.3,139.793l-.176-29.838" transform="translate(37.854 40.59)" fill="none" stroke="#263238" stroke-linecap="round" stroke-linejoin="round" stroke-width="1"/>
  <path id="Path_35975" data-name="Path 35975" d="M118.84,128.8s-6.458-2.964-10.642-1.394-7.676,9.6-7.676,9.6" transform="translate(40.309 51.584)" fill="none" stroke="#263238" stroke-linecap="round" stroke-linejoin="round" stroke-width="1"/>
  <path id="Path_35976" data-name="Path 35976" d="M112.44,126.786s-6.1-.351-9.07.879a12.5,12.5,0,0,0-4.711,3.481" transform="translate(39.548 51.5)" fill="none" stroke="#263238" stroke-linecap="round" stroke-linejoin="round" stroke-width="1"/>
  <path id="Path_35977" data-name="Path 35977" d="M135.428,108.314H123.566v3.843h11.862Z" transform="translate(49.716 43.978)" fill="#fff" stroke="#263238" stroke-linecap="round" stroke-linejoin="round" stroke-width="1"/>
</svg>
