<svg id="Discount" xmlns="http://www.w3.org/2000/svg" width="18.81" height="18.81" viewBox="0 0 18.81 18.81">
  <path id="Fill_1" data-name="Fill 1" d="M9.4,18.81a2.826,2.826,0,0,1-2-.823L6.72,17.3a1.415,1.415,0,0,0-1-.413H4.754a2.836,2.836,0,0,1-2.832-2.832v-.967a1.419,1.419,0,0,0-.414-1l-.675-.674a2.836,2.836,0,0,1-.01-4l.687-.688a1.415,1.415,0,0,0,.413-1V4.755A2.836,2.836,0,0,1,4.754,1.922h.967a1.406,1.406,0,0,0,1-.415L7.4.833a2.835,2.835,0,0,1,4-.01l.687.687a1.408,1.408,0,0,0,1,.413h.967a2.836,2.836,0,0,1,2.832,2.833v.966a1.419,1.419,0,0,0,.414,1l.675.675a2.83,2.83,0,0,1,.019,3.994c-.009.009-.018.02-.027.028l-.668.668a1.415,1.415,0,0,0-.413,1v.966a2.836,2.836,0,0,1-2.832,2.832h-.967a1.415,1.415,0,0,0-1,.414l-.676.675A2.82,2.82,0,0,1,9.4,18.81" fill="#fab915" opacity="0.4"/>
  <path id="Combined_Shape" data-name="Combined Shape" d="M5.079,6.243A.847.847,0,0,1,4.9,5.978a.8.8,0,0,1-.058-.32A.8.8,0,0,1,4.9,5.337a1.124,1.124,0,0,1,.168-.255A.833.833,0,0,1,5.976,4.9a.739.739,0,0,1,.272.176.844.844,0,0,1,0,1.163.853.853,0,0,1-.582.242A.841.841,0,0,1,5.079,6.243Zm-4.833,0a.825.825,0,0,1,0-1.165L5.081.24A.823.823,0,0,1,6.244,1.405L1.409,6.24a.824.824,0,0,1-1.163,0Zm0-4.833A.825.825,0,0,1,0,.824.86.86,0,0,1,.239.246.747.747,0,0,1,.522.063a.805.805,0,0,1,.885.182A.862.862,0,0,1,1.589.5a.8.8,0,0,1-.186.9.8.8,0,0,1-.58.239A.85.85,0,0,1,.245,1.407Z" transform="translate(6.162 6.165)" fill="#fab915"/>
</svg>
