<svg width="24" height="24" viewBox="0 0 24 24" fill="none" xmlns="http://www.w3.org/2000/svg">
<g clip-path="url(#clip0_194_2004)">
<path d="M23.6252 0.56542C23.9199 0.775947 24.0404 1.05665 23.9868 1.40753L20.5583 21.6181C20.5136 21.8724 20.3708 22.0698 20.1297 22.2102C20.0047 22.2803 19.8663 22.3154 19.7145 22.3154C19.6163 22.3154 19.5092 22.2935 19.3931 22.2496L12.3351 19.4207L8.34399 23.7233C8.18328 23.9075 7.97346 23.9996 7.71453 23.9996C7.58953 23.9996 7.48685 23.9821 7.40649 23.947C7.23685 23.8856 7.10292 23.7825 7.00471 23.6378C6.90649 23.4931 6.85738 23.333 6.85738 23.1575V17.2102L0.535957 14.6707C0.205599 14.5479 0.027028 14.3066 0.000242305 13.947C-0.0265434 13.6049 0.116314 13.3461 0.428814 13.1707L22.7145 0.539105C23.027 0.354894 23.3306 0.363666 23.6252 0.56542ZM19.0449 20.2891L22.0047 2.88121L2.79935 13.7628L7.29935 15.5654L18.8574 7.15753L12.4556 17.6444L19.0449 20.2891Z" fill="white"/>
</g>
<defs>
<clipPath id="clip0_194_2004">
<rect width="24" height="24" fill="white"/>
</clipPath>
</defs>
</svg>
