<svg width="29" height="30" viewBox="0 0 29 30" fill="none" xmlns="http://www.w3.org/2000/svg">
<path d="M27.5838 14.549L15.3305 26.8023C13.8293 28.3034 11.7934 29.1468 9.67046 29.1468C7.54755 29.1468 5.51159 28.3034 4.01046 26.8023C2.50934 25.3012 1.66602 23.2652 1.66602 21.1423C1.66602 19.0194 2.50934 16.9834 4.01046 15.4823L16.2638 3.22898C17.2645 2.22823 18.6219 1.66602 20.0371 1.66602C21.4524 1.66602 22.8097 2.22823 23.8105 3.22898C24.8112 4.22973 25.3734 5.58704 25.3734 7.00231C25.3734 8.41759 24.8112 9.7749 23.8105 10.7756L11.5438 23.029C11.296 23.2767 11.0019 23.4733 10.6782 23.6074C10.3545 23.7415 10.0075 23.8105 9.65713 23.8105C9.30674 23.8105 8.95979 23.7415 8.63607 23.6074C8.31236 23.4733 8.01822 23.2767 7.77046 23.029C7.5227 22.7812 7.32617 22.4871 7.19208 22.1634C7.05799 21.8397 6.98898 21.4927 6.98898 21.1423C6.98898 20.7919 7.05799 20.445 7.19208 20.1213C7.32617 19.7975 7.5227 19.5034 7.77046 19.2556L19.0905 7.94898" stroke="#FAB915" stroke-width="1.5" stroke-linecap="round" stroke-linejoin="round"/>
</svg>
