<svg width="40" height="40" viewBox="0 0 40 40" fill="none" xmlns="http://www.w3.org/2000/svg">
<path d="M12.5002 13.3333C13.8262 13.3333 15.098 12.8065 16.0357 11.8688C16.9734 10.9311 17.5002 9.65933 17.5002 8.33325C17.5002 7.00717 16.9734 5.7354 16.0357 4.79772C15.098 3.86004 13.8262 3.33325 12.5002 3.33325C11.1741 3.33325 9.90231 3.86004 8.96463 4.79772C8.02695 5.7354 7.50016 7.00717 7.50016 8.33325C7.50016 9.65933 8.02695 10.9311 8.96463 11.8688C9.90231 12.8065 11.1741 13.3333 12.5002 13.3333ZM3.3335 17.9466C3.3335 16.3166 4.65183 14.9999 6.28016 14.9999H14.2252C13.6392 16.0129 13.3315 17.1629 13.3335 18.3333C13.3324 19.2792 13.5331 20.2146 13.9222 21.0768C14.3114 21.939 14.88 22.7083 15.5902 23.3333H13.7802C12.8408 23.3333 11.9239 23.6199 11.1517 24.1547C10.3795 24.6896 9.78879 25.4472 9.4585 26.3266C6.96183 25.7166 5.4135 24.3549 4.50183 22.8383C3.3335 20.8933 3.3335 18.8933 3.3335 18.5449V17.9466ZM26.6668 18.3333C26.6689 17.1629 26.3612 16.0129 25.7752 14.9999H33.7202C35.3502 14.9999 36.6668 16.3183 36.6668 17.9466V18.5466C36.6668 18.8916 36.6668 20.8933 35.5002 22.8383C34.5868 24.3549 33.0385 25.7166 30.5418 26.3266C30.2117 25.4471 29.6211 24.6893 28.8489 24.1544C28.0766 23.6195 27.1596 23.3331 26.2202 23.3333H24.4102C25.1203 22.7083 25.6889 21.939 26.0781 21.0768C26.4672 20.2146 26.668 19.2792 26.6668 18.3333ZM32.5002 8.33325C32.5002 9.65933 31.9734 10.9311 31.0357 11.8688C30.098 12.8065 28.8262 13.3333 27.5002 13.3333C26.1741 13.3333 24.9023 12.8065 23.9646 11.8688C23.0269 10.9311 22.5002 9.65933 22.5002 8.33325C22.5002 7.00717 23.0269 5.7354 23.9646 4.79772C24.9023 3.86004 26.1741 3.33325 27.5002 3.33325C28.8262 3.33325 30.098 3.86004 31.0357 4.79772C31.9734 5.7354 32.5002 7.00717 32.5002 8.33325ZM10.8335 27.9466C10.8335 26.3166 12.1518 24.9999 13.7802 24.9999H26.2202C27.8485 24.9999 29.1668 26.3183 29.1668 27.9466V28.5466C29.1668 28.8916 29.1668 30.8932 28.0002 32.8382C26.7618 34.8949 24.3552 36.6666 20.0002 36.6666C15.6452 36.6666 13.2368 34.8949 12.0002 32.8382C10.8335 30.8932 10.8335 28.8933 10.8335 28.5449V27.9466ZM20.0002 23.3333C20.6568 23.3333 21.307 23.2039 21.9136 22.9527C22.5202 22.7014 23.0714 22.3331 23.5357 21.8688C24 21.4045 24.3683 20.8533 24.6196 20.2467C24.8708 19.64 25.0002 18.9899 25.0002 18.3333C25.0002 17.6766 24.8708 17.0265 24.6196 16.4198C24.3683 15.8132 24 15.262 23.5357 14.7977C23.0714 14.3334 22.5202 13.9651 21.9136 13.7139C21.307 13.4626 20.6568 13.3333 20.0002 13.3333C18.6741 13.3333 17.4023 13.86 16.4646 14.7977C15.5269 15.7354 15.0002 17.0072 15.0002 18.3333C15.0002 19.6593 15.5269 20.9311 16.4646 21.8688C17.4023 22.8065 18.6741 23.3333 20.0002 23.3333Z" fill="#FAB915"/>
</svg>
