<svg id="Forgot" xmlns="http://www.w3.org/2000/svg" width="441.877" height="495.019" viewBox="0 0 441.877 495.019">
  <g id="freepik--background-complete--inject-35" transform="translate(2.155)">
    <rect id="Rectangle_147909" data-name="Rectangle 147909" width="28.818" height="12.178" transform="translate(16.074 373.206)" fill="#ebebeb"/>
    <rect id="Rectangle_147910" data-name="Rectangle 147910" width="28.818" height="12.178" transform="translate(0 388.562)" fill="#ebebeb"/>
    <rect id="Rectangle_147911" data-name="Rectangle 147911" width="28.818" height="12.178" transform="translate(32.148 388.562)" fill="#ebebeb"/>
    <rect id="Rectangle_147912" data-name="Rectangle 147912" width="28.818" height="12.178" transform="translate(392.687 47.711)" fill="#ebebeb"/>
    <rect id="Rectangle_147913" data-name="Rectangle 147913" width="28.818" height="12.178" transform="translate(408.761 63.066)" fill="#ebebeb"/>
    <rect id="Rectangle_147914" data-name="Rectangle 147914" width="28.818" height="12.178" transform="translate(0 47.732)" fill="#ebebeb"/>
    <rect id="Rectangle_147915" data-name="Rectangle 147915" width="28.818" height="12.178" transform="translate(437.59 385.286) rotate(180)" fill="#ebebeb"/>
    <rect id="Rectangle_147916" data-name="Rectangle 147916" width="28.818" height="12.178" transform="translate(368.777 244.974) rotate(180)" fill="#ebebeb"/>
    <rect id="Rectangle_147917" data-name="Rectangle 147917" width="28.818" height="12.178" transform="translate(384.851 229.618) rotate(180)" fill="#ebebeb"/>
    <rect id="Rectangle_147918" data-name="Rectangle 147918" width="1.088" height="116.458" transform="translate(47.036)" fill="#c7c7c7"/>
    <path id="Path_36187" data-name="Path 36187" d="M136.4,144.608l-3.254,7.15H58.763l-3.243-7.15L87.189,122.69h17.543Z" transform="translate(-48.381 10.832)" fill="#ebebeb"/>
    <path id="Path_36188" data-name="Path 36188" d="M104.54,103.29l-2.2,21.113H84.8L82.6,103.29Z" transform="translate(-45.99 9.119)" fill="#dbdbdb"/>
    <path id="Path_36189" data-name="Path 36189" d="M136.391,142.84l-3.254,7.15H58.752l-3.232-7.15Z" transform="translate(-48.381 12.611)" fill="#dbdbdb"/>
    <rect id="Rectangle_147919" data-name="Rectangle 147919" width="1.088" height="93.397" transform="translate(124.435)" fill="#c7c7c7"/>
    <path id="Path_36190" data-name="Path 36190" d="M207.522,123.418l-3.254,7.15H129.883l-3.243-7.15L158.309,101.5h17.543Z" transform="translate(-42.102 8.961)" fill="#ebebeb"/>
    <path id="Path_36191" data-name="Path 36191" d="M175.66,82.09l-2.2,21.124H155.918l-2.2-21.124Z" transform="translate(-39.711 7.248)" fill="#dbdbdb"/>
    <path id="Path_36192" data-name="Path 36192" d="M207.522,121.64l-3.254,7.15H129.883l-3.243-7.15Z" transform="translate(-42.102 10.739)" fill="#dbdbdb"/>
  </g>
  <g id="freepik--Shadow--inject-35" transform="translate(5.126 443.26)">
    <path id="Path_36193" data-name="Path 36193" d="M483.327,433.179c0,14.3-96.618,25.879-215.818,25.879S51.69,447.48,51.69,433.179,148.308,407.3,267.508,407.3,483.327,418.879,483.327,433.179Z" transform="translate(-51.69 -407.3)" fill="#ebebeb"/>
  </g>
  <g id="freepik--Plant--inject-35" transform="translate(343.973 299.775)">
    <path id="Path_36194" data-name="Path 36194" d="M409.445,299.7a42.769,42.769,0,0,1-.838,16.5,45.124,45.124,0,0,1-2.525,7.292c-1.317,3.025-2.688,5.964-2.351,9.272.316.207-.773.174-.816-.141-8.826-5.028-20.144-5.953-26.935-14.148a28.3,28.3,0,0,1-5.6-13.756c-.838-5.376-1.088-11.318.316-16.607,1.164-4.44,3.787-8.793,8.042-10.97s10.034-2.068,14.6-.653C403.144,279.52,408.052,290.2,409.445,299.7Z" transform="translate(-362.461 -275.455)" fill="#fab915"/>
    <path id="Path_36195" data-name="Path 36195" d="M413.369,364.24q-1.8-6.018-3.646-12.026c-2.416-7.847-4.93-15.66-7.727-23.387q-2.5-6.932-5.278-13.745a84.159,84.159,0,0,1,1.088-8.532c.74-3.417,1.807-6.726,2.808-10.067.065-.207-.272-.316-.359-.12-1.981,4.614-4.571,10.513-4.625,15.976q-3.265-7.705-6.943-15.182a64.756,64.756,0,0,1,.327-12.646.152.152,0,0,0-.294-.054,44.925,44.925,0,0,0-.871,11.155q-2.84-5.616-6.018-11.09c-.2-.326-.642,0-.479.337,3.319,6.388,6.388,12.907,9.283,19.513a42.356,42.356,0,0,0-13.843-8.01c-.218-.087-.381.239-.163.326A50.355,50.355,0,0,1,391.6,306.6q3.1,7.248,5.931,14.627c-5.528-5.441-13.059-8.978-20.395-10.883-.25-.065-.316.316-.076.381,8.467,2.547,15.029,7.346,21.472,13.059.74,1.992,1.48,3.983,2.177,5.975q4.081,11.34,7.781,22.854,1.785,5.441,3.5,11.013c1.23,3.961,2.177,8.14,3.809,11.971.152.359.805.283.718-.163a113.184,113.184,0,0,0-3.156-11.2Z" transform="translate(-361.858 -274.669)" fill="#263238"/>
    <path id="Path_36196" data-name="Path 36196" d="M397.188,290.639a22.1,22.1,0,0,0-3.178,7.923c0,.076.1.12.131,0a67.711,67.711,0,0,1,3.439-7.77C397.721,290.574,397.34,290.41,397.188,290.639Z" transform="translate(-360.314 -274.125)" fill="#263238"/>
    <path id="Path_36197" data-name="Path 36197" d="M383.108,307.746a23.158,23.158,0,0,0-7.912-2.666c-.076,0-.12.1,0,.131,1.273.522,2.612.892,3.9,1.393s2.557,1.088,3.863,1.556a.229.229,0,0,0,.152-.414Z" transform="translate(-361.982 -272.84)" fill="#263238"/>
    <path id="Path_36198" data-name="Path 36198" d="M378.612,287.339a15.465,15.465,0,0,0-2.547-1.578.141.141,0,0,0-.152.228,15.982,15.982,0,0,0,2.514,1.622C378.59,287.709,378.775,287.437,378.612,287.339Z" transform="translate(-361.915 -274.546)" fill="#263238"/>
    <path id="Path_36199" data-name="Path 36199" d="M435.779,329.189c-6.356,1.883-12.744,3.624-19.1,5.5-.555.163-11.3-20.427-7.411-31.038a34.564,34.564,0,0,1,21.6-20.471c4.538-1.545,10.11-2.84,14.91-1.785,4.266.947,7.27,4.429,8.706,8.445,1.883,5.441,1.252,11.971.229,17.511a30.571,30.571,0,0,1-6.258,14.289C445.041,325.619,440.731,327.72,435.779,329.189Z" transform="translate(-359.042 -274.965)" fill="#fab915"/>
    <path id="Path_36200" data-name="Path 36200" d="M445.048,308.587a83.6,83.6,0,0,1-12.472,4.908,52.5,52.5,0,0,0-8.315,3.015c2.688-5.986,5.626-11.841,8.761-17.652,4.1-1.186,8.423-3.036,11.514-5.942a.178.178,0,1,0-.229-.272c-3.385,2.394-7.128,3.831-10.883,5.441.849-1.567,1.7-3.123,2.568-4.68.239-.435-.348-.86-.642-.446a134.026,134.026,0,0,0-9.033,15.171,68.934,68.934,0,0,1-.653-13.9c0-.12-.163-.131-.185,0a46.393,46.393,0,0,0,.152,15.236c-2.177,4.451-4.255,9.011-6.084,13.625-.718-2.775-1.665-5.507-2.3-8.3a38.252,38.252,0,0,1-.914-12.232c0-.12-.163-.131-.185,0a43.194,43.194,0,0,0,2.775,22.484c-1.088,2.775-2.079,5.561-3,8.358a166.507,166.507,0,0,0-8.445,44.1.272.272,0,1,0,.544,0,218.564,218.564,0,0,1,9.468-43.531c1.839-5.539,3.961-10.883,6.29-16.2,3.755-1.088,7.5-2.612,11.188-3.885a35.226,35.226,0,0,0,10.306-5.061.162.162,0,1,0-.229-.228Z" transform="translate(-359.125 -273.941)" fill="#263238"/>
    <path id="Path_36201" data-name="Path 36201" d="M448.407,301.8c-3.885,1.382-7.618,3.319-11.449,4.723-.185.065-.076.348.1.316,4.114-.849,8.184-2.122,11.5-4.821C448.679,301.921,448.548,301.746,448.407,301.8Z" transform="translate(-356.531 -273.13)" fill="#263238"/>
    <path id="Path_36202" data-name="Path 36202" d="M418.428,294.108c.054-.207-.25-.326-.316-.109-1.088,3.58-1.8,7.389-.762,11.046,0,.141.272.152.272,0C417.808,301.334,417.6,297.743,418.428,294.108Z" transform="translate(-358.298 -273.828)" fill="#263238"/>
    <path id="Path_36203" data-name="Path 36203" d="M433.2,286.5a9.555,9.555,0,0,0-1.687,6.094c0,.131.229.207.261.054.479-2.057,1.273-3.918,1.9-5.909a.272.272,0,0,0-.479-.239Z" transform="translate(-357.005 -274.49)" fill="#263238"/>
    <path id="Path_36204" data-name="Path 36204" d="M364.182,334.656c1.861,5.92,6.29,14.093,13.3,14.148,4.549,0,9.12-.5,13.68-.566,4.876-.076,9.795-.065,14.637.229.4,0-.588-14.616-12.309-21.766-3.265-2-7.3-2.634-11.035-3.439a51.041,51.041,0,0,0-13.059-1.36c-2.7.109-4.941.675-5.9,3.439S363.279,331.8,364.182,334.656Z" transform="translate(-363.048 -271.356)" fill="#fab915"/>
    <path id="Path_36205" data-name="Path 36205" d="M368.75,327.047c2.851.729,5.724,1.578,8.587,2.481a31.544,31.544,0,0,0-2.362-2.307c-1.23-1.012-2.579-1.828-3.9-2.732-.109-.065,0-.283.1-.229a16.03,16.03,0,0,1,6.911,5.507c3.57,1.143,7.1,2.416,10.491,3.809a40.268,40.268,0,0,1,6.726,3.537,27.111,27.111,0,0,0-2.438-4.223c-1.556-2.024-3.657-3.145-5.692-4.571a.185.185,0,0,1,.185-.316,16.694,16.694,0,0,1,9.142,9.914,39.419,39.419,0,0,1,6.649,6.04c7.759,8.815,13.876,20.547,13.9,32.507,0,.283-.457.37-.512.065a66.386,66.386,0,0,0-14.8-31.778,25.072,25.072,0,0,0-1.709-1.861,52.418,52.418,0,0,0-6.41-.479c-2.492,0-4.973.37-7.455.566-4.092.337-8.619.381-12.319-1.676-.163-.087,0-.37.131-.3,8.238,2.993,16.868-.805,25.118.979a38.526,38.526,0,0,0-12.167-7.847l-.762-.3c-5.278.631-10.883,2.013-16,.294a.124.124,0,1,1,.065-.239c4.973,1.241,9.74-.326,14.648-.577-5.344-2.079-10.8-3.733-16.15-5.8C368.271,327.33,368.26,326.916,368.75,327.047Z" transform="translate(-362.577 -271.147)" fill="#263238"/>
    <path id="Path_36206" data-name="Path 36206" d="M366.59,331.6a72.779,72.779,0,0,0,7.694.588.049.049,0,1,1,0,.1,15.911,15.911,0,0,1-7.76-.49C366.405,331.763,366.471,331.578,366.59,331.6Z" transform="translate(-362.746 -270.499)" fill="#263238"/>
    <path id="Path_36207" data-name="Path 36207" d="M382.563,326.94a12.548,12.548,0,0,1,3.809,2.645.159.159,0,0,1-.2.25c-.642-.468-1.306-.914-1.981-1.339a21.333,21.333,0,0,1-1.85-1.175.229.229,0,0,1,.218-.381Z" transform="translate(-361.35 -270.91)" fill="#263238"/>
    <path id="Path_36208" data-name="Path 36208" d="M420.591,345.966c-.087.185.2.37.3.163h0a.283.283,0,0,0,.185.12,118.76,118.76,0,0,0,14.322,2.5c3.874.348,8.347.555,11.743-1.687,4.6-3.058,7.618-11.209,5.137-16.39-2.938-6.149-11.808-2.808-16.259-.62a32.649,32.649,0,0,0-15.432,15.911Z" transform="translate(-357.969 -270.89)" fill="#fab915"/>
    <path id="Path_36209" data-name="Path 36209" d="M418.594,348.516a45.439,45.439,0,0,1,8.554-6.53,29.385,29.385,0,0,1,8.706-8.848c.174-.12.316.152.163.272a39.407,39.407,0,0,0-7.313,7.683,80.185,80.185,0,0,1,10.73-4.876,14.312,14.312,0,0,1,5.768-5.779s.109,0,.065.076a23.626,23.626,0,0,0-5.213,5.441c2.177-.805,4.353-1.567,6.584-2.3.2-.065.272.239.087.3-3.918,1.534-7.923,3.145-11.808,5.006a45.351,45.351,0,0,0,14.3,0c.131,0,.185.163,0,.2a28.165,28.165,0,0,1-15.171.229,71.231,71.231,0,0,0-7.194,4.027,17.879,17.879,0,0,1,5.811.479,44.325,44.325,0,0,0,10.219,1.154.12.12,0,0,1,0,.239c-5.931,1.012-11.536-1.676-17.413-.979a44.957,44.957,0,0,0-6.116,5.006,45.71,45.71,0,0,0-8.924,12.592c-2.481,5.039-3.82,10.371-5.822,15.573a.186.186,0,1,1-.359-.1C406.014,367.137,411.118,355.83,418.594,348.516Z" transform="translate(-359.411 -270.601)" fill="#263238"/>
    <path id="Path_36210" data-name="Path 36210" d="M433.861,334.375a6.879,6.879,0,0,1,1.524-1.839,5.726,5.726,0,0,1,1.752-1.306c.054,0,.087,0,.054.1-.49.544-1.164.958-1.687,1.48s-.969,1.154-1.5,1.676a.089.089,0,0,1-.141-.109Z" transform="translate(-356.797 -270.531)" fill="#263238"/>
    <path id="Path_36211" data-name="Path 36211" d="M442.859,337.146c.882-.218,1.807-.207,2.7-.392a24.236,24.236,0,0,0,2.623-.784.109.109,0,0,1,.087.2,8.706,8.706,0,0,1-5.441,1.251C442.717,337.4,442.728,337.178,442.859,337.146Z" transform="translate(-356.011 -270.113)" fill="#263238"/>
    <path id="Path_36212" data-name="Path 36212" d="M394.98,361.97l.773,8.837,2.645,29.841h23.376l3.3-29.841.969-8.837Z" transform="translate(-360.229 -267.817)" fill="#455a64"/>
    <path id="Path_36213" data-name="Path 36213" d="M394.98,361.97l.773,8.837h29.318l.969-8.837Z" transform="translate(-360.229 -267.817)" fill="#263238"/>
    <rect id="Rectangle_147920" data-name="Rectangle 147920" width="35.696" height="7.172" transform="translate(68.14 98.909) rotate(180)" fill="#455a64"/>
  </g>
  <g id="freepik--Floor--inject-35" transform="translate(0 431.996)">
    <path id="Path_36214" data-name="Path 36214" d="M46.98,397.483l55.241-.261,55.231-.1,110.472-.174,110.472.174,55.231.1,55.231.261-55.231.272-55.231.1-110.472.174-110.472-.174-55.231-.1Z" transform="translate(-46.98 -396.95)" fill="#263238"/>
  </g>
  <g id="freepik--Screen--inject-35" transform="translate(169.626 59.312)">
    <path id="Path_36215" data-name="Path 36215" d="M401.289,76.028V428.7c0,9.969-7.466,18.033-16.673,18.033H220.024c-9.229,0-16.694-8.064-16.694-18.033V76.028c0-20.307,7.466-21.3,16.694-21.3h33.008c1.915,0,3.482,2.177,3.482,4.876V60.77c0,6.323,3.461,6.345,7.705,6.345h76.245c4.288,0,7.727,0,7.727-6.345V59.606c0-2.7,1.545-4.876,3.493-4.876H384.65C393.824,54.73,401.289,57.429,401.289,76.028Z" transform="translate(-202.802 -54.479)" fill="#fff"/>
    <path id="Path_36216" data-name="Path 36216" d="M401.289,76.028V428.7c0,9.969-7.466,18.033-16.673,18.033H220.024c-9.229,0-16.694-8.064-16.694-18.033V76.028c0-20.307,7.466-21.3,16.694-21.3h33.008c1.915,0,3.482,2.177,3.482,4.876V60.77c0,6.323,3.461,6.345,7.705,6.345h76.245c4.288,0,7.727,0,7.727-6.345V59.606c0-2.7,1.545-4.876,3.493-4.876H384.65C393.824,54.73,401.289,57.429,401.289,76.028Z" transform="translate(-202.802 -54.479)" fill="#fff"/>
    <path id="Path_36217" data-name="Path 36217" d="M401.332,76.048l.272,292.314V427.75a25.337,25.337,0,0,1-.337,4.614,19.153,19.153,0,0,1-3.8,8.38,18.8,18.8,0,0,1-3.341,3.265,17.881,17.881,0,0,1-4.1,2.177,15.6,15.6,0,0,1-4.56.925c-1.556.1-3.058,0-4.582.054H326.121l-73.068.076H221.079a19.893,19.893,0,0,1-4.658-.414,16.542,16.542,0,0,1-8.086-4.571,18.849,18.849,0,0,1-4.712-8.01,20.2,20.2,0,0,1-.74-4.625c-.087-1.567,0-3.058,0-4.593V415.9l.272-292.314V77.9a75.582,75.582,0,0,1,.414-9.142l.348-2.274.522-2.242c.218-.729.49-1.458.74-2.177a21.461,21.461,0,0,1,1.088-2.057,10.883,10.883,0,0,1,3.167-3.363,12.722,12.722,0,0,1,4.353-1.665,51.64,51.64,0,0,1,9.152-.435h29.59a3.972,3.972,0,0,1,1.175.087,3.1,3.1,0,0,1,1.088.522,5.518,5.518,0,0,1,1.883,4.244,14.954,14.954,0,0,0,.4,4.484,4.027,4.027,0,0,0,1.088,1.861,4.353,4.353,0,0,0,1.937.99,20.09,20.09,0,0,0,4.516.294H342.26A6.66,6.66,0,0,0,346.5,65.8a4.168,4.168,0,0,0,1.251-1.872,8.556,8.556,0,0,0,.381-2.177c0-.751,0-1.513,0-2.275a6.41,6.41,0,0,1,.468-2.253,4.462,4.462,0,0,1,1.349-1.85,3.069,3.069,0,0,1,1.023-.533,4.135,4.135,0,0,1,1.154-.087H384.1a33.619,33.619,0,0,1,4.56.25,12.744,12.744,0,0,1,8.064,3.765,16.956,16.956,0,0,1,3.809,8.249,49.847,49.847,0,0,1,.794,9.033Zm0,0a49.865,49.865,0,0,0-.816-9.087,16.978,16.978,0,0,0-3.787-8.173,12.744,12.744,0,0,0-8.075-3.744,33.431,33.431,0,0,0-4.549-.229h-32a4.266,4.266,0,0,0-1.088.1,3.178,3.178,0,0,0-.99.511,4.354,4.354,0,0,0-1.306,1.8c-.631,1.4-.392,2.96-.49,4.484a8.979,8.979,0,0,1-.392,2.264,4.353,4.353,0,0,1-1.175,1.959,6.747,6.747,0,0,1-4.353,1.273h-77.66a20.9,20.9,0,0,1-4.582-.3,4.713,4.713,0,0,1-2.09-1.088,4.353,4.353,0,0,1-1.208-1.992,15.889,15.889,0,0,1-.435-4.418,5.191,5.191,0,0,0-1.763-3.907,3.188,3.188,0,0,0-.969-.468,4.43,4.43,0,0,0-1.088-.076H222.842a52.477,52.477,0,0,0-9.076.446A12.57,12.57,0,0,0,209.609,57a10.513,10.513,0,0,0-3.036,3.265c-.392.631-.675,1.339-1.012,2a11.579,11.579,0,0,0-.707,2.177l-.522,2.177L204,68.865a72.372,72.372,0,0,0-.4,9.087v45.675l.272,292.314v13.669a19.305,19.305,0,0,0,.7,4.353A17.75,17.75,0,0,0,209,441.582a15.6,15.6,0,0,0,7.618,4.353,19.089,19.089,0,0,0,4.418.4h32.039l73.068.076H385.5a14.964,14.964,0,0,0,4.353-.882,16.444,16.444,0,0,0,3.94-2.079,18.055,18.055,0,0,0,3.21-3.1,18.5,18.5,0,0,0,3.689-8.075,25.73,25.73,0,0,0,.326-4.495V368.417Z" transform="translate(-202.844 -54.5)" fill="#263238"/>
    <path id="Path_36218" data-name="Path 36218" d="M401.289,76.028v42.28H203.33V76.028c0-20.307,7.466-21.3,16.694-21.3h33.008c1.915,0,3.482,2.177,3.482,4.876V60.77c0,6.323,3.461,6.345,7.705,6.345h76.245c4.288,0,7.727,0,7.727-6.345V59.606c0-2.7,1.545-4.876,3.493-4.876H384.65C393.824,54.73,401.289,57.429,401.289,76.028Z" transform="translate(-202.802 -54.479)" fill="#fab915"/>
    <g id="freepik--u5Zjqx--inject-35" transform="translate(37.378 6.715)">
      <path id="Path_36219" data-name="Path 36219" d="M244.318,62.117l-.326.316-.174.185a4.353,4.353,0,0,0-6.149,0l-.163-.185-.316-.316h0c.131-.12.261-.239.4-.348a4.941,4.941,0,0,1,2.177-1.012,1.533,1.533,0,0,0,.62-.087h.958a5.05,5.05,0,0,1,1.088.272,4.866,4.866,0,0,1,.762.359,5.944,5.944,0,0,1,.74.511l.337.3Z" transform="translate(-237.19 -60.67)" fill="#fff"/>
      <path id="Path_36220" data-name="Path 36220" d="M238.6,63.517l-.5-.5a3.613,3.613,0,0,1,5.126,0l-.5.5a2.917,2.917,0,0,0-4.125,0Z" transform="translate(-237.11 -60.557)" fill="#fff"/>
      <path id="Path_36221" data-name="Path 36221" d="M242.148,63.906l-.5.5a1.578,1.578,0,0,0-2.177,0l-.5-.5a2.177,2.177,0,0,1,3.178,0Z" transform="translate(-237.033 -60.445)" fill="#fff"/>
      <path id="Path_36222" data-name="Path 36222" d="M240.949,64.768a.446.446,0,0,1-.446.446.457.457,0,1,1,0-.9.446.446,0,0,1,.446.457Z" transform="translate(-236.944 -60.349)" fill="#fff"/>
    </g>
    <path id="Path_36223" data-name="Path 36223" d="M215.19,63a1.317,1.317,0,1,1,1.317,1.317A1.317,1.317,0,0,1,215.19,63Z" transform="translate(-201.754 -53.866)" fill="#fff"/>
    <path id="Path_36224" data-name="Path 36224" d="M219,63a1.306,1.306,0,1,1,.379.93A1.317,1.317,0,0,1,219,63Z" transform="translate(-201.418 -53.866)" fill="#fff"/>
    <path id="Path_36225" data-name="Path 36225" d="M222.79,63a1.306,1.306,0,1,1,.382.934A1.317,1.317,0,0,1,222.79,63Z" transform="translate(-201.083 -53.866)" fill="#fff"/>
    <path id="Path_36226" data-name="Path 36226" d="M226.58,63a1.317,1.317,0,1,1,1.317,1.317A1.317,1.317,0,0,1,226.58,63Z" transform="translate(-200.749 -53.866)" fill="#fff"/>
    <path id="Path_36227" data-name="Path 36227" d="M230.38,63a1.317,1.317,0,1,1,1.317,1.317A1.317,1.317,0,0,1,230.38,63Z" transform="translate(-200.413 -53.866)" fill="#fff"/>
    <path id="Path_36228" data-name="Path 36228" d="M372.457,65.919H361.77V61h10.687Zm-10.143-.544h9.6V61.522h-9.6Z" transform="translate(-188.813 -53.926)" fill="#fff"/>
    <rect id="Rectangle_147921" data-name="Rectangle 147921" width="6.889" height="3.265" transform="translate(173.849 7.891)" fill="#fff"/>
    <rect id="Rectangle_147922" data-name="Rectangle 147922" width="0.947" height="2.645" transform="translate(183.644 8.206)" fill="#fff"/>
    <path id="Path_36229" data-name="Path 36229" d="M220.384,103.358l-5.844-5.474,5.844-5.474.9.958-4.81,4.516,4.81,4.516Z" transform="translate(-201.812 -51.152)" fill="#fff"/>
    <path id="Path_36230" data-name="Path 36230" d="M270.715,98.487h-1.262v2.231a.577.577,0,0,1-1.143,0V94.656a.566.566,0,0,1,.566-.566h1.839a2.177,2.177,0,0,1,0,4.353ZM269.453,97.4h1.262a1.088,1.088,0,1,0,0-2.111h-1.262Z" transform="translate(-197.065 -51.004)" fill="#fff"/>
    <path id="Path_36231" data-name="Path 36231" d="M276.852,99.583H274.36l-.5,1.339a.6.6,0,0,1-.533.359.523.523,0,0,1-.2,0,.577.577,0,0,1-.337-.74l2.264-6.051a.588.588,0,0,1,1.088,0l2.318,6.029a.577.577,0,0,1-.337.74.522.522,0,0,1-.2,0,.577.577,0,0,1-.522-.359Zm-.424-1.088-.827-2.177-.838,2.177Z" transform="translate(-196.672 -51.001)" fill="#fff"/>
    <path id="Path_36232" data-name="Path 36232" d="M278.889,99.5a.544.544,0,0,1,.751-.065,3.265,3.265,0,0,0,1.959.784,2.3,2.3,0,0,0,1.284-.37.936.936,0,0,0,.435-.74.675.675,0,0,0-.087-.337,1.088,1.088,0,0,0-.316-.3,3.94,3.94,0,0,0-1.4-.479h0a5.833,5.833,0,0,1-1.317-.4,2.177,2.177,0,0,1-.958-.794,1.611,1.611,0,0,1-.239-.849,1.883,1.883,0,0,1,.827-1.491,3.036,3.036,0,0,1,1.774-.544,4.027,4.027,0,0,1,2.177.816.533.533,0,0,1,.152.729.522.522,0,0,1-.729.152,2.993,2.993,0,0,0-1.654-.653,1.959,1.959,0,0,0-1.154.348.827.827,0,0,0-.392.642.49.49,0,0,0,.076.294.958.958,0,0,0,.283.261,3.537,3.537,0,0,0,1.273.457h0a5.681,5.681,0,0,1,1.415.424,2.438,2.438,0,0,1,1.034.86,1.632,1.632,0,0,1,.239.871,1.992,1.992,0,0,1-.882,1.589,3.189,3.189,0,0,1-1.894.588,4.419,4.419,0,0,1-2.634-1.088.555.555,0,0,1-.022-.7Z" transform="translate(-196.141 -51.02)" fill="#fff"/>
    <path id="Path_36233" data-name="Path 36233" d="M285.087,99.5a.533.533,0,0,1,.74-.065,3.374,3.374,0,0,0,1.97.784,2.231,2.231,0,0,0,1.273-.37.925.925,0,0,0,.446-.74.587.587,0,0,0-.1-.337,1,1,0,0,0-.3-.3,3.94,3.94,0,0,0-1.4-.479h0a5.66,5.66,0,0,1-1.317-.4,2.176,2.176,0,0,1-.958-.794,1.611,1.611,0,0,1-.239-.849,1.883,1.883,0,0,1,.827-1.491,3.014,3.014,0,0,1,1.774-.544,4.027,4.027,0,0,1,2.231.816.533.533,0,0,1-.588.882,2.96,2.96,0,0,0-1.643-.653,1.959,1.959,0,0,0-1.154.348.827.827,0,0,0-.392.642.49.49,0,0,0,.076.294,1.088,1.088,0,0,0,.272.261,3.679,3.679,0,0,0,1.284.457h0a5.833,5.833,0,0,1,1.415.424,2.34,2.34,0,0,1,1.023.86,1.545,1.545,0,0,1,.25.871,1.992,1.992,0,0,1-.882,1.589,3.189,3.189,0,0,1-1.894.588,4.419,4.419,0,0,1-2.634-1.088.544.544,0,0,1-.076-.7Z" transform="translate(-195.592 -51.02)" fill="#fff"/>
    <path id="Path_36234" data-name="Path 36234" d="M300.8,94.945l-2.514,5.975a.272.272,0,0,1,0,.1h0l-.054.065h-.076a.185.185,0,0,1-.087.065h-.4a.262.262,0,0,1-.087-.065H297.5v-.065h0a.271.271,0,0,1,0-.1l-1.339-3.178-1.349,3.178v.1l-.054.065h-.065l-.076.065H294.2a.262.262,0,0,1-.087-.065h-.076l-.054-.065h0a.69.69,0,0,0,0-.1L291,94.945a.586.586,0,0,1,1.088-.435l2.013,4.756,1.328-3.156a.555.555,0,0,1,.533-.348.6.6,0,0,1,.479.4l1.317,3.156,2-4.756a.566.566,0,0,1,.751-.294A.544.544,0,0,1,300.8,94.945Z" transform="translate(-195.065 -51)" fill="#fff"/>
    <path id="Path_36235" data-name="Path 36235" d="M307.1,95a3.787,3.787,0,0,1,0,5.2,3.385,3.385,0,0,1-2.449,1.088,3.461,3.461,0,0,1-2.514-1.088,3.82,3.82,0,0,1,0-5.2,3.407,3.407,0,0,1,2.514-1.088A3.33,3.33,0,0,1,307.1,95Zm-.131,2.6a2.71,2.71,0,0,0-.7-1.8,2.177,2.177,0,0,0-3.265,0,2.6,2.6,0,0,0-.7,1.8,2.536,2.536,0,0,0,.7,1.785,2.177,2.177,0,0,0,3.265,0A2.634,2.634,0,0,0,306.965,97.6Z" transform="translate(-194.169 -51.02)" fill="#fff"/>
    <path id="Path_36236" data-name="Path 36236" d="M314.186,100.424a.566.566,0,0,1-.359.718.86.86,0,0,1-.229,0h0a.828.828,0,0,1-.4-.109,1.154,1.154,0,0,1-.327-.359,2.852,2.852,0,0,1-.207-1.23.838.838,0,0,0-.131-.446.882.882,0,0,0-.3-.294,1.774,1.774,0,0,0-.577-.25h-1.208v2.231a.577.577,0,0,1-.577.566.566.566,0,0,1-.566-.566V94.656a.566.566,0,0,1,.566-.566h1.839a2.177,2.177,0,0,1,1.393,3.9,1.5,1.5,0,0,1,.359.381,1.915,1.915,0,0,1,.337,1.088,2.37,2.37,0,0,0,0,.6.566.566,0,0,1,.392.37ZM312.75,96.3a1.088,1.088,0,0,0-1.088-1.088H310.4v2.111h1.262A1.088,1.088,0,0,0,312.75,96.3Z" transform="translate(-193.446 -51.004)" fill="#fff"/>
    <path id="Path_36237" data-name="Path 36237" d="M315.32,100.718V94.656a.566.566,0,0,1,.566-.566h1.262a3.6,3.6,0,0,1,0,7.194H315.94a.566.566,0,0,1-.62-.566Zm1.143-.577h.686a2.46,2.46,0,0,0,0-4.908h-.631Z" transform="translate(-192.914 -51.004)" fill="#fff"/>
    <path id="Path_36238" data-name="Path 36238" d="M228.71,271.4V266.9a.414.414,0,0,1,.424-.424h2.492a.424.424,0,0,1,.414.424.435.435,0,0,1-.414.424h-2.068v1.393h1.774a.424.424,0,0,1,0,.849h-1.774v1.4h2.068a.424.424,0,0,1,0,.838h-2.492a.414.414,0,0,1-.424-.414Z" transform="translate(-200.561 -35.784)" fill="#263238"/>
    <path id="Path_36239" data-name="Path 36239" d="M235.976,269.5v1.828a.4.4,0,0,1-.414.4.414.414,0,0,1-.4-.4V269.5a.794.794,0,0,0-.794-.762.773.773,0,0,0-.762.784v1.807a.469.469,0,0,1,0,.054h0v.054h0a.424.424,0,0,1-.381.239h-.076a.414.414,0,0,1-.326-.4v-1.807h0v-1.132a.4.4,0,0,1,.4-.414.37.37,0,0,1,.359.229,1.676,1.676,0,0,1,.816-.229,1.61,1.61,0,0,0,2.394,0,1.589,1.589,0,0,1,1.589,1.6v1.807a.4.4,0,0,1-.4.4.414.414,0,0,1-.414-.4V269.52a.784.784,0,0,0-1.556,0Z" transform="translate(-200.198 -35.657)" fill="#263238"/>
    <path id="Path_36240" data-name="Path 36240" d="M242.7,269.835v1.491a.4.4,0,0,1-.4.4.414.414,0,0,1-.4-.326,1.763,1.763,0,0,1-2.307-.229,1.976,1.976,0,0,1,0-2.677,1.763,1.763,0,0,1,1.3-.577,1.741,1.741,0,0,1,1.012.337.424.424,0,0,1,.4-.337.414.414,0,0,1,.4.414Zm-.816,0a1.088,1.088,0,0,0-.294-.784.936.936,0,0,0-.707-.316.914.914,0,0,0-.707.316,1.192,1.192,0,0,0,0,1.567.947.947,0,0,0,.707.3.958.958,0,0,0,.707-.3A1.088,1.088,0,0,0,241.889,269.835Z" transform="translate(-199.646 -35.657)" fill="#263238"/>
    <path id="Path_36241" data-name="Path 36241" d="M244.607,267.1a.4.4,0,0,1-.414.414.414.414,0,0,1-.414-.414v-.163a.414.414,0,0,1,.414-.414.4.4,0,0,1,.414.414Zm0,1.371v2.982a.414.414,0,0,1-.827,0v-2.982a.414.414,0,1,1,.827,0Z" transform="translate(-199.23 -35.781)" fill="#263238"/>
    <path id="Path_36242" data-name="Path 36242" d="M246.034,266.52a.424.424,0,0,1,.424.424V271.4a.424.424,0,0,1-.838,0V266.9a.424.424,0,0,1,.414-.381Z" transform="translate(-199.068 -35.781)" fill="#263238"/>
    <rect id="Rectangle_147923" data-name="Rectangle 147923" width="144.285" height="12.776" transform="translate(27.366 241.502)" fill="#ebebeb"/>
    <path id="Path_36243" data-name="Path 36243" d="M231.393,282.994a1.894,1.894,0,0,1,1.861-1.9,1.828,1.828,0,0,1,1.839,1.774h0a.185.185,0,0,1,0,.076.37.37,0,0,1-.392.3h-2.427a.936.936,0,0,0,.261.5,1.143,1.143,0,0,0,.729.337,1.3,1.3,0,0,0,.794-.185.4.4,0,0,1,.566,0,.348.348,0,0,1,0,.49,1.926,1.926,0,0,1-3.265-1.4Zm.827-.37H234.4a1.251,1.251,0,0,0-1.088-.805A1.088,1.088,0,0,0,232.22,282.624Z" transform="translate(-200.327 -34.494)" fill="#c7c7c7"/>
    <path id="Path_36244" data-name="Path 36244" d="M239.086,282.681v1.828a.4.4,0,0,1-.4.4.414.414,0,0,1-.414-.4v-1.828a.794.794,0,0,0-.784-.762.773.773,0,0,0-.773.784v1.807h0a.424.424,0,0,1-.381.239h-.076a.414.414,0,0,1-.327-.4V282.54h0v-1.186a.407.407,0,0,1,.773-.185,1.611,1.611,0,0,1,.816-.229,1.567,1.567,0,0,1,1.2.533,1.534,1.534,0,0,1,1.2-.533,1.589,1.589,0,0,1,1.578,1.6v1.807a.4.4,0,0,1-.4.4.414.414,0,0,1-.414-.4V282.54a.773.773,0,0,0-.762-.784.794.794,0,0,0-.827.925Z" transform="translate(-199.923 -34.508)" fill="#c7c7c7"/>
    <path id="Path_36245" data-name="Path 36245" d="M245.814,283.005V284.5a.4.4,0,0,1-.4.4.424.424,0,0,1-.4-.326A1.709,1.709,0,0,1,244,284.9a1.752,1.752,0,0,1-1.3-.555,1.937,1.937,0,0,1-.511-1.339,1.915,1.915,0,0,1,.512-1.339,1.774,1.774,0,0,1,1.3-.577,1.708,1.708,0,0,1,1.012.337.435.435,0,0,1,.4-.337.414.414,0,0,1,.4.414Zm-.805,0a1.088,1.088,0,0,0-.3-.784.947.947,0,0,0-1.415,0,1.192,1.192,0,0,0,0,1.567.969.969,0,0,0,1.415,0A1.088,1.088,0,0,0,245.009,283.005Z" transform="translate(-199.371 -34.494)" fill="#c7c7c7"/>
    <path id="Path_36246" data-name="Path 36246" d="M247.717,280.272a.414.414,0,1,1-.816,0v-.163a.414.414,0,1,1,.816,0Zm0,1.371v2.982a.414.414,0,0,1-.816,0v-2.982a.414.414,0,1,1,.816,0Z" transform="translate(-198.955 -34.623)" fill="#c7c7c7"/>
    <path id="Path_36247" data-name="Path 36247" d="M249.174,279.69a.435.435,0,0,1,.435.424v4.495a.424.424,0,0,1-.435.414.414.414,0,0,1-.414-.414v-4.495a.424.424,0,0,1,.414-.424Z" transform="translate(-198.791 -34.618)" fill="#c7c7c7"/>
    <path id="Path_36248" data-name="Path 36248" d="M253.7,283.005V284.5a.392.392,0,0,1-.4.4.4.4,0,0,1-.392-.326,1.763,1.763,0,0,1-2.307-.229,1.976,1.976,0,0,1,0-2.677,1.763,1.763,0,0,1,1.3-.577,1.741,1.741,0,0,1,1.012.337.414.414,0,0,1,.392-.337.4.4,0,0,1,.4.414Zm-.805,0a1.088,1.088,0,0,0-.294-.784.947.947,0,0,0-.707-.316.914.914,0,0,0-.707.316,1.192,1.192,0,0,0,0,1.567.947.947,0,0,0,.707.3.979.979,0,0,0,.707-.3A1.088,1.088,0,0,0,252.9,283.005Z" transform="translate(-198.674 -34.494)" fill="#c7c7c7"/>
    <path id="Path_36249" data-name="Path 36249" d="M258.3,284.615a.414.414,0,0,1-.414.4.4.4,0,0,1-.4-.326,1.8,1.8,0,0,1-1.034.326,1.9,1.9,0,1,1,0-3.809,1.73,1.73,0,0,1,1.012.326V280.1a.424.424,0,0,1,.838,0v3.015h0Zm-1.85-2.568a.969.969,0,0,0-.718.3,1.088,1.088,0,0,0-.3.773,1.023,1.023,0,0,0,.3.751.958.958,0,0,0,1.426,0,1.023,1.023,0,0,0,.3-.751,1.088,1.088,0,0,0-.3-.773.957.957,0,0,0-.751-.3Z" transform="translate(-198.279 -34.613)" fill="#c7c7c7"/>
    <path id="Path_36250" data-name="Path 36250" d="M261.75,281.492a.414.414,0,0,1-.4.414.74.74,0,0,0-.457.141,1.089,1.089,0,0,0-.348.359,2.544,2.544,0,0,0-.316.642V284.5a.4.4,0,0,1-.414.4.392.392,0,0,1-.4-.4v-3a.392.392,0,0,1,.4-.392.4.4,0,0,1,.414.392v.054a1.09,1.09,0,0,1,.163-.152,1.665,1.665,0,0,1,.958-.294.392.392,0,0,1,.4.392Z" transform="translate(-197.85 -34.494)" fill="#c7c7c7"/>
    <path id="Path_36251" data-name="Path 36251" d="M261.88,282.994a1.894,1.894,0,0,1,1.861-1.9,1.828,1.828,0,0,1,1.839,1.774h0a.185.185,0,0,1,0,.076.37.37,0,0,1-.392.3h-2.427a1.012,1.012,0,0,0,.261.5,1.175,1.175,0,0,0,.729.337,1.3,1.3,0,0,0,.794-.185.424.424,0,0,1,.577,0,.348.348,0,0,1,0,.49,1.926,1.926,0,0,1-1.371.5,1.883,1.883,0,0,1-1.872-1.894Zm.838-.37h2.177a1.251,1.251,0,0,0-1.088-.805A1.088,1.088,0,0,0,262.718,282.624Z" transform="translate(-197.632 -34.494)" fill="#c7c7c7"/>
    <path id="Path_36252" data-name="Path 36252" d="M266.23,283.806a.4.4,0,0,1,.577,0,1.48,1.48,0,0,0,.838.337.979.979,0,0,0,.512-.152.3.3,0,0,0,.141-.229.153.153,0,0,0,0-.076.261.261,0,0,0-.1-.087,1.818,1.818,0,0,0-.609-.218h0a2.96,2.96,0,0,1-.664-.2,1.219,1.219,0,0,1-.522-.446.882.882,0,0,1-.131-.479,1.088,1.088,0,0,1,.446-.838,1.632,1.632,0,0,1,.936-.283,1.883,1.883,0,0,1,1.143.424.424.424,0,0,1,.131.566.414.414,0,0,1-.566.1,1.372,1.372,0,0,0-.707-.272.784.784,0,0,0-.457.131.229.229,0,0,0-.12.174v.065c0,.065,0,0,.076.076a1.9,1.9,0,0,0,.555.185h0a3,3,0,0,1,.707.229,1.088,1.088,0,0,1,.544.446,1.023,1.023,0,0,1,.142.5,1.088,1.088,0,0,1-.479.882,1.7,1.7,0,0,1-.99.3,2.177,2.177,0,0,1-1.36-.522.414.414,0,0,1-.044-.62Z" transform="translate(-197.259 -34.49)" fill="#c7c7c7"/>
    <path id="Path_36253" data-name="Path 36253" d="M269.61,283.806a.392.392,0,0,1,.566,0,1.48,1.48,0,0,0,.838.337,1.023,1.023,0,0,0,.522-.152.283.283,0,0,0,.131-.229.087.087,0,0,0,0-.076s0-.054-.1-.087a1.817,1.817,0,0,0-.609-.218h0a2.96,2.96,0,0,1-.664-.2,1.306,1.306,0,0,1-.533-.446.98.98,0,0,1-.131-.479,1.088,1.088,0,0,1,.457-.838,1.611,1.611,0,0,1,.936-.283,1.916,1.916,0,0,1,1.143.424.4.4,0,1,1-.446.664,1.338,1.338,0,0,0-.7-.272.762.762,0,0,0-.457.131.228.228,0,0,0-.12.174.119.119,0,0,0,0,.065.337.337,0,0,0,.087.076,1.786,1.786,0,0,0,.555.185h0a3,3,0,0,1,.707.229,1.088,1.088,0,0,1,.544.446.914.914,0,0,1,.142.5,1.088,1.088,0,0,1-.479.882,1.676,1.676,0,0,1-.99.3,2.177,2.177,0,0,1-1.349-.522.4.4,0,0,1-.054-.62Z" transform="translate(-196.961 -34.49)" fill="#c7c7c7"/>
    <path id="Path_36254" data-name="Path 36254" d="M278.255,282.351a2.557,2.557,0,0,1-.294,1.219h0a1.634,1.634,0,0,1-.185.272,1.219,1.219,0,0,1-.6.359.6.6,0,0,1-.2,0,.653.653,0,0,1-.577-.283.621.621,0,0,1-.131-.229,1.459,1.459,0,0,1-.686.174,1.415,1.415,0,0,1-1.088-.457,1.6,1.6,0,0,1-.424-1.088,1.567,1.567,0,0,1,.424-1.088,1.426,1.426,0,0,1,1.088-.468,1.469,1.469,0,0,1,1.088.468,1.556,1.556,0,0,1,.414,1.088v.99h0a.579.579,0,0,0,.1-.12,1.85,1.85,0,0,0,.2-.827,1.817,1.817,0,1,0-1.828,1.817,2.033,2.033,0,0,0,.457,0,.414.414,0,0,1,.512.294.435.435,0,0,1-.3.522,2.666,2.666,0,1,1,2-2.59Zm-2.035,0a.74.74,0,0,0-.185-.511.62.62,0,0,0-.882,0,.8.8,0,0,0,0,1.023.609.609,0,0,0,.435.185.62.62,0,0,0,.446-.185.74.74,0,0,0,.239-.512Z" transform="translate(-196.66 -34.613)" fill="#c7c7c7"/>
    <path id="Path_36255" data-name="Path 36255" d="M283.256,282.681v1.828a.4.4,0,0,1-.4.4.414.414,0,0,1-.414-.4v-1.828a.794.794,0,0,0-.784-.762.773.773,0,0,0-.773.784v1.807h0a.424.424,0,0,1-.381.239h-.076a.414.414,0,0,1-.326-.4V282.54h0v-1.186a.407.407,0,0,1,.773-.185,1.611,1.611,0,0,1,.816-.229,1.567,1.567,0,0,1,1.2.533,1.513,1.513,0,0,1,1.186-.533,1.589,1.589,0,0,1,1.589,1.6v1.807a.4.4,0,0,1-.4.4.414.414,0,0,1-.414-.4V282.54a.773.773,0,0,0-.773-.784.795.795,0,0,0-.816.925Z" transform="translate(-196.024 -34.508)" fill="#c7c7c7"/>
    <path id="Path_36256" data-name="Path 36256" d="M289.985,283.005V284.5a.4.4,0,0,1-.4.4.424.424,0,0,1-.4-.326,1.708,1.708,0,0,1-1.012.326,1.752,1.752,0,0,1-1.3-.555,1.976,1.976,0,0,1,0-2.677,1.774,1.774,0,0,1,1.3-.577,1.708,1.708,0,0,1,1.012.337.435.435,0,0,1,.4-.337.414.414,0,0,1,.4.414Zm-.805,0a1.088,1.088,0,0,0-.3-.784.947.947,0,0,0-1.415,0,1.192,1.192,0,0,0,0,1.567.969.969,0,0,0,1.415,0,1.088,1.088,0,0,0,.359-.784Z" transform="translate(-195.472 -34.494)" fill="#c7c7c7"/>
    <path id="Path_36257" data-name="Path 36257" d="M291.887,280.272a.414.414,0,1,1-.816,0v-.163a.414.414,0,1,1,.816,0Zm0,1.371v2.982a.414.414,0,0,1-.816,0v-2.982a.414.414,0,1,1,.816,0Z" transform="translate(-195.056 -34.623)" fill="#c7c7c7"/>
    <path id="Path_36258" data-name="Path 36258" d="M293.344,279.69a.435.435,0,0,1,.435.424v4.495a.424.424,0,0,1-.435.414.414.414,0,0,1-.414-.414v-4.495a.424.424,0,0,1,.414-.424Z" transform="translate(-194.891 -34.618)" fill="#c7c7c7"/>
    <path id="Path_36259" data-name="Path 36259" d="M295.1,283.6a.484.484,0,1,1-.512.577A.577.577,0,0,1,295.1,283.6Z" transform="translate(-194.744 -34.273)" fill="#c7c7c7"/>
    <path id="Path_36260" data-name="Path 36260" d="M295.85,283.005a1.948,1.948,0,0,1,1.937-1.915,2,2,0,0,1,1.208.424.4.4,0,0,1-.49.642,1.153,1.153,0,0,0-.718-.25,1.088,1.088,0,1,0,0,2.177,1.241,1.241,0,0,0,.718-.239.4.4,0,0,1,.49.642,2.057,2.057,0,0,1-1.208.4,1.926,1.926,0,0,1-1.937-1.883Z" transform="translate(-194.633 -34.494)" fill="#c7c7c7"/>
    <path id="Path_36261" data-name="Path 36261" d="M300.353,284.344a1.85,1.85,0,0,1-.533-1.339,1.937,1.937,0,0,1,.533-1.339,1.8,1.8,0,0,1,1.306-.577,1.73,1.73,0,0,1,1.273.577,1.894,1.894,0,0,1,.533,1.339,1.807,1.807,0,0,1-.533,1.339,1.7,1.7,0,0,1-1.273.588,1.774,1.774,0,0,1-1.306-.588Zm.3-1.339a1.219,1.219,0,0,0,.272.805,1,1,0,0,0,.729.283.958.958,0,0,0,.7-.283,1.2,1.2,0,0,0,0-1.6,1.039,1.039,0,0,0-1.426,0,1.208,1.208,0,0,0-.272.795Z" transform="translate(-194.283 -34.494)" fill="#c7c7c7"/>
    <path id="Path_36262" data-name="Path 36262" d="M307.546,282.681v1.828a.4.4,0,0,1-.4.4.414.414,0,0,1-.414-.4v-1.828a.794.794,0,0,0-.784-.762.773.773,0,0,0-.773.784v1.807h0a.424.424,0,0,1-.381.239h-.076a.414.414,0,0,1-.326-.4V282.54h0v-1.186a.407.407,0,0,1,.773-.185,1.611,1.611,0,0,1,.816-.229,1.567,1.567,0,0,1,1.2.533,1.513,1.513,0,0,1,1.186-.533,1.589,1.589,0,0,1,1.589,1.6v1.807a.4.4,0,0,1-.4.4.414.414,0,0,1-.414-.4V282.54a.773.773,0,0,0-.773-.784.795.795,0,0,0-.816.925Z" transform="translate(-193.879 -34.508)" fill="#c7c7c7"/>
    <path id="Path_36263" data-name="Path 36263" d="M233.99,238.562l16.4-.131,16.4-.044,32.812-.1,32.8.1,16.4.044,16.4.131-16.4.131-16.4.054-32.8.087-32.812-.087-16.4-.054Z" transform="translate(-200.095 -38.273)" fill="#263238"/>
    <path id="Path_36264" data-name="Path 36264" d="M245.12,245.242l13.375-.131,13.375-.044,26.75-.1,26.75.1,13.364.044,13.375.131-13.375.131-13.364.054-26.75.087-26.75-.087-13.375-.054Z" transform="translate(-199.112 -37.683)" fill="#263238"/>
    <path id="Path_36265" data-name="Path 36265" d="M227.99,310.362l18.033-.141,18.033-.044,36.077-.087,36.066.087,18.044.044,18.033.141-18.033.131-18.044.044-36.066.087-36.077-.087-18.033-.044Z" transform="translate(-200.624 -31.934)" fill="#ebebeb"/>
    <rect id="Rectangle_147924" data-name="Rectangle 147924" width="112.91" height="17.532" transform="translate(43.048 297.332)" fill="#fab915"/>
    <path id="Path_36266" data-name="Path 36266" d="M264.158,337.668a1.241,1.241,0,0,0-.555-1.034,1.969,1.969,0,0,0-.795-.337h-1.719v2.71a.239.239,0,1,1-.479,0v-6.388a.228.228,0,0,1,.218-.229h1.959a1.959,1.959,0,0,1,.827,3.722h.1a1.73,1.73,0,0,1,.914,1.524,2.819,2.819,0,0,0,.087.794.4.4,0,0,0,.109.174.261.261,0,0,1,.261.152.272.272,0,0,1-.163.316h-.131a.544.544,0,0,1-.446-.316A2.4,2.4,0,0,1,264.158,337.668Zm-1.371-4.821h-1.7v2.96h1.741a1.48,1.48,0,1,0,0-2.96Z" transform="translate(-197.744 -29.965)" fill="#fff"/>
    <path id="Path_36267" data-name="Path 36267" d="M265.86,336.655a2.329,2.329,0,0,1,4.647-.174h0a.229.229,0,0,1-.239.218h-3.94a1.894,1.894,0,0,0,1.861,1.85,1.785,1.785,0,0,0,1.545-.882.25.25,0,0,1,.316-.076.261.261,0,0,1,.087.337,2.307,2.307,0,0,1-1.948,1.088,2.362,2.362,0,0,1-2.329-2.362Zm.5-.381H270a1.839,1.839,0,0,0-3.635,0Z" transform="translate(-197.281 -29.79)" fill="#fff"/>
    <path id="Path_36268" data-name="Path 36268" d="M271.356,338.055a.239.239,0,0,1,.337,0,2.514,2.514,0,0,0,1.469.566,1.371,1.371,0,0,0,.9-.3.718.718,0,0,0,.37-.588.762.762,0,0,0-.348-.588,2.4,2.4,0,0,0-1.023-.348h0a2.665,2.665,0,0,1-1.088-.37,1,1,0,0,1-.522-.86,1.208,1.208,0,0,1,.522-.947,2.068,2.068,0,0,1,1.175-.316,2.59,2.59,0,0,1,1.426.512.261.261,0,0,1,.076.337.228.228,0,0,1-.326.065,2.177,2.177,0,0,0-1.175-.479,1.469,1.469,0,0,0-.914.272.74.74,0,0,0-.3.555.588.588,0,0,0,.272.479,2.5,2.5,0,0,0,.979.326h0a3.494,3.494,0,0,1,1.164.392,1.208,1.208,0,0,1,.544.979,1.241,1.241,0,0,1-.555.979,1.959,1.959,0,0,1-1.186.381,2.884,2.884,0,0,1-1.774-.686.229.229,0,0,1-.022-.359Z" transform="translate(-196.802 -29.797)" fill="#fff"/>
    <path id="Path_36269" data-name="Path 36269" d="M275.77,336.655a2.329,2.329,0,0,1,4.647-.174h0a.228.228,0,0,1-.239.218h-3.94a1.894,1.894,0,0,0,1.861,1.85,1.785,1.785,0,0,0,1.545-.882.239.239,0,1,1,.392.261,2.275,2.275,0,0,1-1.937,1.088A2.362,2.362,0,0,1,275.77,336.655Zm.5-.381h3.635a1.839,1.839,0,0,0-3.635,0Z" transform="translate(-196.406 -29.79)" fill="#fff"/>
    <path id="Path_36270" data-name="Path 36270" d="M282.912,334.653a.25.25,0,0,1-.229.239h-.577v3.493a.381.381,0,0,0,.359.359.239.239,0,0,1,0,.479.816.816,0,0,1-.849-.838v-3.493h-.6c-.229,0-.229-.12-.229-.239s0-.229.229-.229h.6v-1.785a.261.261,0,0,1,.239-.239.272.272,0,0,1,.25.239v1.785h.62a.239.239,0,0,1,.185.228Z" transform="translate(-195.963 -29.964)" fill="#fff"/>
    <path id="Path_36271" data-name="Path 36271" d="M287.6,332.6a.228.228,0,0,1,.239-.229h1.937a1.959,1.959,0,0,1,0,3.907l-1.741.044v2.688a.239.239,0,1,1-.479,0Zm2.177,3.21a1.48,1.48,0,1,0,0-2.96h-1.741v2.96Z" transform="translate(-195.365 -29.967)" fill="#fff"/>
    <path id="Path_36272" data-name="Path 36272" d="M296.817,334.487v4.353a.239.239,0,1,1-.468,0v-.718a2.177,2.177,0,0,1-1.807.958,2.405,2.405,0,0,1,0-4.8,2.231,2.231,0,0,1,1.807.936v-.707a.235.235,0,0,1,.468-.022Zm-.468,2.177a1.807,1.807,0,1,0-1.807,1.937,1.872,1.872,0,0,0,1.785-1.948Z" transform="translate(-194.947 -29.798)" fill="#fff"/>
    <path id="Path_36273" data-name="Path 36273" d="M298,338.055a.229.229,0,0,1,.326,0,2.569,2.569,0,0,0,1.469.566,1.415,1.415,0,0,0,.914-.3.707.707,0,0,0,.359-.588.784.784,0,0,0-.337-.588,2.461,2.461,0,0,0-1.023-.348h0a2.786,2.786,0,0,1-1.088-.37,1.012,1.012,0,0,1-.511-.86,1.23,1.23,0,0,1,.511-.947,2.177,2.177,0,0,1,1.186-.316,2.623,2.623,0,0,1,1.426.512.239.239,0,0,1,.065.337.218.218,0,0,1-.316.065,2.177,2.177,0,0,0-1.175-.479,1.447,1.447,0,0,0-.914.272.74.74,0,0,0-.3.555.588.588,0,0,0,.272.479,2.5,2.5,0,0,0,.979.326h0a3.58,3.58,0,0,1,1.164.392,1.208,1.208,0,0,1,.544.979,1.241,1.241,0,0,1-.555.979,1.992,1.992,0,0,1-1.2.381,2.917,2.917,0,0,1-1.8-.773A.218.218,0,0,1,298,338.055Z" transform="translate(-194.447 -29.797)" fill="#fff"/>
    <path id="Path_36274" data-name="Path 36274" d="M302.356,338.055a.239.239,0,0,1,.337,0,2.536,2.536,0,0,0,1.469.566,1.415,1.415,0,0,0,.914-.3.729.729,0,0,0,.359-.588.783.783,0,0,0-.337-.588,2.46,2.46,0,0,0-1.023-.348h0a2.786,2.786,0,0,1-1.088-.37.99.99,0,0,1-.512-.86,1.2,1.2,0,0,1,.512-.947,2.068,2.068,0,0,1,1.175-.316,2.667,2.667,0,0,1,1.437.511.25.25,0,0,1,.065.337.229.229,0,0,1-.327.065,2.176,2.176,0,0,0-1.175-.479,1.415,1.415,0,0,0-.9.272.74.74,0,0,0-.3.555.588.588,0,0,0,.272.479,2.438,2.438,0,0,0,.979.326h0a3.58,3.58,0,0,1,1.164.392,1.2,1.2,0,0,1,.533.979,1.23,1.23,0,0,1-.544.979,2.013,2.013,0,0,1-1.2.381,2.917,2.917,0,0,1-1.774-.686.229.229,0,0,1-.033-.359Z" transform="translate(-194.065 -29.797)" fill="#fff"/>
    <path id="Path_36275" data-name="Path 36275" d="M308.586,339.013a.163.163,0,0,1-.1-.109l-1.807-4.288a.24.24,0,0,1,.12-.3.229.229,0,0,1,.3.131l1.6,3.776,1.088-2.634a.25.25,0,0,1,.218-.152.283.283,0,0,1,.239.152l1.088,2.634,1.578-3.776a.239.239,0,0,1,.3-.131.229.229,0,0,1,.131.3l-1.8,4.266a.25.25,0,0,1-.087.12.174.174,0,0,1-.12.054h0a.239.239,0,0,1-.185-.152h0l-1.088-2.655-1.088,2.645h0a.25.25,0,0,1-.207.152h-.087Z" transform="translate(-193.678 -29.797)" fill="#fff"/>
    <path id="Path_36276" data-name="Path 36276" d="M316.545,334.26a2.405,2.405,0,1,1-2.275,2.394,2.34,2.34,0,0,1,2.275-2.394Zm0,4.353a1.937,1.937,0,1,0-1.807-1.937,1.883,1.883,0,0,0,1.807,1.915Z" transform="translate(-193.007 -29.8)" fill="#fff"/>
    <path id="Path_36277" data-name="Path 36277" d="M319.92,334.5a.239.239,0,0,1,.25-.239.228.228,0,0,1,.218.239v1.088l.076-.12a2.318,2.318,0,0,1,1.915-1.175.239.239,0,1,1,0,.479,1.741,1.741,0,0,0-1.393.784,4.723,4.723,0,0,0-.577,1.088.164.164,0,0,0,0,.087v2.1a.228.228,0,0,1-.218.239.239.239,0,0,1-.25-.239Z" transform="translate(-192.508 -29.8)" fill="#fff"/>
    <path id="Path_36278" data-name="Path 36278" d="M327.511,338.291a2.3,2.3,0,0,1-1.839.936,2.405,2.405,0,0,1,0-4.8,2.3,2.3,0,0,1,1.839.936V332.6a.239.239,0,0,1,.479,0v6.388a.239.239,0,1,1-.479,0Zm0-1.382v-.152a1.915,1.915,0,1,0,0,.152Z" transform="translate(-192.198 -29.968)" fill="#fff"/>
    <circle id="Ellipse_617" data-name="Ellipse 617" cx="25.216" cy="25.216" r="25.216" transform="translate(103.807 91.471)" fill="#455a64"/>
    <circle id="Ellipse_618" data-name="Ellipse 618" cx="17.228" cy="17.228" r="17.228" transform="translate(44.767 135.83)" fill="#ebebeb"/>
    <path id="Path_36279" data-name="Path 36279" d="M309.989,158.849v18.066h-5.115V158.849c0-6.878-5.224-12.472-11.645-12.472s-11.645,5.594-11.645,12.472v18.066H276.47V158.849c0-9.849,7.52-17.859,16.76-17.859S309.989,149,309.989,158.849Z" transform="translate(-196.344 -46.863)" fill="#c7c7c7"/>
    <path id="Path_36280" data-name="Path 36280" d="M276.47,161.72l5.115.207v13.179H276.47Z" transform="translate(-196.344 -45.033)" fill="#a6a6a6"/>
    <path id="Path_36281" data-name="Path 36281" d="M307.685,163v12.015H302.57V162.78Z" transform="translate(-194.04 -44.94)" fill="#a6a6a6"/>
    <rect id="Rectangle_147925" data-name="Rectangle 147925" width="46.622" height="42.291" transform="translate(73.574 119.777)" fill="#fab915"/>
    <rect id="Rectangle_147926" data-name="Rectangle 147926" width="23.311" height="42.291" transform="translate(96.885 119.777)" opacity="0.1"/>
    <path id="Path_36282" data-name="Path 36282" d="M294.195,186.033l1.959,9.261h-8.293l1.959-9.261a4.146,4.146,0,1,1,4.353,0Z" transform="translate(-195.34 -43.564)" fill="#263238"/>
    <path id="Path_36283" data-name="Path 36283" d="M283.137,381.634a2.753,2.753,0,1,1-.8-1.954,2.753,2.753,0,0,1,.8,1.954Z" transform="translate(-196.242 -25.862)" fill="#dbdbdb"/>
    <path id="Path_36284" data-name="Path 36284" d="M298.786,381.749a4.168,4.168,0,1,1-4.168-4.179,4.168,4.168,0,0,1,4.168,4.179Z" transform="translate(-195.11 -25.976)" fill="#c7c7c7"/>
    <path id="Path_36285" data-name="Path 36285" d="M311.378,381.634a2.764,2.764,0,1,1-2.764-2.764,2.764,2.764,0,0,1,2.764,2.764Z" transform="translate(-193.75 -25.862)" fill="#dbdbdb"/>
    <path id="Path_36286" data-name="Path 36286" d="M255.83,226.943v-5.79a.533.533,0,0,1,.544-.533h3.2a.544.544,0,0,1,.533.533.555.555,0,0,1-.533.555h-2.655v1.8H259.2a.544.544,0,0,1,0,1.088h-2.285v2.351a.544.544,0,0,1-.544.533.533.533,0,0,1-.544-.533Z" transform="translate(-198.166 -39.833)" fill="#263238"/>
    <path id="Path_36287" data-name="Path 36287" d="M260.985,226.6a2.459,2.459,0,0,1-.675-1.72,2.6,2.6,0,0,1,.675-1.719,2.307,2.307,0,0,1,1.687-.74,2.177,2.177,0,0,1,1.643.74A2.5,2.5,0,0,1,265,224.88a2.372,2.372,0,0,1-.686,1.719,2.177,2.177,0,0,1-1.643.751,2.285,2.285,0,0,1-1.687-.751Zm.392-1.719a1.545,1.545,0,0,0,.359,1.034,1.3,1.3,0,0,0,.936.37,1.273,1.273,0,0,0,.9-.37,1.578,1.578,0,0,0,0-2.057,1.371,1.371,0,0,0-.9-.37,1.393,1.393,0,0,0-.936.37,1.556,1.556,0,0,0-.359,1.023Z" transform="translate(-197.771 -39.674)" fill="#263238"/>
    <path id="Path_36288" data-name="Path 36288" d="M268.985,222.941a.522.522,0,0,1-.522.511.968.968,0,0,0-.588.185,1.447,1.447,0,0,0-.446.479,2.83,2.83,0,0,0-.4.816v1.861a.533.533,0,0,1-.544.522.522.522,0,0,1-.522-.522v-3.853a.522.522,0,0,1,.522-.511.533.533,0,0,1,.544.511v.109a1.088,1.088,0,0,1,.2-.2,2.176,2.176,0,0,1,1.241-.381.511.511,0,0,1,.522.468Z" transform="translate(-197.272 -39.673)" fill="#263238"/>
    <path id="Path_36289" data-name="Path 36289" d="M274.321,224.9v1.817a2.351,2.351,0,0,1-3.385,2.111.522.522,0,0,1-.229-.707.544.544,0,0,1,.707-.25,1.089,1.089,0,0,0,.555.141,1.317,1.317,0,0,0,1.284-1.088,2.329,2.329,0,0,1-1.284.392,2.231,2.231,0,0,1-1.665-.751,2.416,2.416,0,0,1-.686-1.719,2.546,2.546,0,0,1,.686-1.741,2.3,2.3,0,0,1,1.665-.729,2.177,2.177,0,0,1,1.317.414.512.512,0,0,1,.512-.414.522.522,0,0,1,.522.522v1.948Zm-1.088,0a1.535,1.535,0,0,0-.381-1,1.219,1.219,0,0,0-.925-.424,1.186,1.186,0,0,0-.9.424,1.436,1.436,0,0,0-.392,1,1.4,1.4,0,0,0,.392,1.012,1.2,1.2,0,0,0,.9.392,1.23,1.23,0,0,0,.925-.392,1.491,1.491,0,0,0,.446-1.023Z" transform="translate(-196.949 -39.678)" fill="#263238"/>
    <path id="Path_36290" data-name="Path 36290" d="M276.325,226.6a2.4,2.4,0,0,1-.675-1.719,2.546,2.546,0,0,1,.675-1.719,2.3,2.3,0,0,1,1.687-.74,2.177,2.177,0,0,1,1.632.74,2.46,2.46,0,0,1,.686,1.719,2.329,2.329,0,0,1-.686,1.719,2.177,2.177,0,0,1-1.632.751,2.264,2.264,0,0,1-1.687-.751Zm.392-1.719a1.6,1.6,0,0,0,.348,1.034,1.339,1.339,0,0,0,.947.37,1.3,1.3,0,0,0,.9-.37,1.578,1.578,0,0,0,0-2.057,1.4,1.4,0,0,0-.9-.37,1.447,1.447,0,0,0-.947.37,1.611,1.611,0,0,0-.348,1.023Z" transform="translate(-196.417 -39.674)" fill="#263238"/>
    <path id="Path_36291" data-name="Path 36291" d="M283.549,223.113a.555.555,0,0,1-.544.544h-.239v2.732a.544.544,0,0,1,.533.555.522.522,0,0,1-.533.533,1.088,1.088,0,0,1-1.088-1.088v-2.732h-.294a.544.544,0,0,1-.533-.544.533.533,0,0,1,.533-.533h.294v-1.426a.544.544,0,1,1,1.088,0v1.426H283a.544.544,0,0,1,.544.533Z" transform="translate(-195.957 -39.834)" fill="#263238"/>
    <path id="Path_36292" data-name="Path 36292" d="M290,224.807h-1.2v2.177a.544.544,0,0,1-.555.533.533.533,0,0,1-.533-.533v-5.79a.533.533,0,0,1,.533-.533H290a2.1,2.1,0,1,1,0,4.19Zm-1.2-1.088H290a1.012,1.012,0,1,0,0-2.013h-1.2Z" transform="translate(-195.352 -39.83)" fill="#263238"/>
    <path id="Path_36293" data-name="Path 36293" d="M297.038,224.882V226.8a.512.512,0,0,1-.512.522.522.522,0,0,1-.511-.424,2.177,2.177,0,0,1-1.306.424,2.264,2.264,0,0,1-1.665-.718,2.568,2.568,0,0,1,0-3.45,2.275,2.275,0,0,1,1.665-.729,2.177,2.177,0,0,1,1.306.435.514.514,0,0,1,1.023.1Zm-1.088,0a1.48,1.48,0,0,0-.381-1.012,1.23,1.23,0,0,0-.914-.4,1.208,1.208,0,0,0-.914.4,1.48,1.48,0,0,0-.37,1.012,1.513,1.513,0,0,0,.37,1.012,1.273,1.273,0,0,0,.914.381,1.3,1.3,0,0,0,.914-.381,1.523,1.523,0,0,0,.435-1.012Z" transform="translate(-194.94 -39.677)" fill="#263238"/>
    <path id="Path_36294" data-name="Path 36294" d="M298.217,225.914a.522.522,0,0,1,.74-.076,1.774,1.774,0,0,0,1.088.435,1.328,1.328,0,0,0,.664-.185.424.424,0,0,0,.174-.294.12.12,0,0,0,0-.1.24.24,0,0,0-.12-.12,2.275,2.275,0,0,0-.784-.272h0a4.168,4.168,0,0,1-.86-.261,1.676,1.676,0,0,1-.675-.566,1.176,1.176,0,0,1-.163-.62,1.382,1.382,0,0,1,.577-1.088,2.176,2.176,0,0,1,1.208-.359,2.59,2.59,0,0,1,1.469.533.544.544,0,0,1,.152.729.512.512,0,0,1-.718.141,1.686,1.686,0,0,0-.9-.37.99.99,0,0,0-.588.185c-.131.087-.163.174-.163.218v.076a.24.24,0,0,0,.109.1,1.752,1.752,0,0,0,.718.239h0a3.637,3.637,0,0,1,.9.283,1.491,1.491,0,0,1,.7.577,1.262,1.262,0,0,1,.185.653,1.4,1.4,0,0,1-.609,1.088,2.177,2.177,0,0,1-1.273.392,2.841,2.841,0,0,1-1.752-.675.533.533,0,0,1-.076-.664Z" transform="translate(-194.432 -39.675)" fill="#263238"/>
    <path id="Path_36295" data-name="Path 36295" d="M302.557,225.914a.512.512,0,0,1,.729-.076,1.8,1.8,0,0,0,1.088.435,1.339,1.339,0,0,0,.675-.185.425.425,0,0,0,.174-.294.119.119,0,0,0,0-.1s0-.076-.131-.12a2.111,2.111,0,0,0-.784-.272h0a4.167,4.167,0,0,1-.86-.261,1.6,1.6,0,0,1-.675-.566,1.175,1.175,0,0,1-.163-.62,1.382,1.382,0,0,1,.577-1.088,2.177,2.177,0,0,1,1.208-.359,2.59,2.59,0,0,1,1.469.533.544.544,0,0,1,.152.729.522.522,0,0,1-.729.142,1.654,1.654,0,0,0-.892-.37.969.969,0,0,0-.588.185c-.131.087-.163.174-.163.218v.076a.24.24,0,0,0,.109.1,1.752,1.752,0,0,0,.718.239h0a3.58,3.58,0,0,1,.914.283,1.545,1.545,0,0,1,.7.577,1.263,1.263,0,0,1,.185.653,1.382,1.382,0,0,1-.62,1.088,2.177,2.177,0,0,1-1.273.392,2.84,2.84,0,0,1-1.741-.675.522.522,0,0,1-.076-.664Z" transform="translate(-194.049 -39.675)" fill="#263238"/>
    <path id="Path_36296" data-name="Path 36296" d="M313.336,223.193l-1.622,3.8v.087h0l-.054.065h-.446a.12.12,0,0,0-.065,0h-.087a.119.119,0,0,1-.054,0h0v-.065h0a.447.447,0,0,1,0-.087l-.718-1.687-.7,1.687v.087h0l-.065.065h0v.054c0,.054-.065,0-.087,0h-.3a.109.109,0,0,1-.087,0h-.054v-.065h0v-.087l-1.611-3.8a.511.511,0,0,1,.283-.675.49.49,0,0,1,.653.294l1.154,2.634.686-1.632a.522.522,0,0,1,.479-.316.5.5,0,0,1,.479.316l.7,1.632,1.154-2.634a.5.5,0,0,1,.664-.294A.511.511,0,0,1,313.336,223.193Z" transform="translate(-193.619 -39.664)" fill="#263238"/>
    <path id="Path_36297" data-name="Path 36297" d="M315.056,226.6a2.416,2.416,0,0,1-.686-1.719,2.557,2.557,0,0,1,.686-1.72,2.275,2.275,0,0,1,1.676-.74,2.177,2.177,0,0,1,1.643.74,2.5,2.5,0,0,1,.686,1.719,2.372,2.372,0,0,1-.686,1.719,2.177,2.177,0,0,1-1.643.751A2.242,2.242,0,0,1,315.056,226.6Zm.392-1.719a1.545,1.545,0,0,0,.348,1.034,1.317,1.317,0,0,0,.936.37,1.262,1.262,0,0,0,.9-.37,1.578,1.578,0,0,0,0-2.057,1.349,1.349,0,0,0-.9-.37,1.414,1.414,0,0,0-.936.37A1.556,1.556,0,0,0,315.447,224.88Z" transform="translate(-192.998 -39.674)" fill="#263238"/>
    <path id="Path_36298" data-name="Path 36298" d="M323.045,222.941a.522.522,0,0,1-.522.511,1.023,1.023,0,0,0-.588.185,1.567,1.567,0,0,0-.446.479,2.829,2.829,0,0,0-.4.816v1.861a.533.533,0,0,1-.544.522.511.511,0,0,1-.512-.522v-3.853a.511.511,0,0,1,.511-.512.533.533,0,0,1,.544.512v.109a.882.882,0,0,1,.207-.2,2.177,2.177,0,0,1,1.23-.381.511.511,0,0,1,.522.468Z" transform="translate(-192.498 -39.673)" fill="#263238"/>
    <path id="Path_36299" data-name="Path 36299" d="M328.222,226.943a.527.527,0,0,1-1.045.109,2.362,2.362,0,0,1-1.339.424,2.449,2.449,0,0,1,0-4.9,2.286,2.286,0,0,1,1.317.414v-1.85a.533.533,0,0,1,.544-.522.522.522,0,0,1,.522.522v3.885h0Zm-2.383-3.265a1.273,1.273,0,0,0-.914.4,1.382,1.382,0,0,0-.392.99,1.35,1.35,0,0,0,.392.969,1.252,1.252,0,0,0,1.839,0,1.393,1.393,0,0,0,.392-.969,1.426,1.426,0,0,0-.392-.99,1.273,1.273,0,0,0-.925-.435Z" transform="translate(-192.202 -39.833)" fill="#263238"/>
    <path id="Path_36300" data-name="Path 36300" d="M331.568,224.674v.631a.468.468,0,0,1-.479.479.479.479,0,0,1-.479-.479v-1.012h0a.5.5,0,0,1,.479-.479,1.088,1.088,0,1,0-.936-1.632.49.49,0,0,1-.664.174.479.479,0,0,1-.174-.653,2.057,2.057,0,1,1,2.253,3.036Zm0,2.177v.174a.468.468,0,0,1-.479.479.479.479,0,0,1-.479-.479v-.174a.479.479,0,0,1,.479-.479.468.468,0,0,1,.479.446Z" transform="translate(-191.684 -39.828)" fill="#263238"/>
  </g>
  <g id="freepik--Character--inject-35" transform="translate(4.125 189.07)">
    <path id="Path_36301" data-name="Path 36301" d="M149.48,329.51,152.059,345l17.5,94.485h2.819L159.655,345l-1.883-15.486Z" transform="translate(-42.055 -159.978)" fill="#dbdbdb"/>
    <path id="Path_36302" data-name="Path 36302" d="M157.773,329.51H149.48L152.059,345h7.6Z" transform="translate(-42.055 -159.978)" fill="#a6a6a6"/>
    <path id="Path_36303" data-name="Path 36303" d="M98.99,439.481h2.819L119.308,345l2.579-15.486h-8.293L111.712,345Z" transform="translate(-46.513 -159.978)" fill="#dbdbdb"/>
    <path id="Path_36304" data-name="Path 36304" d="M112.563,329.51,110.68,345h7.6l2.579-15.486Z" transform="translate(-45.481 -159.978)" fill="#a6a6a6"/>
    <path id="Path_36305" data-name="Path 36305" d="M50.77,439.481h2.819L71.088,345l2.579-15.486H65.375L63.492,345Z" transform="translate(-50.77 -159.978)" fill="#dbdbdb"/>
    <path id="Path_36306" data-name="Path 36306" d="M62.46,345h7.6l2.579-15.486H64.343Z" transform="translate(-49.738 -159.978)" fill="#a6a6a6"/>
    <path id="Path_36307" data-name="Path 36307" d="M54.88,342.993h128.2V329.487H135.087L118.958,259.14H59.766Z" transform="translate(-50.407 -166.191)" fill="#dbdbdb"/>
    <path id="Path_36308" data-name="Path 36308" d="M54.88,342.993h6.987l4.56-83.853h-6.66Z" transform="translate(-50.407 -166.191)" fill="#a6a6a6"/>
    <path id="Path_36309" data-name="Path 36309" d="M177.506,447.867c-2.416.3-68.421-15.095-70.565-17.173-.261-.229,2.057-13.005,2.057-13.005C110.087,412.476,128.022,370,128.022,370l43.194,10.643-18.327,39.418s8.227,5.572,15.3,10.883a95.393,95.393,0,0,1,8.946,7.161C179.237,440.673,179.922,447.584,177.506,447.867Z" transform="translate(-45.813 -156.404)" fill="#c95f50"/>
    <path id="Path_36310" data-name="Path 36310" d="M106.932,428.165c2.177,2.079,68.159,17.478,70.575,17.173s1.73-7.194-.359-9.708a95.976,95.976,0,0,0-8.946-7.15h0c-7.063-5.311-15.29-10.883-15.29-10.883l4.048-8.772L115.148,398.64c-3.167,7.89-5.768,14.681-6.149,16.575C109,415.171,106.67,427.937,106.932,428.165Z" transform="translate(-45.813 -153.875)" fill="#ebebeb"/>
    <path id="Path_36311" data-name="Path 36311" d="M177.795,444.934c-2.492.261-69.041-14.648-71.207-16.825-.838-.816.773-10.622,3.058-22.419a.651.651,0,0,1,.076-.37l43.031,9.142-.174.729s22.908,17.086,25.031,19.731S180.244,444.683,177.795,444.934Z" transform="translate(-45.862 -153.285)" fill="#fab915"/>
    <path id="Path_36312" data-name="Path 36312" d="M177.284,440.409c-11.155-2.786-56.406-12.983-67.648-14.9-.087,0-.1,0,0,.065,10.992,3.015,56.33,12.842,67.626,15.018C177.512,440.637,177.512,440.463,177.284,440.409Z" transform="translate(-45.579 -151.503)" fill="#263238"/>
    <path id="Path_36313" data-name="Path 36313" d="M154.439,414.947c-4.233-1.817-9.795-2.351-13.854,0-.163.1,0,.316.131.3a63.686,63.686,0,0,1,13.582.218.294.294,0,0,0,.141-.522Z" transform="translate(-42.846 -152.574)" fill="#263238"/>
    <path id="Path_36314" data-name="Path 36314" d="M156.969,417.367c-4.223-1.817-9.795-2.351-13.854,0-.163.1,0,.316.131.3a64.406,64.406,0,0,1,13.582.207.283.283,0,0,0,.141-.512Z" transform="translate(-42.623 -152.36)" fill="#263238"/>
    <path id="Path_36315" data-name="Path 36315" d="M159.5,419.777c-4.223-1.807-9.795-2.34-13.854,0-.163.1,0,.316.131.3a63.687,63.687,0,0,1,13.582.207.294.294,0,0,0,.141-.512Z" transform="translate(-42.4 -152.147)" fill="#263238"/>
    <path id="Path_36316" data-name="Path 36316" d="M161.864,407.343c-1.2-2.775-4.669-2.427-6.856-1.3a24.073,24.073,0,0,0-9.065,8.576.109.109,0,0,0,.065.174.555.555,0,0,0,.566.707c3.95-.522,8.238-.609,11.906-2.329C160.612,412.164,163,409.966,161.864,407.343Zm-9.468,6.138c-1.937.3-3.874.522-5.8.9a71.978,71.978,0,0,1,5.441-4.9,26.391,26.391,0,0,1,2.906-1.992c1.578-.9,7.346-2.274,5.441,2.383-1.012,2.568-5.67,3.232-7.988,3.6Z" transform="translate(-42.37 -153.295)" fill="#263238"/>
    <path id="Path_36317" data-name="Path 36317" d="M136.095,411.131c3.265,2.362,7.5,3.265,11.275,4.462a.566.566,0,0,0,.7-.588.117.117,0,0,0,.1-.163,24.116,24.116,0,0,0-7.346-10.088c-1.948-1.513-5.3-2.481-6.987,0S134.179,409.748,136.095,411.131Zm-1.284-3.591c-.979-4.919,4.44-2.525,5.833-1.349a25.774,25.774,0,0,1,2.492,2.5,71.293,71.293,0,0,1,4.418,5.79c-1.817-.729-3.689-1.284-5.529-1.937-2.209-.784-6.671-2.285-7.215-5.006Z" transform="translate(-43.492 -153.469)" fill="#263238"/>
    <path id="Path_36318" data-name="Path 36318" d="M154.12,439.3c10.458,2.285,18.566,3.918,19.4,3.831,2.5-.25,1.948-7.389-.174-10.023a95.233,95.233,0,0,0-8.706-7.292Z" transform="translate(-41.645 -151.475)" opacity="0.2"/>
    <path id="Path_36319" data-name="Path 36319" d="M158.183,427.387l-45.806-10.8S150.6,328.973,147.2,324.522c-1.687-2.231-44.337-2.884-57.9-14.376C71.686,295.214,83.5,272.4,83.5,272.4l47.678-1.4s-.577,9.947,1.284,11.438c1.219,1,57.973,5.779,64.209,24.9C204.316,330.791,158.183,427.387,158.183,427.387Z" transform="translate(-48.222 -165.144)" fill="#37474f"/>
    <path id="Path_36320" data-name="Path 36320" d="M155.133,409.054c-1.2-.566-13.059-4.048-15.726-4.723-5.354-1.371-10.731-2.721-16.118-3.95-2.819-.642-8.848-2.035-9.218-1.97-.174,0-.207.326,0,.381,5.224,1.719,10.524,3.178,15.824,4.658s23.551,5.866,25.15,5.975C155.165,409.435,155.361,409.13,155.133,409.054Z" transform="translate(-45.194 -153.895)" fill="#263238"/>
    <path id="Path_36321" data-name="Path 36321" d="M154.914,320.194a7.345,7.345,0,0,0-3.591-1.088l-20.677-3.45c-6.432-1.088-12.907-2.035-19.306-3.265-5.3-1.023-10.7-2.405-15.236-5.278a22.114,22.114,0,0,1-9.37-12.243,39.581,39.581,0,0,1-1.208-15.693c.12-1.284.359-2.557.6-3.82a.077.077,0,1,0-.152,0c-1.752,9.795-1.9,21.069,5.441,28.85,3.57,3.787,8.467,6.007,13.462,7.455a153.122,153.122,0,0,0,17.326,3.363l20.677,3.439c3.265.555,6.671.979,9.958,1.665a3.428,3.428,0,0,1,1.785.794,2.536,2.536,0,0,1,.294,2.383c-.327,1.622-.773,3.265-1.23,4.81-3.755,12.809-31.462,78.139-32.2,79.543a.131.131,0,0,0,.229.12c6.312-11.231,27.044-62.653,31.212-74.765a77.442,77.442,0,0,0,2.7-9.425C155.741,322.349,155.926,321.054,154.914,320.194Z" transform="translate(-47.751 -164.767)" fill="#263238"/>
    <path id="Path_36322" data-name="Path 36322" d="M240.449,449.64c-2.307.773-68.366-.152-70.88-1.763-2.753-2.623-3.929-64.949-3.929-64.949l42.5-.348,2.655,44.75s9.174,3.82,17.162,7.618h0a96.028,96.028,0,0,1,10.186,5.235C240.721,442.24,242.756,448.878,240.449,449.64Z" transform="translate(-40.628 -155.293)" fill="#c95f50"/>
    <path id="Path_36323" data-name="Path 36323" d="M166.7,416.78c.631,14.006,1.534,26.924,2.764,28.078,2.514,1.611,68.562,2.547,70.891,1.763s.272-7.389-2.285-9.435a95.476,95.476,0,0,0-10.2-5.235h0c-7.988-3.8-17.162-7.618-17.162-7.618l-.446-7.531Z" transform="translate(-40.535 -152.273)" fill="#ebebeb"/>
    <path id="Path_36324" data-name="Path 36324" d="M241.714,446.219c-2.394.794-70.586.468-73.166-1.2-1-.609-1.534-10.535-1.828-22.549v-.381l43.989-.272v.74s26.043,11.786,28.7,13.908S244.1,445.447,241.714,446.219Z" transform="translate(-40.533 -151.828)" fill="#fab915"/>
    <path id="Path_36325" data-name="Path 36325" d="M240.555,441.841c-11.492-.337-57.886-.609-69.27-.076-.1,0-.1.076,0,.076,11.384.588,57.777.479,69.27.2C240.795,442.047,240.795,441.851,240.555,441.841Z" transform="translate(-40.136 -150.094)" fill="#263238"/>
    <path id="Path_36326" data-name="Path 36326" d="M212.742,422.028c-4.516-.86-10.056-.2-13.527,3-.131.131,0,.316.2.272a63.73,63.73,0,0,1,13.321-2.7.294.294,0,0,0,.011-.577Z" transform="translate(-37.669 -151.84)" fill="#263238"/>
    <path id="Path_36327" data-name="Path 36327" d="M215.742,423.8c-4.527-.86-10.056-.2-13.527,3-.141.131,0,.316.185.272a63.73,63.73,0,0,1,13.321-2.7.294.294,0,0,0,.022-.577Z" transform="translate(-37.404 -151.684)" fill="#263238"/>
    <path id="Path_36328" data-name="Path 36328" d="M218.732,425.618c-4.527-.86-10.056-.2-13.527,3-.141.131,0,.316.185.272a63.728,63.728,0,0,1,13.321-2.7.294.294,0,0,0,.022-.577Z" transform="translate(-37.14 -151.524)" fill="#263238"/>
    <path id="Path_36329" data-name="Path 36329" d="M218.226,413.047c-1.763-2.46-5.082-1.371-6.976.207a24.1,24.1,0,0,0-7.019,10.306.12.12,0,0,0,.109.163.555.555,0,0,0,.707.566c3.744-1.36,7.912-2.351,11.122-4.821C218.041,418.021,219.9,415.366,218.226,413.047Zm-7.923,8.021c-1.828.718-3.678,1.339-5.441,2.122a68.958,68.958,0,0,1,4.233-5.931,25.654,25.654,0,0,1,2.405-2.579c1.349-1.219,6.693-3.8,5.877,1.154C216.887,418.565,212.469,420.219,210.3,421.068Z" transform="translate(-37.222 -152.731)" fill="#263238"/>
    <path id="Path_36330" data-name="Path 36330" d="M194,422.108c3.711,1.6,8,1.545,11.971,1.948a.588.588,0,0,0,.555-.729.12.12,0,0,0,0-.185,24.117,24.117,0,0,0-9.337-8.271c-2.231-1.088-5.7-1.3-6.813,1.513S191.819,421.172,194,422.108Zm-2.035-3.265c-2.013-4.6,3.8-3.417,5.441-2.568a26.484,26.484,0,0,1,2.971,1.9,71.827,71.827,0,0,1,5.561,4.712c-1.937-.316-3.874-.457-5.822-.707-2.351-.261-7.041-.773-8.151-3.308Z" transform="translate(-38.469 -152.508)" fill="#263238"/>
    <path id="Path_36331" data-name="Path 36331" d="M221.287,435.693H173.4s.6-86.486-3.156-91.275c-5.006-6.4-75.092-6.258-90.121-27.109-13.495-18.74-2.1-45.251-2.1-45.251L131.1,270.48a110.676,110.676,0,0,1-4.919,16.694s63.926,11.786,81.839,31.364C220.057,331.772,221.287,435.693,221.287,435.693Z" transform="translate(-48.761 -165.19)" fill="#37474f"/>
    <path id="Path_36332" data-name="Path 36332" d="M131.853,282.49a26.03,26.03,0,0,0-4.495,1.436c-1.524.588-3.025,1.241-4.495,1.959a89.7,89.7,0,0,0-8.391,4.745c-.087,0,0,.163.087.12,2.862-1.491,5.833-2.83,8.8-4.1l4.288-1.85a43.967,43.967,0,0,0,4.353-1.915.218.218,0,0,0-.152-.392Z" transform="translate(-45.149 -164.13)" fill="#263238"/>
    <path id="Path_36333" data-name="Path 36333" d="M128.123,270.483c-.609,2.416-1.088,4.854-1.839,7.259a29.439,29.439,0,0,1-1.088,3.265c-.348.892-.882,1.926-1.926,2.122s-1.545-.794-1.447-1.785.392-2.177.609-3.265c.25-1.252.511-2.514.74-3.765.109-.631.229-1.262.337-1.894a16.091,16.091,0,0,1,.229-1.719.053.053,0,0,0,.065.054h0s.076,0,.076-.065a.219.219,0,0,0-.065-.185c-.065-.065-.065,0-.109,0-.229.131-.239.446-.316.675-.2.609-.392,1.23-.577,1.839-.337,1.154-.664,2.318-.958,3.483s-.577,2.329-.86,3.493a5.441,5.441,0,0,0-.239,2.688,2.068,2.068,0,0,0,1.9,1.556l-.131.229c-.109.239-.185.49-.272.74s-.174.5-.25.751a2.326,2.326,0,0,0-.065.381c0,.141,0,.272,0,.414s.272.348.381.141a3.836,3.836,0,0,1,.229-.348,2.243,2.243,0,0,0,.174-.4c.076-.239.152-.479.207-.729s.141-.49.185-.74a2.951,2.951,0,0,0,0-.446,2.721,2.721,0,0,0,1.4-.533,4.68,4.68,0,0,0,1.447-2.177c.359-1,.642-2.046.925-3.08a44.283,44.283,0,0,0,1.545-7.792C128.581,270.3,128.189,270.2,128.123,270.483Z" transform="translate(-44.597 -165.204)" fill="#263238"/>
    <path id="Path_36334" data-name="Path 36334" d="M99.937,275.917c-.218,1.2-.359,2.416-.642,3.6s-.588,2.329-.969,3.461a12.275,12.275,0,0,1-1.48,3.123A11.667,11.667,0,0,1,94.5,288.5a19.982,19.982,0,0,1-5.692,3.156,26.239,26.239,0,0,1-3.156.925,16,16,0,0,1-1.687.3,3.547,3.547,0,0,0-1.36.3.283.283,0,0,0,0,.479,5.039,5.039,0,0,0,2.514.076,20.106,20.106,0,0,0,2.688-.468,19.589,19.589,0,0,0,5.082-2.177,15.922,15.922,0,0,0,4.31-3.439,11.971,11.971,0,0,0,2.275-4.973,24.323,24.323,0,0,0,.74-6.747C100.155,275.808,99.959,275.787,99.937,275.917Z" transform="translate(-47.971 -164.718)" fill="#263238"/>
    <path id="Path_36335" data-name="Path 36335" d="M179.781,375.346q-.707-11.3-1.872-22.538c-.2-1.85-.381-3.711-.609-5.55a17.052,17.052,0,0,0-.936-4.223c-1.088-2.819-3.45-4.244-6.29-4.952-3.352-.849-6.824-1.36-10.23-1.9s-6.987-1.088-10.491-1.556c-7.085-.99-14.148-1.9-21.232-3.091a168.129,168.129,0,0,1-20.841-4.68c-6.269-1.894-12.7-4.233-17.717-8.576-10.807-9.348-11.2-25.031-9.882-38.09.185-1.85.414-3.689.642-5.539a.077.077,0,1,0-.152,0c-.849,7.379-1.85,14.812-1.088,22.245a36.381,36.381,0,0,0,5.9,17.238c3.657,5.235,9.076,8.619,14.92,10.981a117.612,117.612,0,0,0,19.883,5.714c14.006,2.938,28.3,4.179,42.389,6.584,1.741.294,3.472.609,5.2.947a21.908,21.908,0,0,1,4.7,1.262c3.2,1.426,4.081,4.538,4.473,7.759.925,7.466,1.545,14.975,2.09,22.484,1.088,15.116,1.665,30.32,1.643,45.48v10.045c0,.163.25.141.25,0C180.935,410.106,180.739,390.506,179.781,375.346Z" transform="translate(-48.294 -164.83)" fill="#263238"/>
    <path id="Path_36336" data-name="Path 36336" d="M210.691,415.419c-10.883-.74-42.073-.435-42.443-.283-.163.076-.12.37.054.381,5.441.392,40.756.577,42.334.294C210.811,415.778,210.876,415.43,210.691,415.419Z" transform="translate(-40.407 -152.436)" fill="#263238"/>
    <path id="Path_36337" data-name="Path 36337" d="M122.2,286a178.576,178.576,0,0,1,28.948,5.931,202.719,202.719,0,0,1,27.936,10.11c5.082,2.275,10,4.821,14.866,7.5.1.054,0,.2-.087.152a224.387,224.387,0,0,0-27.207-11.851,220.188,220.188,0,0,0-28.3-8.206c-5.441-1.175-10.883-2.09-16.324-2.993C121.73,286.523,121.828,285.9,122.2,286Z" transform="translate(-44.494 -163.821)" fill="#263238"/>
    <path id="Path_36338" data-name="Path 36338" d="M167.4,358.244c-.337-5.2-.882-10.4-1.73-15.562-.348-2.079-.435-4.767-2.623-5.8-1.012-.49-21.32-4.016-24.236-3.961a.141.141,0,0,0-.065.261c.272.12,19.589,3.766,22.027,4.353a3.852,3.852,0,0,1,2.71,1.415,9.9,9.9,0,0,1,.816,3.341,214.56,214.56,0,0,1,2.7,30.57q.12,4.266.141,8.5c0,2.917-.1,5.866.12,8.761a.239.239,0,0,0,.479,0c.218-2.634.141-5.322.152-7.966s0-5.311,0-7.977C167.879,368.855,167.759,363.544,167.4,358.244Z" transform="translate(-43.009 -159.677)" fill="#263238"/>
    <path id="Path_36339" data-name="Path 36339" d="M124.467,227.461c13.723,18.251,46.318,43.912,53.968,37.938,9.4-7.335,7.618-34.325,7.857-37.8.207-3.711-30.624-2.775-29.384,1.012.729,2.242,1.088,4.647.49,4.418-1.817-.718-5.855-4.353-23.366-14.148C124.293,213.411,115.38,215.381,124.467,227.461Z" transform="translate(-44.598 -170.001)" fill="#c95f50"/>
    <path id="Path_36340" data-name="Path 36340" d="M152.721,228.688l-7.215,7.085-9.055,8.88s-10.306-9.99-14.768-18.229c-3.265-6.062-3.374-11.177-.131-12.287a7.27,7.27,0,0,1,4.832.457C138.062,218.959,152.721,228.688,152.721,228.688Z" transform="translate(-44.731 -170.184)" fill="#fab915"/>
    <path id="Path_36341" data-name="Path 36341" d="M147.278,225.791c-2.884,2.634-13.332,12.4-14.148,14.148,0,0,.076.131.12.12,1.7-.827,11.558-11.177,14.2-14.039C147.5,225.91,147.332,225.747,147.278,225.791Z" transform="translate(-43.499 -169.136)" fill="#263238"/>
    <path id="Path_36342" data-name="Path 36342" d="M145.506,235.755l-9.055,8.88s-10.306-9.99-14.768-18.229c-3.265-6.062-3.374-11.177-.131-12.287Z" transform="translate(-44.731 -170.166)" fill="#263238"/>
    <path id="Path_36343" data-name="Path 36343" d="M183.613,212.281c1.741,5.909.577,19.393-.947,22.538s-24.53,1.937-26.576-1.023-6.377-23.311-3.994-29.133S181.785,206.154,183.613,212.281Z" transform="translate(-41.886 -171.189)" fill="#c95f50"/>
    <path id="Path_36344" data-name="Path 36344" d="M157.5,193.093c-.99-2.677-5.822-10.35-8.151-9.457s-.25,6.965.664,9.4c1.9,5.017,1.839,12.428,1.752,16.02s8.3,0,8.3,0S160.088,200.047,157.5,193.093Z" transform="translate(-42.161 -172.864)" fill="#c95f50"/>
    <path id="Path_36345" data-name="Path 36345" d="M153.641,213.186s-.326,6.323,3.036,7.618,4.538-3.765,4.636-4.114c0,.326-.163,6.149,3.363,7.117s4.092-4.244,4.114-4.582c.087.316,1.3,4.538,4.125,4.669,4.886.218,2.1-10.654,4.255-13.974,0,0,6.04,3.015,6.225,3.069,0,0-2.438-10.4-7.063-13.059a3.406,3.406,0,0,0-4.233.6s-.414-3.439-3.167-4.288c-1.4-.435-3.352,1.437-3.352,1.437a4.266,4.266,0,0,0-2.938-3.341c-1.981-.49-3.9,1.426-4.353,2.275C154.49,203.152,153.641,213.186,153.641,213.186Z" transform="translate(-41.689 -171.919)" fill="#c95f50"/>
    <path id="Path_36346" data-name="Path 36346" d="M158.719,195.94h-.087a30.4,30.4,0,0,0-5.071,17.347.18.18,0,0,0,.359,0,62.185,62.185,0,0,1,4.8-17.347Z" transform="translate(-41.695 -171.771)" fill="#263238"/>
    <path id="Path_36347" data-name="Path 36347" d="M164.993,197.335c0-.054-.076-.109-.12,0a28.437,28.437,0,0,0-4.353,19.274c0,.239.316.4.283.131C160.4,212.1,162.632,202.494,164.993,197.335Z" transform="translate(-41.102 -171.653)" fill="#263238"/>
    <path id="Path_36348" data-name="Path 36348" d="M167.874,219.174c-.805-6.6.577-12.787,2.917-18.936,0-.087-.087-.12-.131-.065-1.959,2.71-3.047,6.78-3.613,10.034a17.413,17.413,0,0,0,.6,9C167.689,219.315,167.9,219.315,167.874,219.174Z" transform="translate(-40.534 -171.4)" fill="#263238"/>
    <path id="Path_36349" data-name="Path 36349" d="M153.642,211.91a20.037,20.037,0,0,0,.479,3.613,6.737,6.737,0,0,0,1.513,3.156,2.177,2.177,0,0,0,1.426.664,3.157,3.157,0,0,0,1.589-.316,3.874,3.874,0,0,0,1.839-2.59l.642-2.612.3,2.666a10.719,10.719,0,0,0,.947,3.428,3.951,3.951,0,0,0,2.285,2.242,2.242,2.242,0,0,0,2.655-.936,6.747,6.747,0,0,0,.936-3.265l.2-3.167.849,3.036a10.546,10.546,0,0,0,1.023,2.427,4.2,4.2,0,0,0,1.73,1.73,1.992,1.992,0,0,0,2.111-.218,4.353,4.353,0,0,0,1.154-2.177,34.26,34.26,0,0,0,.74-5.441c.087-.925.174-1.85.3-2.775a6.53,6.53,0,0,1,.805-2.666,7.129,7.129,0,0,0-.555,2.7c-.054.914-.065,1.839-.076,2.775a30.678,30.678,0,0,1-.468,5.6,5.267,5.267,0,0,1-1.306,2.7,2.873,2.873,0,0,1-3.113.435,5.191,5.191,0,0,1-2.177-2.1,11.123,11.123,0,0,1-1.175-2.677l1.088-.12a7.857,7.857,0,0,1-1.088,3.863,3.265,3.265,0,0,1-1.73,1.36,3.667,3.667,0,0,1-2.177,0,4.941,4.941,0,0,1-2.906-2.83,12.385,12.385,0,0,1-.979-3.787l.947.065a4.658,4.658,0,0,1-2.438,3.091,4.06,4.06,0,0,1-1.992.294,2.873,2.873,0,0,1-1.785-.936,6.889,6.889,0,0,1-1.4-3.493A16.674,16.674,0,0,1,153.642,211.91Z" transform="translate(-41.69 -170.643)" fill="#263238"/>
    <path id="Path_36350" data-name="Path 36350" d="M155.212,230.079s-16.673-20.155-5.6-22.854c3.265-.794,17.739-.109,17.663,2.8-.109,3.744-6.192,4.593-10.1,4.506,0,0,6.639,6.062,3.8,11.971a6.53,6.53,0,0,1-5.757,3.58Z" transform="translate(-42.379 -170.802)" fill="#c95f50"/>
    <path id="Path_36351" data-name="Path 36351" d="M148.47,207.566a13.593,13.593,0,0,1,3.9-.816,30.721,30.721,0,0,1,4-.087,46.143,46.143,0,0,1,7.966.958,7.019,7.019,0,0,1,1.992.729,2.753,2.753,0,0,1,.925.794,2.177,2.177,0,0,1,.3.6,2.318,2.318,0,0,1,.076.653,3.406,3.406,0,0,1-.9,2.177,6.465,6.465,0,0,1-1.774,1.284,12.188,12.188,0,0,1-3.983,1.088,27.893,27.893,0,0,1-4.038.152l.3-.816a16.085,16.085,0,0,1,1.981,2.351,15.507,15.507,0,0,1,1.491,2.655,10.632,10.632,0,0,1,.762,2.938,7.9,7.9,0,0,1-.25,2.993,8.859,8.859,0,0,0-.065-2.938,10.426,10.426,0,0,0-.979-2.743,14.489,14.489,0,0,0-1.567-2.46,16.485,16.485,0,0,0-1.981-2.1l-.9-.773h1.219a28.76,28.76,0,0,0,3.885-.272,11.972,11.972,0,0,0,3.635-1.023,3.22,3.22,0,0,0,2.057-2.46c.011-1.023-1.252-1.437-2.449-1.752a36.874,36.874,0,0,0-3.842-.751c-1.3-.207-2.6-.4-3.907-.522a25.369,25.369,0,0,0-7.857.141Z" transform="translate(-42.144 -170.827)" fill="#263238"/>
    <path id="Path_36352" data-name="Path 36352" d="M154.42,231.65l.9,2.579.871,2.59,1.763,5.148c.588,1.72,1.186,3.428,1.817,5.126.316.849.631,1.7.979,2.536s.707,1.676,1.088,2.525a34.824,34.824,0,0,1-2.623-4.81c-.762-1.665-1.4-3.385-2.013-5.1s-1.088-3.472-1.578-5.235A47.569,47.569,0,0,1,154.42,231.65Z" transform="translate(-41.619 -168.618)" fill="#263238"/>
    <path id="Path_36353" data-name="Path 36353" d="M138.34,290.194c-1.632,1.306-66.266,2.035-66.538,1.578-.74-1.241,16.792-60.2,44.348-78.531,4.854-3.265,12.254-.99,15.454,1.513,1.611,1.262,6.279,10.807,6.922,18.61S139.374,289.356,138.34,290.194Z" transform="translate(-48.915 -170.386)" fill="#fab915"/>
    <path id="Path_36354" data-name="Path 36354" d="M138.194,264.129v.479c-.3-.185-.62-.392-.914-.609a26.88,26.88,0,0,1-5.986-6.53c-1.7-2.405-3.265-4.919-4.767-7.4a67.538,67.538,0,0,0-7.2-9.99l-.337-.359a27.535,27.535,0,0,0-3.483-3.08,18.806,18.806,0,0,0-16.466-2.862,17.891,17.891,0,0,0-6.53,3.831l.794-1.328a17.782,17.782,0,0,1,5.561-3,19.339,19.339,0,0,1,8.815-.544,19,19,0,0,1,8.1,3.58,27.622,27.622,0,0,1,3.787,3.417c.12.131.239.25.348.381a68.475,68.475,0,0,1,6.987,9.795c1.545,2.492,3.058,5,4.734,7.389a26.7,26.7,0,0,0,5.866,6.388C137.748,263.836,137.966,263.988,138.194,264.129Zm-6.094,2.786a22.234,22.234,0,0,1-8.87-2.177c-5.6-2.666-10.11-7.074-14.6-11.329-1.632-1.545-3.265-3.091-4.973-4.549l-.272-.239c-.566-.479-1.088-.947-1.741-1.4a21.57,21.57,0,0,0-8.315-4.244,13.516,13.516,0,0,0-3.624-.326l-.25.435a13.06,13.06,0,0,1,3.787.3,21.244,21.244,0,0,1,8.13,4.19c.566.435,1.088.882,1.654,1.339a2.988,2.988,0,0,1,.283.239c1.719,1.458,3.363,3.036,5.006,4.593,4.473,4.266,9,8.706,14.692,11.449a22.484,22.484,0,0,0,9.087,2.264,23.539,23.539,0,0,0,6.105-.642c0-.185,0-.359,0-.544a23.463,23.463,0,0,1-6.094.642Zm6.051-15.236c-.664-1.088-1.349-2.177-2.079-3.265a24.475,24.475,0,0,0-6.116-6.366,14.441,14.441,0,0,0-8.434-2.438,11.312,11.312,0,0,0-1.915.109L119,239.8a18.49,18.49,0,0,0-1.883.348,21.9,21.9,0,0,0-4.146,1.556,50.464,50.464,0,0,0-9.588,6.9c-.12.1-.239.207-.359.294-1.349,1.164-2.71,2.307-4.1,3.385a36.109,36.109,0,0,1-7.433,4.593,24.128,24.128,0,0,1-8.456,2.024H81.68c0,.1-.087.2-.12.294l1.491-.054A24.464,24.464,0,0,0,91.6,257.11a37.143,37.143,0,0,0,7.52-4.6c1.426-1.088,2.808-2.253,4.179-3.417l.348-.294a49.06,49.06,0,0,1,9.49-6.791,21.048,21.048,0,0,1,4.07-1.513,17.327,17.327,0,0,1,2.177-.381h.62c.522-.054,1.088-.076,1.567-.087a14.148,14.148,0,0,1,8.195,2.394,23.943,23.943,0,0,1,5.986,6.269c.871,1.252,1.676,2.536,2.46,3.853a5.148,5.148,0,0,1-.076-.9Z" transform="translate(-48.052 -168.547)" fill="#fff"/>
    <path id="Path_36355" data-name="Path 36355" d="M127.112,226.971c-3.787-.163-8.347-7.324-9.512-12.4-.076-.348,4.593-12.047,5.278-14.463.141-.49,14.148,7.988,14.148,7.988a39.808,39.808,0,0,0-4.092,8.848C132.8,217.3,130.779,227.134,127.112,226.971Z" transform="translate(-44.87 -171.404)" fill="#c95f50"/>
    <path id="Path_36356" data-name="Path 36356" d="M122.9,200.23c-.337,4.1-.424,15.007,7.76,17.543a9.477,9.477,0,0,0,1.513.327c.163-.664.261-1.088.272-1.175a39.887,39.887,0,0,1,4.092-8.837h0a1.088,1.088,0,0,0-.229-.141h0c-.1-.076-.229-.141-.381-.239l-.163-.1c-.087-.065-.2-.12-.3-.185l-.392-.239-.653-.381-.239-.152-.5-.3-1.981-1.175-.751-.446c-.326-.185-.653-.37-.969-.577l-.969-.555-.12-.065-1.643-.958-.544-.316-1.088-.588-.707-.392-1.393-.74-.316-.152Z" transform="translate(-44.412 -171.392)" fill="#263238"/>
    <path id="Path_36357" data-name="Path 36357" d="M127.334,183.779c-3.57,4.614-6.53,20.677-4.081,25.5,3.537,6.911,12.178,10.72,18.773,5.822,6.4-4.745,9.882-25.814,6.889-30.472C144.507,177.9,132.612,176.967,127.334,183.779Z" transform="translate(-44.45 -173.257)" fill="#c95f50"/>
    <path id="Path_36358" data-name="Path 36358" d="M136.942,197.58s-.1,0-.1.076c-.239,1.088-.7,2.329-1.774,2.449v.065C136.311,200.3,136.9,198.668,136.942,197.58Z" transform="translate(-43.327 -171.626)" fill="#263238"/>
    <path id="Path_36359" data-name="Path 36359" d="M136.316,196.315c-1.73-.566-2.742,2.927-1.088,3.461S137.764,196.794,136.316,196.315Z" transform="translate(-43.388 -171.743)" fill="#263238"/>
    <path id="Path_36360" data-name="Path 36360" d="M142.528,198.78s.076.076,0,.12c-.348,1.088-.577,2.351.294,3h0C141.7,201.435,142,199.738,142.528,198.78Z" transform="translate(-42.711 -171.52)" fill="#263238"/>
    <path id="Path_36361" data-name="Path 36361" d="M143.823,198c1.774.392.871,3.918-.773,3.559S142.332,197.686,143.823,198Z" transform="translate(-42.7 -171.591)" fill="#263238"/>
    <path id="Path_36362" data-name="Path 36362" d="M134.014,205.766c.174.337.316.762.686.925a2.829,2.829,0,0,0,1.241.12s.065.054,0,.076a1.535,1.535,0,0,1-1.556.12,1.208,1.208,0,0,1-.522-1.23.076.076,0,1,1,.152-.011Z" transform="translate(-43.436 -170.91)" fill="#263238"/>
    <path id="Path_36363" data-name="Path 36363" d="M140.128,203.869s-.229,1.687-.435,2.449a17.216,17.216,0,0,0-4.6-.577c-.37,0-.294-.261.152-.381a6.737,6.737,0,0,1,3.972.109c.12-.2.3-2.6.424-2.568a6.845,6.845,0,0,1,1.632.871c.566-3.493.577-7.063,1.2-10.535a.109.109,0,0,1,.207,0,56.808,56.808,0,0,1-.805,11.394C141.815,205.1,140.454,204.086,140.128,203.869Z" transform="translate(-43.346 -172.016)" fill="#263238"/>
    <path id="Path_36364" data-name="Path 36364" d="M135.055,193.653c.5-.076.969-.076,1.469-.109a2.438,2.438,0,0,1,1.524.185.762.762,0,0,1,.25.892,1.894,1.894,0,0,1-1.665.925,2.786,2.786,0,0,1-1.937-.457.805.805,0,0,1,.359-1.437Z" transform="translate(-43.389 -171.987)" fill="#263238"/>
    <path id="Path_36365" data-name="Path 36365" d="M146.762,194.632a13.441,13.441,0,0,0-1.164-.914,2.372,2.372,0,0,0-1.349-.707.74.74,0,0,0-.707.588,1.872,1.872,0,0,0,.849,1.709,2.743,2.743,0,0,0,1.861.707.805.805,0,0,0,.512-1.382Z" transform="translate(-42.58 -172.03)" fill="#263238"/>
    <path id="Path_36366" data-name="Path 36366" d="M130.4,196.505c1.339.511,1.589-2.285,1.654-3.265a17.3,17.3,0,0,1,.751-2.96,16.39,16.39,0,0,1-1.437,2.7C130.749,193.73,129.062,195.972,130.4,196.505Z" transform="translate(-43.784 -172.271)" fill="#fff"/>
    <path id="Path_36367" data-name="Path 36367" d="M122.167,199.685s-2.557-11.34-.207-16.618c1.088-2.383,4.973-2.917,4.973-2.917a5.877,5.877,0,0,1,3.635-5.017c3.831-1.774,10.687,1.208,10.687,1.208s6.78-5.082,12.374-.3-1.088,10.72-1.088,10.72,1.252,4.157-5.441,4.854c-6.53.686-17.217-5.7-17.217-5.7a42.345,42.345,0,0,1-4.179,11.906,3.842,3.842,0,0,1-3.537,1.872Z" transform="translate(-44.572 -173.709)" fill="#263238"/>
    <path id="Path_36368" data-name="Path 36368" d="M141.885,176.821a11.971,11.971,0,0,0-4.277-2.351,12.733,12.733,0,0,0-4.353-.729,7.172,7.172,0,0,0-6.53,3.5,5.028,5.028,0,0,0-.294,3.885c0,.054.1,0,.076,0-.871-2.362.882-4.973,2.938-6.007a10.774,10.774,0,0,1,7.618-.239,20.9,20.9,0,0,1,4.6,2.09.133.133,0,0,0,.218-.152Z" transform="translate(-44.113 -173.732)" fill="#263238"/>
    <path id="Path_36369" data-name="Path 36369" d="M155.505,180.71a5.866,5.866,0,0,0-2.655-4.821,9.936,9.936,0,0,0-6.2-1.828A12.439,12.439,0,0,0,140.4,176.1v.076a11.013,11.013,0,0,1,11.253-.381,5.441,5.441,0,0,1,1.447,8.978,11.286,11.286,0,0,1-5.561,2.775v.076a11.438,11.438,0,0,0,5.333-2.177A6.53,6.53,0,0,0,155.505,180.71Z" transform="translate(-42.857 -173.703)" fill="#263238"/>
    <path id="Path_36370" data-name="Path 36370" d="M147.924,191.574a20.732,20.732,0,0,1-8.608-1.317,42.065,42.065,0,0,1-8.184-4.038c-1.5-.936-2.971-1.937-4.418-2.96,0,0-.087,0,0,.076a46.187,46.187,0,0,0,7.857,5.637,23.159,23.159,0,0,0,8.489,2.743,19.589,19.589,0,0,0,4.919-.076S147.967,191.564,147.924,191.574Z" transform="translate(-44.069 -172.89)" fill="#263238"/>
    <path id="Path_36371" data-name="Path 36371" d="M126.138,196.274s-1.687-6.138-4.353-5.7-2.623,8.467-.348,10.371a2.819,2.819,0,0,0,4.027-.109Z" transform="translate(-44.679 -172.247)" fill="#c95f50"/>
    <path id="Path_36372" data-name="Path 36372" d="M121.687,192.68v.065c1.567,1.4,1.926,3.439,1.981,5.441A1.567,1.567,0,0,0,121.6,197v.109a1.752,1.752,0,0,1,1.6,1.219,8.7,8.7,0,0,1,.348,1.763c0,.2.348.218.359,0h0C124.767,197.73,124.114,193.812,121.687,192.68Z" transform="translate(-44.517 -172.059)" fill="#263238"/>
    <path id="Path_36373" data-name="Path 36373" d="M107.639,224.455c-3.189,17.8-1.273,55.133,6.834,61.39,9.392,7.237,50.507,8.706,59.649,6.029,3.646-1.088-5.028-25.172-9.076-25.139-17.01.12-31.332-1.839-32.79-3.853-2.242-3.08-8.108-24.791-12.113-38.395C115.126,207.4,109.064,216.467,107.639,224.455Z" transform="translate(-45.878 -170.107)" fill="#c95f50"/>
    <path id="Path_36374" data-name="Path 36374" d="M204.407,239.571l-26.119,17.064a1.088,1.088,0,0,0-.163,1.828l12.145,9.12a2.449,2.449,0,0,0,2.623,0l26.119-17.064a1.088,1.088,0,0,0,.163-1.839l-12.145-9.109a2.449,2.449,0,0,0-2.623,0Z" transform="translate(-39.564 -167.952)" fill="#263238"/>
    <path id="Path_36375" data-name="Path 36375" d="M203.377,238.871l-26.119,17.064a1.088,1.088,0,0,0-.163,1.828l12.145,9.12a2.449,2.449,0,0,0,2.623,0l26.119-17.064a1.088,1.088,0,0,0,.163-1.839L206,238.871a2.449,2.449,0,0,0-2.623,0Z" transform="translate(-39.655 -168.014)" fill="#37474f"/>
    <path id="Path_36376" data-name="Path 36376" d="M202.7,240.206l-23.942,15.65c-.74.479-.838,1.241-.229,1.7l10.883,8.151a2.318,2.318,0,0,0,2.438,0l23.942-15.66c1.5-.969,1.339-1.556.729-2.013l-2.177-1.632a.566.566,0,0,0-.588.065h-.087a.707.707,0,0,1-.979-.076l-5.039-3.776c-.283-.218-.5-.392,0-.7l.076-.054c.207-.131.261-.3.131-.4l-2.177-1.632C205.021,239.39,204.107,239.314,202.7,240.206Z" transform="translate(-39.525 -167.924)" fill="#fff"/>
    <path id="Path_36377" data-name="Path 36377" d="M207.463,243.3l1.371,1.088a.185.185,0,0,0,.185,0h0a.087.087,0,0,0,0-.131l-1.382-1.023a.141.141,0,0,0-.174,0h0C207.419,243.211,207.419,243.265,207.463,243.3Z" transform="translate(-36.939 -167.598)" fill="#fff"/>
    <path id="Path_36378" data-name="Path 36378" d="M189.49,250.495l9.229,6.921,10.3-6.7-9.24-6.932Z" transform="translate(-38.523 -167.547)" fill="#fab915"/>
    <path id="Path_36379" data-name="Path 36379" d="M191.47,253.642l5.387,4.048.609-.4-5.387-4.038Z" transform="translate(-38.348 -166.711)" fill="#a6a6a6"/>
    <path id="Path_36380" data-name="Path 36380" d="M189.65,253.536l6.377,4.788.3-.2-6.388-4.788Z" transform="translate(-38.509 -166.703)" fill="#a6a6a6"/>
    <path id="Path_36381" data-name="Path 36381" d="M189.14,253.866l6.377,4.788.3-.2-6.388-4.788Z" transform="translate(-38.554 -166.674)" fill="#a6a6a6"/>
    <path id="Path_36382" data-name="Path 36382" d="M188.63,254.207l6.377,4.778.3-.2L188.935,254Z" transform="translate(-38.599 -166.645)" fill="#a6a6a6"/>
    <path id="Path_36383" data-name="Path 36383" d="M209.25,247.493l1.154.86.239-.163-1.143-.86Z" transform="translate(-36.778 -167.234)" fill="#a6a6a6"/>
    <path id="Path_36384" data-name="Path 36384" d="M208.83,247.763l1.143.86.25-.163-1.143-.86Z" transform="translate(-36.815 -167.21)" fill="#a6a6a6"/>
    <path id="Path_36385" data-name="Path 36385" d="M208.41,248.033l1.154.871.239-.163-1.143-.871Z" transform="translate(-36.852 -167.186)" fill="#a6a6a6"/>
    <path id="Path_36386" data-name="Path 36386" d="M188.192,250.962a.838.838,0,0,0,0,.424,2.047,2.047,0,0,0,.62,0c.4,0,.707-.261.49-.435a.489.489,0,0,0-.512,0s.25-.207.065-.337S188.268,250.679,188.192,250.962Z" transform="translate(-38.64 -166.948)" fill="#fab915"/>
    <path id="Path_36387" data-name="Path 36387" d="M182.23,255.955l7.444,5.594L192.057,260,184.6,254.41Z" transform="translate(-39.164 -166.609)" fill="#fab915"/>
    <path id="Path_36388" data-name="Path 36388" d="M168.4,288.639c2,0,18.849-4.179,23.942-7.041a57.048,57.048,0,0,0,14.648-11.188c6.66-7.139,10.589-12.711,10.72-15.791.141-3.58,0-4.212-13.462,6.769-7.618,6.2-12.515,5.441-16.433,3.961-16.107-6.138-31.626-1.948-31.626-1.948S160.7,288.617,168.4,288.639Z" transform="translate(-41.463 -166.796)" fill="#c95f50"/>
    <path id="Path_36389" data-name="Path 36389" d="M189.673,265.986c-4.1-1.4,12.156-4.908,14.028-9.49s-3.232-4.745-7.694-3.439c-15.671,4.647-24.867.838-34.281,7.281-1,.675-3.95,2.177-4,2.655C157.274,267.5,189.673,265.986,189.673,265.986Z" transform="translate(-41.328 -166.791)" fill="#c95f50"/>
    <path id="Path_36390" data-name="Path 36390" d="M178.918,255.6a34.38,34.38,0,0,0-8.706.25,21.08,21.08,0,0,0-7.379,3.178c-.1.054,0,.218.087.163,4.832-2.906,10.524-3.189,16-3.461a.065.065,0,1,0,0-.131Z" transform="translate(-40.88 -166.518)" fill="#263238"/>
    <path id="Path_36391" data-name="Path 36391" d="M104.533,248.4l9.9-1.861,12.472-2.34s-2.928-13.887-6.53-22.549c-3.678-8.9-9.795-11.808-13.157.424C103.956,234.1,104.533,248.4,104.533,248.4Z" transform="translate(-46.027 -170.185)" fill="#fab915"/>
    <path id="Path_36392" data-name="Path 36392" d="M105.343,241.759c3.809-.86,17.794-3.842,19.654-3.548,0,0,.065.141,0,.163-1.643.925-15.78,3.091-19.644,3.613C105.311,242,105.267,241.781,105.343,241.759Z" transform="translate(-45.956 -168.041)" fill="#263238"/>
    <path id="Path_36393" data-name="Path 36393" d="M106.35,246.778c-.588.174-1.175.327-1.763.479h-.163v-.185c-.152-1.556-.174-3.123-.174-4.68s.076-3.123.185-4.68.25-3.113.468-4.658.446-3.08.773-4.614c0,1.567-.109,3.113-.185,4.669s-.174,3.1-.261,4.658c-.163,3.091-.381,6.192-.511,9.294l-.174-.131C105.132,246.9,105.741,246.821,106.35,246.778Z" transform="translate(-46.048 -168.902)" fill="#263238"/>
    <path id="Path_36394" data-name="Path 36394" d="M103.782,231.65a18.361,18.361,0,0,1,.7,2.895c.076.49.152.979.2,1.469a13.745,13.745,0,0,1,.076,1.5,11.733,11.733,0,0,1-.805-2.884A12.384,12.384,0,0,1,103.782,231.65Z" transform="translate(-46.092 -168.618)" fill="#263238"/>
    <path id="Path_36395" data-name="Path 36395" d="M124.593,243.164l.805-.239-.065.109c-.424-1.3-.762-2.6-1.143-3.9l-1.012-3.918c-.653-2.612-1.262-5.224-1.828-7.879a32.033,32.033,0,0,1,1.469,3.787,35.773,35.773,0,0,1,1.088,3.9c.294,1.306.631,2.634.892,3.961s.49,2.655.653,4v.1h-.087A6.868,6.868,0,0,1,124.593,243.164Z" transform="translate(-44.539 -168.999)" fill="#263238"/>
    <path id="Path_36396" data-name="Path 36396" d="M123.234,229.75a7.357,7.357,0,0,1,.37,2.264,6.845,6.845,0,0,1-.076,1.154,4.059,4.059,0,0,1-.294,1.088,16.1,16.1,0,0,1-.174-2.264A10.8,10.8,0,0,1,123.234,229.75Z" transform="translate(-44.388 -168.786)" fill="#263238"/>
  </g>
  <g id="freepik--speech-bubble--inject-35" transform="translate(118.25 114.035)">
    <path id="Path_36397" data-name="Path 36397" d="M177.388,165.948a6.7,6.7,0,1,1-2.361-4.564,6.715,6.715,0,0,1,2.361,4.564Z" transform="translate(-154.9 -99.925)" fill="#fff"/>
    <path id="Path_36398" data-name="Path 36398" d="M177.409,165.969a6.851,6.851,0,1,1-7.292-6.389,7,7,0,0,1,7.292,6.389Zm0,0a6.432,6.432,0,0,0-7.237-5.844,6.53,6.53,0,0,0-5.594,6.954,6.439,6.439,0,1,0,12.831-1.11Z" transform="translate(-154.922 -99.946)" fill="#263238"/>
    <path id="Path_36399" data-name="Path 36399" d="M163.6,177.1a3.733,3.733,0,1,1-4.048-3.406A3.733,3.733,0,0,1,163.6,177.1Z" transform="translate(-155.591 -98.701)" fill="#fff"/>
    <path id="Path_36400" data-name="Path 36400" d="M163.65,177.115a4.016,4.016,0,1,1-2.878-3.472A4.038,4.038,0,0,1,163.65,177.115Zm0,0a3.559,3.559,0,0,0-1.371-2.481,3.472,3.472,0,1,0,.446,5.159,3.559,3.559,0,0,0,.925-2.677Z" transform="translate(-155.637 -98.718)" fill="#263238"/>
    <path id="Path_36401" data-name="Path 36401" d="M228.3,139.567a19.589,19.589,0,0,1-27.077,20.427,16.444,16.444,0,0,1-26.119-.054,12.32,12.32,0,0,1-2.177.457,13.342,13.342,0,0,1-12.581-20.9,19.589,19.589,0,0,1,26.4-28.361,16.444,16.444,0,0,1,28.23,4.484,10.437,10.437,0,0,1,2.111-.479,10.752,10.752,0,0,1,9.25,17.924A19.142,19.142,0,0,1,228.3,139.567Z" transform="translate(-155.598 -104.767)" fill="#fff"/>
    <path id="Path_36402" data-name="Path 36402" d="M228.338,139.583a19.894,19.894,0,0,1-1.4,10.034,20.938,20.938,0,0,1-2.579,4.429,20.277,20.277,0,0,1-3.646,3.58,19.8,19.8,0,0,1-19.513,2.536h.185a16.738,16.738,0,0,1-26.576.076l.392.131a13.561,13.561,0,0,1-4.179.577,12.929,12.929,0,0,1-4.168-.7,13.811,13.811,0,0,1-6.769-4.952,14.79,14.79,0,0,1-1.926-3.787,14.442,14.442,0,0,1-.7-4.19,13.81,13.81,0,0,1,2.492-8.042v.566a20.057,20.057,0,0,1,1.088-26.119,20.275,20.275,0,0,1,12.45-6.247,19.97,19.97,0,0,1,13.451,3.406l-.479.076a16.726,16.726,0,0,1,28.644,4.691l-.141-.065a10.959,10.959,0,0,1,7.009.087,10.807,10.807,0,0,1,4.353,17.489h0A19.132,19.132,0,0,1,228.338,139.583Zm0,0a19.2,19.2,0,0,0-1.992-6.53h0a10.7,10.7,0,0,0-4.429-17.3,10.567,10.567,0,0,0-6.878,0h-.109v-.109a16.324,16.324,0,0,0-5.006-6.834,16.177,16.177,0,0,0-22.843,2.547l-.2.261-.283-.2a19.178,19.178,0,0,0-25.782,27.751l.229.294-.218.316a12.744,12.744,0,0,0-2.34,7.444,13.212,13.212,0,0,0,.62,3.907,13.648,13.648,0,0,0,1.774,3.537,13.147,13.147,0,0,0,6.279,4.691,12.275,12.275,0,0,0,3.918.707,12.461,12.461,0,0,0,3.951-.49l.239-.076.163.207a16.433,16.433,0,0,0,5.616,4.712,16.215,16.215,0,0,0,20.122-4.527l.076-.1h.109a19.306,19.306,0,0,0,19.317-2.329,20.526,20.526,0,0,0,3.657-3.548,20.754,20.754,0,0,0,2.59-4.353,19.829,19.829,0,0,0,1.415-9.98Z" transform="translate(-155.637 -104.783)" fill="#263238"/>
    <path id="Path_36403" data-name="Path 36403" d="M199.8,137.862l-.62,2.971a2.177,2.177,0,0,1-2.7,1.774,2.285,2.285,0,0,1-1.774-2.71l.99-4.756.065-.076c.065-.076,0,0,0-.109a2.351,2.351,0,0,1,2.71-1.763,5.24,5.24,0,1,0-2.742-8.641,2.3,2.3,0,1,1-3.417-3.058,9.795,9.795,0,1,1,7.564,16.324Zm-2.079,10.012-.174.827a2.242,2.242,0,0,1-2.71,1.774,2.307,2.307,0,0,1-1.774-2.71l.174-.827a2.318,2.318,0,0,1,2.71-1.752A2.285,2.285,0,0,1,197.723,147.875Z" transform="translate(-152.458 -103.596)" fill="#fab915"/>
    <path id="Path_36404" data-name="Path 36404" d="M177.8,131.819l-.316-2.96a2.177,2.177,0,0,1,1.992-2.557,2.3,2.3,0,0,1,2.547,1.992l.6,4.821v.1c0,.1,0,0,.054.087a2.34,2.34,0,0,1-1.992,2.547,5.235,5.235,0,1,0,1.284,10.382,5.137,5.137,0,0,0,4.135-3.091,2.307,2.307,0,0,1,3.047-1.23,2.275,2.275,0,0,1,1.175,3,9.795,9.795,0,1,1-12.439-13.059Zm-1.252-10.143-.109-.838a2.177,2.177,0,0,1,1.992-2.547,2.275,2.275,0,0,1,2.547,1.992l.109.827a2.329,2.329,0,0,1-1.992,2.557,2.264,2.264,0,0,1-2.547-1.992Z" transform="translate(-154.233 -103.592)" fill="#fab915"/>
  </g>
</svg>
