<svg xmlns="http://www.w3.org/2000/svg" width="43.492" height="27.002" viewBox="0 0 43.492 27.002">
  <g id="Group_67830" data-name="Group 67830" transform="translate(0 0)">
    <g id="Components---Sprint-3" transform="translate(0 0)">
      <g id="assets-_x2F_-logo-_x2F_-mastercard-_x2F_-symbol" transform="translate(0 0)">
        <path id="Fill-1" d="M240.3,138.63h11.761V117.4H240.3Z" transform="translate(-224.439 -114.519)" fill="#eb611c" fill-rule="evenodd"/>
        <path id="Fill-2" d="M95.608,101.6a13.481,13.481,0,0,1,5.133-10.61,13.5,13.5,0,1,0,.01,21.22,13.46,13.46,0,0,1-5.143-10.61" transform="translate(-79 -88.1)" fill="#e41221" fill-rule="evenodd"/>
        <path id="Fill-4" d="M321.428,109.959v-.521h-.138l-.157.364-.157-.364h-.138v.521h.1v-.393l.147.344h.1l.147-.344v.393Zm-.865,0v-.433h.177v-.089H320.3v.089h.177v.433Zm1.288-8.358a13.428,13.428,0,0,1-21.751,10.61,13.532,13.532,0,0,0,0-21.22,13.428,13.428,0,0,1,21.751,10.61Z" transform="translate(-278.359 -88.1)" fill="#f59e1e" fill-rule="evenodd"/>
      </g>
    </g>
  </g>
</svg>
