<svg xmlns="http://www.w3.org/2000/svg" width="36.471" height="36.471" viewBox="0 0 36.471 36.471">
  <g id="Group_7042" data-name="Group 7042" transform="translate(-735.25 -4273.25)">
    <path id="Path_32000" data-name="Path 32000" d="M452.48,124.994c0-3.3,0-4.945-1.024-5.97S448.783,118,445.486,118s-4.945,0-5.97,1.024-1.024,2.673-1.024,5.97M428,138.983c0-6.593,0-9.892,2.05-11.939s5.346-2.05,11.939-2.05h6.994c6.593,0,9.892,0,11.939,2.05s2.05,5.346,2.05,11.939,0,9.892-2.05,11.939-5.346,2.05-11.939,2.05h-6.994c-6.593,0-9.892,0-11.939-2.05S428,145.576,428,138.983Z" transform="translate(308 4156)" fill="none" stroke="#fff" stroke-width="1.5"/>
    <path id="Path_32001" data-name="Path 32001" d="M445,135.5h-5m2.5-2.5v5" transform="translate(310.988 4159.735)" fill="none" stroke="#fff" stroke-linecap="round" stroke-width="1.5"/>
    <path id="Path_32002" data-name="Path 32002" d="M442.869,142.739A6.869,6.869,0,1,0,436,135.869,6.869,6.869,0,0,0,442.869,142.739Z" transform="translate(309.992 4158.739)" fill="none" stroke="#fff" stroke-width="1.5"/>
  </g>
</svg>
