<svg xmlns="http://www.w3.org/2000/svg" width="50.61" height="51.25" viewBox="0 0 50.61 51.25">
  <g id="Group_7482" data-name="Group 7482" transform="translate(-10454.837 -1186.529)">
    <path id="Path_32268" data-name="Path 32268" d="M118.325,112.962a6.637,6.637,0,1,0-6.637-6.637A6.636,6.636,0,0,0,118.325,112.962Z" transform="translate(10378.886 1123.217)" fill="none" stroke="#fff" stroke-linecap="round" stroke-linejoin="round" stroke-width="3.2"/>
    <path id="Path_32269" data-name="Path 32269" d="M80.075,112.962a6.637,6.637,0,1,0-6.637-6.637A6.637,6.637,0,0,0,80.075,112.962Z" transform="translate(10383 1123.217)" fill="none" stroke="#fff" stroke-linecap="round" stroke-linejoin="round" stroke-width="3.2"/>
    <path id="Path_32270" data-name="Path 32270" d="M80.075,74.712a6.637,6.637,0,1,0-6.637-6.637A6.637,6.637,0,0,0,80.075,74.712Z" transform="translate(10383 1127.331)" fill="none" stroke="#fff" stroke-linecap="round" stroke-linejoin="round" stroke-width="3.2"/>
    <path id="Path_32271" data-name="Path 32271" d="M102.8,61.438l-5.689,7.586,5.689,7.586m11.379,17.068V74.712q0-5.689-5.688-5.689H100.9M81.938,76.609V93.677" transform="translate(10382.086 1127.331)" fill="none" stroke="#fff" stroke-linecap="round" stroke-linejoin="round" stroke-width="3.2"/>
  </g>
</svg>
