<svg xmlns="http://www.w3.org/2000/svg" xmlns:xlink="http://www.w3.org/1999/xlink" width="395" height="79" viewBox="0 0 395 79">
  <defs>
    <clipPath id="clip-path">
      <rect id="Rectangle_4100" data-name="Rectangle 4100" width="395" height="79" rx="18" transform="translate(-0.001 -0.497)" fill="#fff"/>
    </clipPath>
  </defs>
  <g id="Group_7613" data-name="Group 7613" transform="translate(0.001 0.497)" clip-path="url(#clip-path)">
    <rect id="Rectangle_4099" data-name="Rectangle 4099" width="395" height="79" transform="translate(-0.001 -0.497)" fill="#eb5757"/>
    <path id="Path_32596" data-name="Path 32596" d="M130.029,51.751v4.324h2.445a2.035,2.035,0,0,0,2.265-2.162,2.081,2.081,0,0,0-2.293-2.162Zm0,6.382V63.1H127.19V49.533h5.556c3.121,0,4.906,1.645,4.906,4.324a3.986,3.986,0,0,1-2.463,3.854l2.858,5.386h-3.215L132.3,58.133Zm13.4,1.466h-.056l-1.889,3.5H138.6l3.158-5.019-3.139-5.057h3.092l1.815,3.4h.056l1.785-3.4h2.99L145.209,58l3.121,5.094h-2.98Zm12.914-7.849v4.324h2.443a2.036,2.036,0,0,0,2.266-2.162,2.081,2.081,0,0,0-2.295-2.162Zm0,6.382V63.1h-2.839V49.533h5.556c3.12,0,4.906,1.645,4.906,4.324a3.986,3.986,0,0,1-2.463,3.854l2.858,5.386h-3.215l-2.528-4.963Zm13.686-3.3a2.181,2.181,0,0,0-2.161,2.171h4.276A2.091,2.091,0,0,0,170.033,54.834Zm2.152,5.179H174.7c-.3,1.974-2.1,3.3-4.6,3.3-3.1,0-4.963-1.983-4.963-5.207s1.879-5.3,4.859-5.3c2.932,0,4.784,1.983,4.784,5.048v.836h-6.945v.169a2.241,2.241,0,0,0,2.311,2.425A2,2,0,0,0,172.185,60.013Zm7.792-7.153a3.278,3.278,0,0,1,3.1,1.918h.056V53.02h2.708V66.386H183.1v-5.01h-.056a3.274,3.274,0,0,1-3.111,1.88c-2.519,0-4.089-1.993-4.089-5.217C175.843,54.834,177.43,52.86,179.978,52.86Zm.884,8.187c1.363,0,2.246-1.147,2.246-2.989s-.893-3-2.246-3c-1.373,0-2.209,1.147-2.209,3S179.489,61.047,180.862,61.047Zm16.082-8.027V63.1h-2.65V61.282h-.056a2.993,2.993,0,0,1-3.017,2,3.449,3.449,0,0,1-3.628-3.769v-6.5h2.745v5.922c0,1.344.667,2.058,1.879,2.058a1.967,1.967,0,0,0,1.984-2.209V53.02Zm6.308,1.814a2.183,2.183,0,0,0-2.162,2.171h4.277A2.091,2.091,0,0,0,203.251,54.834Zm2.152,5.179h2.519c-.3,1.974-2.1,3.3-4.6,3.3-3.1,0-4.964-1.983-4.964-5.207s1.88-5.3,4.86-5.3c2.932,0,4.784,1.983,4.784,5.048v.836h-6.947v.169a2.242,2.242,0,0,0,2.313,2.425A2,2,0,0,0,205.4,60.013Zm3.854-4.032c0-1.918,1.664-3.177,4.249-3.177,2.528,0,4.173,1.278,4.211,3.233h-2.528c-.056-.808-.706-1.307-1.721-1.307-.948,0-1.57.432-1.57,1.081,0,.5.433.837,1.317,1.043l1.926.414c2.021.451,2.839,1.25,2.839,2.754,0,1.983-1.824,3.29-4.484,3.29-2.687,0-4.342-1.3-4.493-3.262h2.68c.131.846.8,1.335,1.889,1.335,1.043,0,1.673-.414,1.673-1.072,0-.508-.339-.79-1.241-1.006l-1.861-.413C210.235,58.462,209.257,57.466,209.257,55.981ZM220.086,50.7h2.744V53.02h1.862v2.068H222.83V59.91c0,.771.376,1.137,1.184,1.137a4.432,4.432,0,0,0,.667-.047v2.021a6.3,6.3,0,0,1-1.306.113c-2.369,0-3.289-.79-3.289-2.754V55.088h-1.419V53.02h1.419Zm10.16-1.166h5.517a4.431,4.431,0,0,1,4.7,4.643,4.51,4.51,0,0,1-4.841,4.643h-2.538V63.1h-2.839Zm2.839,2.246V56.6H235a2.416,2.416,0,1,0,.01-4.822Zm13.009,3.055a2.182,2.182,0,0,0-2.162,2.171h4.277A2.091,2.091,0,0,0,246.095,54.834Zm2.152,5.179h2.519c-.3,1.974-2.106,3.3-4.6,3.3-3.1,0-4.963-1.983-4.963-5.207s1.88-5.3,4.86-5.3c2.932,0,4.784,1.983,4.784,5.048v.836H243.9v.169a2.242,2.242,0,0,0,2.313,2.425A2.006,2.006,0,0,0,248.247,60.013ZM252.27,63.1V53.02h2.65v1.8h.056a3.184,3.184,0,0,1,3.149-1.983c2.237,0,3.5,1.41,3.5,3.769v6.5h-2.744V57.175c0-1.316-.621-2.068-1.852-2.068a2,2,0,0,0-2.012,2.209V63.1Zm14.832.16c-2.518,0-4.107-1.993-4.107-5.217,0-3.2,1.6-5.179,4.126-5.179a3.24,3.24,0,0,1,3.074,1.889h.056V49.533H273V63.1h-2.708v-1.73h-.046A3.323,3.323,0,0,1,267.1,63.256Zm.932-8.2c-1.382,0-2.228,1.156-2.228,3s.846,2.989,2.228,2.989c1.363,0,2.237-1.147,2.237-2.989S269.4,55.06,268.033,55.06Zm6.843,8.037V53.02h2.744V63.1Zm1.372-11.185a1.42,1.42,0,1,1,1.466-1.419A1.429,1.429,0,0,1,276.248,51.911Zm3.2,11.185V53.02H282.1v1.8h.056a3.182,3.182,0,0,1,3.148-1.983c2.238,0,3.5,1.41,3.5,3.769v6.5h-2.745V57.175c0-1.316-.62-2.068-1.851-2.068a2,2,0,0,0-2.012,2.209V63.1ZM295.2,60.953c1.372,0,2.246-1.09,2.246-2.914s-.874-2.98-2.246-2.98c-1.354,0-2.21,1.147-2.21,2.98S293.835,60.953,295.2,60.953Zm-.048,5.94c-2.651,0-4.445-1.288-4.662-3.083h2.689a2,2,0,0,0,2.048,1.175,1.935,1.935,0,0,0,2.21-1.955V61.263h-.056a3.288,3.288,0,0,1-3.112,1.8c-2.463,0-4.089-1.9-4.089-5.048,0-3.2,1.58-5.16,4.136-5.16a3.3,3.3,0,0,1,3.111,1.918h.047V53.02h2.707v9.935C300.179,65.362,298.168,66.894,295.151,66.894Z" transform="translate(2.75 -16.766)" fill="#fff"/>
    <g id="Component_613_1" data-name="Component 613 – 1" transform="translate(96.005 30.89)">
      <path id="Path_32597" data-name="Path 32597" d="M112.62,63.147a2.527,2.527,0,1,0-2.526-2.527A2.526,2.526,0,0,0,112.62,63.147Z" transform="translate(-97.1 -45.1)" fill="none" stroke="#fff" stroke-linecap="round" stroke-linejoin="round" stroke-width="1.5"/>
      <path id="Path_32598" data-name="Path 32598" d="M102.5,63.147a2.527,2.527,0,1,0-2.527-2.527A2.526,2.526,0,0,0,102.5,63.147Z" transform="translate(-99.969 -45.1)" fill="none" stroke="#fff" stroke-linecap="round" stroke-linejoin="round" stroke-width="1.5"/>
      <path id="Path_32599" data-name="Path 32599" d="M102.5,53.022A2.527,2.527,0,1,0,99.969,50.5,2.526,2.526,0,0,0,102.5,53.022Z" transform="translate(-99.969 -47.969)" fill="none" stroke="#fff" stroke-linecap="round" stroke-linejoin="round" stroke-width="1.5"/>
      <g id="Component_612_1" data-name="Component 612 – 1" transform="translate(2.888)">
        <path id="Path_32600" data-name="Path 32600" d="M110.159,47.969l-2.165,2.888,2.165,2.888m4.331,6.5V53.022a1.914,1.914,0,0,0-2.165-2.166h-2.888m-7.219,2.888v6.5" transform="translate(-102.219 -47.969)" fill="none" stroke="#fff" stroke-linecap="round" stroke-linejoin="round" stroke-width="1.5"/>
      </g>
    </g>
  </g>
</svg>
