<svg xmlns="http://www.w3.org/2000/svg" width="20.3" height="20.512" viewBox="0 0 20.3 20.512">
  <g id="Group_7651" data-name="Group 7651" transform="translate(-1.85 -13.85)">
    <path id="Path_32623" data-name="Path 32623" d="M6,26h8V24H6Zm0-3H18V21H6Zm0-3H18V18H6ZM2,34V16a1.926,1.926,0,0,1,.588-1.413A1.926,1.926,0,0,1,4,14H20a2.006,2.006,0,0,1,2,2V28a2.006,2.006,0,0,1-2,2H6Zm3.15-6H20V16H4V29.125Z" fill="#37474f"/>
    <path id="Path_32624" data-name="Path 32624" d="M4,16H20V28H5.15L4,29.125Zm0,0V28m2-2h8V24H6Zm0-3H18V21H6Zm0-3H18V18H6ZM2,34V16a1.926,1.926,0,0,1,.588-1.413A1.926,1.926,0,0,1,4,14H20a2.006,2.006,0,0,1,2,2V28a2.006,2.006,0,0,1-2,2H6Z" fill="none" stroke="#fff" stroke-width="0.3"/>
  </g>
</svg>
