<svg xmlns="http://www.w3.org/2000/svg" xmlns:xlink="http://www.w3.org/1999/xlink" width="395" height="80" viewBox="0 0 395 80">
  <defs>
    <clipPath id="clip-path">
      <rect id="Rectangle_4103" data-name="Rectangle 4103" width="395" height="80" rx="18" transform="translate(-0.001 -0.259)" fill="#fff"/>
    </clipPath>
    <clipPath id="clip-path-2">
      <rect id="Rectangle_4102" data-name="Rectangle 4102" width="22" height="23" transform="translate(0.238 -0.075)" fill="#fff"/>
    </clipPath>
  </defs>
  <g id="Group_7616" data-name="Group 7616" transform="translate(0.001 0.259)" clip-path="url(#clip-path)">
    <rect id="Rectangle_4101" data-name="Rectangle 4101" width="395" height="80" transform="translate(-0.001 -0.259)" fill="#b6c5d1"/>
    <path id="Path_32601" data-name="Path 32601" d="M147.124,211.248c4.014,0,6.543,2.7,6.543,7.021s-2.528,7.012-6.543,7.012-6.541-2.7-6.541-7.012S143.1,211.248,147.124,211.248Zm0,2.369c-2.218,0-3.647,1.8-3.647,4.652s1.419,4.634,3.647,4.634,3.638-1.8,3.638-4.634S149.343,213.617,147.124,213.617Zm8.14,11.43V214.97h2.65v1.815h.056a2.406,2.406,0,0,1,2.4-1.974,2.851,2.851,0,0,1,.78.1v2.417a2.833,2.833,0,0,0-1-.16,2.007,2.007,0,0,0-2.143,2.247v5.63Zm10.414.16c-2.519,0-4.107-1.993-4.107-5.217,0-3.2,1.6-5.18,4.126-5.18a3.241,3.241,0,0,1,3.074,1.889h.056v-5.217h2.744v13.564h-2.707v-1.73h-.047A3.321,3.321,0,0,1,165.679,225.207Zm.93-8.2c-1.381,0-2.228,1.156-2.228,3s.847,2.989,2.228,2.989c1.363,0,2.237-1.146,2.237-2.989S167.972,217.01,166.609,217.01Zm11.318-.226a2.181,2.181,0,0,0-2.162,2.171h4.277A2.091,2.091,0,0,0,177.927,216.784Zm2.152,5.18H182.6c-.3,1.974-2.106,3.3-4.6,3.3-3.1,0-4.963-1.983-4.963-5.207s1.88-5.3,4.86-5.3c2.932,0,4.784,1.983,4.784,5.047v.837h-6.947v.169a2.242,2.242,0,0,0,2.313,2.424A2.006,2.006,0,0,0,180.079,221.964Zm4.023,3.083V214.97h2.65v1.815h.056a2.4,2.4,0,0,1,2.4-1.974,2.85,2.85,0,0,1,.78.1v2.417a2.835,2.835,0,0,0-1-.16,2.008,2.008,0,0,0-2.143,2.247v5.63Zm19.833-2.35v2.35h-8.77V211.483H198V222.7Zm5.339.526a2.012,2.012,0,0,0,2.18-1.87v-.734l-2.124.132c-1.024.074-1.608.535-1.608,1.25C207.723,222.753,208.344,223.223,209.274,223.223Zm-.9,1.984A3.117,3.117,0,0,1,205,222.151c0-1.833,1.41-2.9,3.921-3.045l2.537-.15v-.667c0-.941-.658-1.485-1.691-1.485a1.632,1.632,0,0,0-1.8,1.25h-2.51c.1-1.956,1.767-3.3,4.437-3.3,2.585,0,4.267,1.335,4.267,3.365v6.928H211.5v-1.541h-.056A3.468,3.468,0,0,1,208.372,225.207Zm13.544,0a3.322,3.322,0,0,1-3.158-1.89H218.7v1.73H216V211.483h2.744v5.236h.056a3.278,3.278,0,0,1,3.112-1.908c2.537,0,4.1,1.946,4.1,5.2S224.455,225.207,221.916,225.207Zm-.95-8.2c-1.324,0-2.237,1.193-2.237,3,0,1.824.9,2.989,2.237,2.989,1.373,0,2.228-1.146,2.228-2.989S222.33,217.01,220.967,217.01Zm16.6,8.036h-2.839V213.824h-3.919v-2.341H241.5v2.341h-3.928Zm7.567-8.262a2.181,2.181,0,0,0-2.162,2.171h4.277A2.091,2.091,0,0,0,245.133,216.784Zm2.152,5.18H249.8c-.3,1.974-2.106,3.3-4.6,3.3-3.1,0-4.963-1.983-4.963-5.207s1.88-5.3,4.86-5.3c2.932,0,4.784,1.983,4.784,5.047v.837h-6.947v.169a2.242,2.242,0,0,0,2.313,2.424A2.006,2.006,0,0,0,247.286,221.964Zm3.854-4.032c0-1.919,1.663-3.178,4.249-3.178,2.528,0,4.172,1.278,4.211,3.234h-2.528c-.056-.809-.706-1.308-1.721-1.308-.95,0-1.57.432-1.57,1.082,0,.5.432.837,1.315,1.043l1.928.413c2.021.452,2.839,1.25,2.839,2.754,0,1.983-1.824,3.289-4.484,3.289-2.689,0-4.343-1.3-4.493-3.261h2.68c.131.846.8,1.335,1.889,1.335,1.043,0,1.673-.413,1.673-1.072,0-.507-.339-.789-1.241-1.006l-1.861-.413C252.117,220.412,251.139,219.417,251.139,217.932Zm10.828-5.284h2.745v2.322h1.861v2.069h-1.861v4.822c0,.771.376,1.137,1.185,1.137a4.456,4.456,0,0,0,.667-.046v2.02a6.246,6.246,0,0,1-1.306.113c-2.369,0-3.291-.789-3.291-2.754v-5.291h-1.418V214.97h1.418Zm5.941,5.284c0-1.919,1.664-3.178,4.249-3.178,2.528,0,4.173,1.278,4.211,3.234h-2.528c-.056-.809-.7-1.308-1.72-1.308-.95,0-1.571.432-1.571,1.082,0,.5.432.837,1.317,1.043l1.926.413c2.021.452,2.839,1.25,2.839,2.754,0,1.983-1.824,3.289-4.483,3.289-2.689,0-4.343-1.3-4.493-3.261h2.678c.132.846.8,1.335,1.889,1.335,1.043,0,1.673-.413,1.673-1.072,0-.507-.339-.789-1.241-1.006l-1.861-.413C268.886,220.412,267.908,219.417,267.908,217.932Z" transform="translate(6.544 -178.485)" fill="#fff"/>
    <g id="Component_614_1" data-name="Component 614 – 1" transform="translate(109.001 28.741)">
      <g id="Group_7615" data-name="Group 7615" transform="translate(-0.238 0.075)" clip-path="url(#clip-path-2)">
        <path id="Path_32602" data-name="Path 32602" d="M122.163,211h-6.738a1.924,1.924,0,0,0-1.925,1.925V226.4a1.924,1.924,0,0,0,1.925,1.925H128.9a1.924,1.924,0,0,0,1.925-1.925v-6.738" transform="translate(-111.892 -207.372)" fill="none" stroke="#fff" stroke-linecap="round" stroke-linejoin="round" stroke-width="1.5"/>
        <path id="Path_32603" data-name="Path 32603" d="M128.106,210.007a2.042,2.042,0,1,1,2.888,2.888l-9.144,9.144L118,223l.963-3.85Z" transform="translate(-110.617 -207.822)" fill="none" stroke="#fff" stroke-linecap="round" stroke-linejoin="round" stroke-width="1.5"/>
      </g>
    </g>
  </g>
</svg>
