<svg xmlns="http://www.w3.org/2000/svg" width="32.019" height="30.761" viewBox="0 0 32.019 30.761">
  <g id="Group_7043" data-name="Group 7043" transform="translate(-1407.046 -4395.142)">
    <path id="Path_32004" data-name="Path 32004" d="M1100,255.329a14.02,14.02,0,0,0,6.973,10.237m20.918-13.649a13.7,13.7,0,0,0-4.056-7.917,14.229,14.229,0,0,0-8.123-3.886,14.372,14.372,0,0,0-8.867,1.74,13.881,13.881,0,0,0-5.973,6.652" transform="translate(308 4156)" fill="none" stroke="#fff" stroke-linecap="round" stroke-linejoin="round" stroke-width="1.7"/>
    <path id="Path_32005" data-name="Path 32005" d="M1100,241v6.973h7.112m7.112,10.459h3.544a1.818,1.818,0,0,1,1.267.51,1.752,1.752,0,0,1,.511,1.233v1.743a1.752,1.752,0,0,1-.511,1.233,1.818,1.818,0,0,1-1.267.51h-1.778a1.81,1.81,0,0,0-1.255.51,1.752,1.752,0,0,0-.511,1.233v1.743a1.752,1.752,0,0,0,.511,1.233,1.81,1.81,0,0,0,1.255.51h3.556m5.334-10.459v3.486a1.715,1.715,0,0,0,.523,1.233,1.811,1.811,0,0,0,1.255.51h1.778m1.778-5.229v10.459" transform="translate(308 4156.162)" fill="none" stroke="#fff" stroke-linecap="round" stroke-linejoin="round" stroke-width="1.7"/>
  </g>
</svg>
