<svg xmlns="http://www.w3.org/2000/svg" xmlns:xlink="http://www.w3.org/1999/xlink" width="56.5" height="56.5" viewBox="0 0 56.5 56.5">
  <defs>
    <clipPath id="clip-path">
      <rect id="Rectangle_3898" data-name="Rectangle 3898" width="56.5" height="56.5" transform="translate(66 552)" fill="#fff"/>
    </clipPath>
  </defs>
  <g id="Group_7481" data-name="Group 7481" transform="translate(-66 -552)" clip-path="url(#clip-path)">
    <path id="Path_32250" data-name="Path 32250" d="M116.544,576.585V577h2.769a1.938,1.938,0,1,1,0,3.877h-2.769v2.77a1.939,1.939,0,0,1-3.878,0v-2.77H109.9a1.938,1.938,0,1,1,0-3.877h2.769v-2.77a1.939,1.939,0,1,1,3.878,0Zm-11.356,9.832a11.356,11.356,0,0,1,11.356,11.356v4.708a1.939,1.939,0,0,1-3.878,0v-4.708a7.478,7.478,0,0,0-7.478-7.478H86.355a7.478,7.478,0,0,0-7.478,7.478v4.708a1.939,1.939,0,1,1-3.877,0v-4.708a11.356,11.356,0,0,1,11.355-11.356Zm-9.416-28.25a11.356,11.356,0,1,1-8.029,3.326A11.355,11.355,0,0,1,95.772,558.167Zm0,3.878a7.478,7.478,0,1,0,5.288,2.19A7.466,7.466,0,0,0,95.772,562.045Z" transform="translate(-1.522 -1.043)" fill="#fff"/>
  </g>
</svg>
