<svg xmlns="http://www.w3.org/2000/svg" width="23" height="25" viewBox="0 0 23 25">
  <g id="Iconly_Bold_Calendar" data-name="Iconly/Bold/Calendar" transform="translate(0.3)">
    <g id="Calendar" transform="translate(-0.3)">
      <path id="Calendar-2" data-name="Calendar" d="M6.583,25H6.569a6.667,6.667,0,0,1-4.777-1.727A6.346,6.346,0,0,1,.014,18.6L0,8.191A6.277,6.277,0,0,1,1.557,3.812a6.37,6.37,0,0,1,4.2-1.9V.975A.955.955,0,0,1,6.038.284.974.974,0,0,1,6.726.012.947.947,0,0,1,7.7.973v.875l7.495-.01V.963a.951.951,0,0,1,.278-.69A.978.978,0,0,1,16.163,0a.947.947,0,0,1,.973.961V1.9A6.408,6.408,0,0,1,21.38,3.757a6.162,6.162,0,0,1,1.606,4.356L23,18.645c0,3.907-2.506,6.337-6.553,6.343Zm10.083-7.26A1.051,1.051,0,0,0,15.632,18.8a1.06,1.06,0,1,0,1.046-1.064Zm-10.383,0h0A1.074,1.074,0,0,0,5.25,18.817a1.04,1.04,0,0,0,1.036,1h.049a1.043,1.043,0,0,0,.721-.331,1.014,1.014,0,0,0,.275-.744,1.028,1.028,0,0,0-1.047-1Zm5.2-.007h0a1.079,1.079,0,0,0-1.033,1.077,1.042,1.042,0,0,0,1.04,1h.046a1.038,1.038,0,0,0-.051-2.075Zm-5.2-4.491h0a1.074,1.074,0,0,0-1.033,1.076,1.039,1.039,0,0,0,1.037,1h.049a1.04,1.04,0,0,0,.72-.331,1.015,1.015,0,0,0,.274-.744,1.027,1.027,0,0,0-1.045-1Zm5.2-.044h0a1.074,1.074,0,0,0-1.034,1.076,1.041,1.041,0,0,0,1.041,1h.046a1.04,1.04,0,0,0,.995-1.077,1.029,1.029,0,0,0-1.045-1Zm5.2.008h0a1.044,1.044,0,0,0-1.033,1.049v.015a1.029,1.029,0,0,0,1.049,1h.024a1.031,1.031,0,0,0-.036-2.061ZM5.76,3.823c-2.537.249-3.821,1.718-3.818,4.366l0,.388,19.1-.025V8.115c-.054-2.641-1.368-4.09-3.905-4.305v.962a.956.956,0,0,1-.969.963.973.973,0,0,1-.7-.279.956.956,0,0,1-.277-.682V3.762L7.7,3.772l0,1.01a.946.946,0,0,1-.971.963.974.974,0,0,1-.7-.279.956.956,0,0,1-.277-.682V3.823Z" transform="translate(0)" fill="#fab915"/>
    </g>
  </g>
</svg>
