<svg id="Lock" xmlns="http://www.w3.org/2000/svg" width="17.776" height="20.912" viewBox="0 0 17.776 20.912">
  <path id="Fill_1" data-name="Fill 1" d="M13.312,13.892H4.463A4.42,4.42,0,0,1,0,9.527V4.366A4.42,4.42,0,0,1,4.463,0h8.849a4.42,4.42,0,0,1,4.463,4.366V9.527A4.42,4.42,0,0,1,13.312,13.892ZM8.883,4.883a.915.915,0,0,0-.924.9V8.094a.929.929,0,0,0,1.859,0V5.788A.921.921,0,0,0,8.883,4.883Z" transform="translate(0 7.02)" fill="#b5b5b5"/>
  <path id="Fill_4" data-name="Fill 4" d="M11.549,5.642V7.18a4.342,4.342,0,0,0-1.169-.156H9.69V5.642A3.871,3.871,0,0,0,5.78,1.818a3.876,3.876,0,0,0-3.921,3.8v1.4h-.68A3.991,3.991,0,0,0,0,7.19V5.642A5.716,5.716,0,0,1,5.759,0a5.71,5.71,0,0,1,5.791,5.642" transform="translate(3.113)" fill="#d5d5d5"/>
</svg>
