<svg id="Component_617_1" data-name="Component 617 – 1" xmlns="http://www.w3.org/2000/svg" xmlns:xlink="http://www.w3.org/1999/xlink" width="48" height="48" viewBox="0 0 48 48">
  <defs>
    <clipPath id="clip-path">
      <rect id="Rectangle_148006" data-name="Rectangle 148006" width="48" height="48" fill="#fff"/>
    </clipPath>
  </defs>
  <g id="Group_67913" data-name="Group 67913" clip-path="url(#clip-path)">
    <path id="Path_36842" data-name="Path 36842" d="M17.2,32.8a9.2,9.2,0,0,1-13-13L19.8,4.2a9.2,9.2,0,0,1,13,13M12,12l8.5,8.5" fill="none" stroke="#fff" stroke-linecap="round" stroke-linejoin="round" stroke-width="3"/>
    <path id="Path_36843" data-name="Path 36843" d="M34.5,30v9M30,34.5h9m7.5-3a15.338,15.338,0,0,1-12,15,15.338,15.338,0,0,1-12-15V27a3,3,0,0,1,3-3h18a3,3,0,0,1,3,3Z" fill="none" stroke="#fff" stroke-linecap="round" stroke-linejoin="round" stroke-width="3"/>
  </g>
</svg>
