<svg xmlns="http://www.w3.org/2000/svg" width="34.64" height="34.64" viewBox="0 0 34.64 34.64">
  <path id="Path_31999" data-name="Path 31999" d="M88.445,62.975v-2.1a10.876,10.876,0,0,1,21.751,0v2.1c.365.026.709.058,1.033.1a5.409,5.409,0,0,1,5.224,5.222,44.365,44.365,0,0,1,.187,5.377v.177a44.365,44.365,0,0,1-.187,5.377,5.412,5.412,0,0,1-5.224,5.223,44.374,44.374,0,0,1-5.376.187H92.787a44.392,44.392,0,0,1-5.377-.187,5.41,5.41,0,0,1-5.222-5.223A44.013,44.013,0,0,1,82,73.853v-.177a44.013,44.013,0,0,1,.189-5.377,5.407,5.407,0,0,1,5.222-5.222Q87.926,63.009,88.445,62.975Zm2.417-2.1a8.459,8.459,0,0,1,16.918,0v2.019c-.6,0-1.245,0-1.926,0H92.787c-.682,0-1.323,0-1.925,0Zm-5.383,5.492a3.634,3.634,0,0,1,2.256-.9,43.457,43.457,0,0,1,5.141-.166h12.889a43.511,43.511,0,0,1,5.143.166,3.063,3.063,0,0,1,3.15,3.151,43.433,43.433,0,0,1,.166,5.141,43.475,43.475,0,0,1-.166,5.143,3.063,3.063,0,0,1-3.151,3.15,43.478,43.478,0,0,1-5.142.166H92.875a43.5,43.5,0,0,1-5.143-.166,3.063,3.063,0,0,1-3.15-3.151,43.474,43.474,0,0,1-.166-5.141,43.5,43.5,0,0,1,.166-5.143A3.643,3.643,0,0,1,85.479,66.368Z" transform="translate(-82 -50)" fill="#fff" fill-rule="evenodd"/>
</svg>
