<svg xmlns="http://www.w3.org/2000/svg" width="56.588" height="33.811" viewBox="0 0 56.588 33.811">
  <path id="Path_32254" data-name="Path 32254" d="M236.709,421.641l.264-.13-.237-.174a11.207,11.207,0,1,1,13.195,0l-.239.174.265.13a15.126,15.126,0,0,1,6.508,6.156l.155.276.155-.276a15.126,15.126,0,0,1,6.508-6.156l.264-.13-.238-.174a11.207,11.207,0,1,1,13.195,0l-.239.173.264.131a15.013,15.013,0,0,1,8.383,13.245h-3.439a11.569,11.569,0,0,0-23.134,0H254.9a11.569,11.569,0,0,0-23.134,0h-3.439A15.015,15.015,0,0,1,236.709,421.641Zm14.4-9.355a7.772,7.772,0,1,0-7.772,7.772A7.739,7.739,0,0,0,251.1,412.286Zm26.575,0a7.772,7.772,0,1,0-7.772,7.772A7.739,7.739,0,0,0,277.679,412.286Z" transform="translate(-228.326 -401.075)" fill="#fff"/>
</svg>
