<svg xmlns="http://www.w3.org/2000/svg" width="42.849" height="48.198" viewBox="0 0 42.849 48.198">
  <path id="Path_32206" data-name="Path 32206" d="M27.029,18.081v.072l.042.059,14.38,19.832A7.867,7.867,0,0,1,42.6,42.153v.184a5.691,5.691,0,0,1-1.708,4.029,5.368,5.368,0,0,1-3.9,1.582H5.855a5.262,5.262,0,0,1-3.848-1.674A5.932,5.932,0,0,1,.252,42.2l.158-.326.022-.046v-.051A7.548,7.548,0,0,1,1.58,37.856l14.2-19.833.042-.058V3.848H13.685a1.669,1.669,0,0,1-1.206-.59A1.784,1.784,0,0,1,11.9,2,1.632,1.632,0,0,1,12.474.8,1.729,1.729,0,0,1,13.685.25H29.164A1.729,1.729,0,0,1,30.375.8,1.632,1.632,0,0,1,30.944,2a1.784,1.784,0,0,1-.575,1.255,1.669,1.669,0,0,1-1.206.59H27.029V18.081Zm-11.6,6.434-.006.007-.006.008L11.5,29.8l-.265.356H31.6l-.253-.353-3.915-5.454,0-.006,0-.006-1-1.22a16.284,16.284,0,0,1-2.865-7.028V3.848H19.29V16.274A18.244,18.244,0,0,1,16.423,23.4Zm-6.937,9.8-.113,0-.065.092-4,5.625a2.726,2.726,0,0,0-.6,1.929,2.409,2.409,0,0,0,.649,1.653,1.971,1.971,0,0,0,1.486.732h31.14a1.972,1.972,0,0,0,1.486-.732,2.409,2.409,0,0,0,.649-1.653V41.94l-.006-.024q-.183-.8-.323-1.262c-.047-.152-.091-.28-.133-.38a.9.9,0,0,0-.134-.236l-4.272-6.007-.068-.1-.117,0Z" transform="translate(0)" fill="#fff" stroke="#fff" stroke-width="0.5"/>
</svg>
