<svg xmlns="http://www.w3.org/2000/svg" width="38.973" height="34.972" viewBox="0 0 38.973 34.972">
  <path id="Path_32003" data-name="Path 32003" d="M770.947,181.3a1.343,1.343,0,0,0,.3-.437,1.307,1.307,0,0,0,0-1.031,1.368,1.368,0,0,0-.3-.437,1.4,1.4,0,0,0-.453-.292,1.436,1.436,0,0,0-1.066,0,1.382,1.382,0,0,0-.452.292l-5.567,5.38a1.354,1.354,0,0,0-.3.437,1.313,1.313,0,0,0,.3,1.468l5.567,5.381a1.422,1.422,0,0,0,.452.292,1.428,1.428,0,0,0,1.519-.292,1.36,1.36,0,0,0,.3-.438,1.3,1.3,0,0,0,0-1.03,1.36,1.36,0,0,0-.3-.438l-3.193-3.082h20.3a9.918,9.918,0,0,1,6.889,2.758,9.256,9.256,0,0,1,2.854,6.657,1.322,1.322,0,0,0,.408.951,1.428,1.428,0,0,0,1.968,0,1.325,1.325,0,0,0,.407-.951,11.9,11.9,0,0,0-3.668-8.56,12.753,12.753,0,0,0-8.857-3.544h-20.3Zm-3.769,15.187a1.322,1.322,0,0,0-.408-.951,1.428,1.428,0,0,0-1.968,0,1.325,1.325,0,0,0-.407.951,11.9,11.9,0,0,0,3.668,8.56,12.753,12.753,0,0,0,8.857,3.544h20.3l-3.193,3.084a1.315,1.315,0,0,0,0,1.9,1.428,1.428,0,0,0,1.971,0l5.567-5.38a1.353,1.353,0,0,0,.3-.437,1.313,1.313,0,0,0-.3-1.468L796,200.913a1.428,1.428,0,0,0-1.971,0,1.316,1.316,0,0,0,0,1.905l3.193,3.082h-20.3a9.918,9.918,0,0,1-6.888-2.758A9.255,9.255,0,0,1,767.177,196.486Z" transform="translate(-763 -179)" fill="#fff" fill-rule="evenodd"/>
</svg>
