<svg xmlns="http://www.w3.org/2000/svg" width="56.5" height="47.41" viewBox="0 0 56.5 47.41">
  <path id="Path_32262" data-name="Path 32262" d="M275.394,90.044m-2.539,1.029v-.535l0,.535Zm0,0a3.51,3.51,0,0,1-3.564-3.563l6.1,2.534m0,0a3.454,3.454,0,0,0,1.027-2.535ZM255.21,111.749h0v-2.727a5.883,5.883,0,0,1,.7-2.78,5.216,5.216,0,0,1,1.925-2.065,27.545,27.545,0,0,1,7.1-3.007,31.751,31.751,0,0,1,15.858,0,27.615,27.615,0,0,1,7.093,3.007,5.218,5.218,0,0,1,1.926,2.065,5.882,5.882,0,0,1,.7,2.78v2.727a2.439,2.439,0,0,1-2.494,2.495h-30.3a2.441,2.441,0,0,1-2.5-2.494Zm5.715-3.495-1.749,1h27.358l-1.747-1a23.083,23.083,0,0,0-5.738-2.327,25.155,25.155,0,0,0-12.386,0A23.076,23.076,0,0,0,260.924,108.254Zm-6.247-12.191H236.495A2.442,2.442,0,0,1,234,93.569h0a2.442,2.442,0,0,1,2.494-2.5h18.181a2.442,2.442,0,0,1,2.5,2.494h0a2.442,2.442,0,0,1-2.494,2.5Zm12.12-24.24h-30.3A2.442,2.442,0,0,1,234,69.33h0a2.442,2.442,0,0,1,2.494-2.5h30.3a2.442,2.442,0,0,1,2.495,2.494h0a2.442,2.442,0,0,1-2.494,2.5Zm-30.3,7.129h23.17a11.94,11.94,0,0,0-1.127,2.058,18.25,18.25,0,0,0-.956,2.932H236.495A2.442,2.442,0,0,1,234,81.45h0a2.442,2.442,0,0,1,2.494-2.5Zm36.36,17.111a8.516,8.516,0,1,1,6.061-2.495A8.232,8.232,0,0,1,272.855,96.064Zm-2.538-11.091a3.454,3.454,0,0,0-1.027,2.535l3.563-3.565A3.467,3.467,0,0,0,270.317,84.973Zm6.1,2.534a3.511,3.511,0,0,0-3.565-3.563Z" transform="translate(-234 -66.833)" fill="#fff"/>
</svg>
