<svg xmlns="http://www.w3.org/2000/svg" width="47.81" height="47.81" viewBox="0 0 47.81 47.81">
  <path id="Path_32207" data-name="Path 32207" d="M34.836,13.786v.187h8.815a4.46,4.46,0,0,1,4.458,4.458V30.378a4.458,4.458,0,0,1-4.458,4.458H34.836v8.815a4.458,4.458,0,0,1-4.458,4.458H18.432a4.458,4.458,0,0,1-4.458-4.458V34.836H5.158A4.458,4.458,0,0,1,.7,30.378V18.432a4.46,4.46,0,0,1,4.458-4.458h8.815V5.158A4.46,4.46,0,0,1,18.432.7H30.378a4.46,4.46,0,0,1,4.458,4.458Zm-16.4-9.479a.851.851,0,0,0-.851.851V15.777a1.8,1.8,0,0,1-1.8,1.8H5.158a.851.851,0,0,0-.851.851V30.378a.851.851,0,0,0,.851.851H15.777a1.8,1.8,0,0,1,1.8,1.8V43.652a.851.851,0,0,0,.851.851H30.378a.851.851,0,0,0,.851-.851V33.033a1.8,1.8,0,0,1,1.8-1.8H43.652a.851.851,0,0,0,.851-.851V18.432a.851.851,0,0,0-.851-.851H33.033a1.8,1.8,0,0,1-1.8-1.8V5.158a.851.851,0,0,0-.851-.851Z" transform="translate(-0.5 -0.5)" fill="#fff" stroke="#fff" stroke-width="0.4"/>
</svg>
