<svg xmlns="http://www.w3.org/2000/svg" width="44.699" height="44.699" viewBox="0 0 44.699 44.699">
  <path id="Path_32306" data-name="Path 32306" d="M32.6,12.928V13.1h8.237A4.167,4.167,0,0,1,45,17.268V28.431A4.166,4.166,0,0,1,40.833,32.6H32.6v8.237A4.166,4.166,0,0,1,28.431,45H17.268A4.166,4.166,0,0,1,13.1,40.833V32.6H4.866A4.166,4.166,0,0,1,.7,28.431V17.268A4.167,4.167,0,0,1,4.866,13.1H13.1V4.866A4.167,4.167,0,0,1,17.268.7H28.431A4.167,4.167,0,0,1,32.6,4.866ZM17.268,4.071a.8.8,0,0,0-.8.8v9.922a1.686,1.686,0,0,1-1.685,1.685H4.866a.8.8,0,0,0-.8.8V28.431a.8.8,0,0,0,.8.8h9.922a1.686,1.686,0,0,1,1.685,1.685v9.922a.8.8,0,0,0,.8.8H28.431a.8.8,0,0,0,.8-.8V30.911a1.686,1.686,0,0,1,1.685-1.685h9.922a.8.8,0,0,0,.8-.8V17.268a.8.8,0,0,0-.8-.8H30.911a1.686,1.686,0,0,1-1.685-1.685V4.866a.8.8,0,0,0-.8-.8Z" transform="translate(-0.5 -0.5)" fill="#fff" stroke="#fff" stroke-width="0.4"/>
</svg>
