<svg xmlns="http://www.w3.org/2000/svg" width="57.945" height="47.41" viewBox="0 0 57.945 47.41">
  <path id="Path_32209" data-name="Path 32209" d="M50.56,34.424l-3.753-3.687,2.9-2.9H41.342V22.571h8.3L46.807,19.74l3.753-3.753L59.779,25.2ZM4.467,6.768V1.5H36.074V6.768ZM16.32,39.691h7.9V33.107h6.585V25.2H24.222V18.62h-7.9V25.2H9.735v7.9H16.32ZM7.1,48.91A5.075,5.075,0,0,1,3.38,47.361a5.062,5.062,0,0,1-1.546-3.719V14.669a5.074,5.074,0,0,1,1.549-3.722A5.062,5.062,0,0,1,7.1,9.4H33.44a5.283,5.283,0,0,1,5.268,5.268V43.642A5.283,5.283,0,0,1,33.44,48.91Zm0-5.268H33.44V14.669H7.1Z" transform="translate(-1.833 -1.5)" fill="#fff"/>
</svg>
