<svg xmlns="http://www.w3.org/2000/svg" width="47.81" height="47.81" viewBox="0 0 47.81 47.81">
  <path id="Path_32208" data-name="Path 32208" d="M43.928,44.108h.18V4.577H4.577V44.108H43.928ZM2.368.637H46.316a1.729,1.729,0,0,1,1.731,1.731V46.316a1.729,1.729,0,0,1-1.731,1.731H2.368A1.729,1.729,0,0,1,.637,46.316V2.368A1.729,1.729,0,0,1,2.368.637ZM34.135,17.475H23.148a.3.3,0,0,1-.3-.3V14.311a.3.3,0,0,1,.3-.3H34.135a.3.3,0,0,1,.3.3v2.866A.3.3,0,0,1,34.135,17.475Zm0,8.6H23.148a.3.3,0,0,1-.3-.3V22.909a.3.3,0,0,1,.3-.3H34.135a.3.3,0,0,1,.3.3v2.866A.3.3,0,0,1,34.135,26.073Zm0,8.6H23.148a.3.3,0,0,1-.3-.3V31.508a.3.3,0,0,1,.3-.3H34.135a.3.3,0,0,1,.3.3v2.866A.3.3,0,0,1,34.135,34.672ZM14.9,17.306a2.209,2.209,0,1,1,1.562.647A2.209,2.209,0,0,1,14.9,17.306Zm0,8.6a2.209,2.209,0,1,1,1.562.647A2.209,2.209,0,0,1,14.9,25.9Zm0,8.6a2.209,2.209,0,1,1,1.562.647A2.209,2.209,0,0,1,14.9,34.5Z" transform="translate(-0.438 -0.438)" fill="#fff" stroke="#fff" stroke-width="0.4"/>
</svg>
