<svg xmlns="http://www.w3.org/2000/svg" width="51.8" height="51.8" viewBox="0 0 51.8 51.8">
  <path id="Path_32258" data-name="Path 32258" d="M272.085,562.3a2.453,2.453,0,0,1,2.453,2.453v9.259a1.25,1.25,0,0,0,1.25,1.25h9.259a2.454,2.454,0,1,1,0,4.907h-9.259a6.159,6.159,0,0,1-6.157-6.157v-9.259a2.452,2.452,0,0,1,2.454-2.453Zm-20.37,0a2.452,2.452,0,0,1,2.454,2.453v9.259a6.159,6.159,0,0,1-6.157,6.157h-9.259a2.454,2.454,0,1,1,0-4.907h9.259a1.25,1.25,0,0,0,1.25-1.25v-9.259a2.452,2.452,0,0,1,2.453-2.453ZM236.3,598.085a2.452,2.452,0,0,1,2.453-2.454h9.259a6.16,6.16,0,0,1,6.157,6.157v9.259a2.454,2.454,0,1,1-4.907,0v-9.259a1.25,1.25,0,0,0-1.25-1.25h-9.259a2.453,2.453,0,0,1-2.453-2.453Zm33.331,3.7a6.16,6.16,0,0,1,6.157-6.157h9.259a2.454,2.454,0,1,1,0,4.907h-9.259a1.25,1.25,0,0,0-1.25,1.25v9.259a2.454,2.454,0,1,1-4.907,0Z" transform="translate(-236 -562)" fill="#fff" stroke="#fff" stroke-width="0.6"/>
</svg>
