<svg xmlns="http://www.w3.org/2000/svg" width="59.278" height="15.628" viewBox="0 0 59.278 15.628">
  <g id="PayPal_New_2023" data-name="PayPal New 2023" transform="translate(0)">
    <path id="Path_36179" data-name="Path 36179" d="M211.248,82.5l-1.414,8.888a.229.229,0,0,0,.187.26.2.2,0,0,0,.038,0h1.674a.247.247,0,0,0,.246-.208l1.414-8.888a.229.229,0,0,0-.187-.26.2.2,0,0,0-.038,0h-1.674A.242.242,0,0,0,211.248,82.5Zm-1.788,2.593h-1.589a.247.247,0,0,0-.246.208l-.052.327a3.02,3.02,0,0,0-3.417-.433,3.778,3.778,0,0,0-2.11,2.371s-.812,2.382,1.025,3.692a3.158,3.158,0,0,0,3.623-.078l-.033.208a.226.226,0,0,0,.13.242.232.232,0,0,0,.1.021h1.589a.245.245,0,0,0,.246-.208l.966-6.086a.229.229,0,0,0-.052-.185.246.246,0,0,0-.178-.078Zm-2.337,3.365a1.768,1.768,0,0,1-.6,1.092,1.791,1.791,0,0,1-1.179.424,1.627,1.627,0,0,1-.5-.073,1.393,1.393,0,0,1-.964-1.582,1.76,1.76,0,0,1,.606-1.092,1.793,1.793,0,0,1,1.179-.426,1.627,1.627,0,0,1,.5.073,1.4,1.4,0,0,1,.961,1.584Zm-8.483.168a3.624,3.624,0,0,0,2.349-.862,3.588,3.588,0,0,0,1.22-2.172,2.914,2.914,0,0,0-3.071-3.3h-3.164a.247.247,0,0,0-.246.208l-1.416,8.888a.226.226,0,0,0,.13.242.232.232,0,0,0,.1.021h1.674a.247.247,0,0,0,.246-.208l.414-2.61a.245.245,0,0,1,.246-.208l1.52,0Zm1.4-3.114c-.1.651-.611,1.13-1.58,1.13h-1.241l.377-2.368h1.217c1,0,1.331.59,1.227,1.239Z" transform="translate(-154.118 -79.169)" fill="#0070e0"/>
    <path id="Path_36180" data-name="Path 36180" d="M118.617,85.251,116.7,88.462l-.973-3.188a.247.247,0,0,0-.237-.175h-1.729a.182.182,0,0,0-.185.156.186.186,0,0,0,.009.088l1.743,5.369-1.577,2.529a.181.181,0,0,0,.054.251.012.012,0,0,0,.009,0,.166.166,0,0,0,.095.024h1.864a.311.311,0,0,0,.265-.149l4.867-7.993a.182.182,0,0,0-.159-.279h-1.861A.32.32,0,0,0,118.617,85.251Zm-5.835-.152h-1.589a.247.247,0,0,0-.246.208l-.052.327a3.023,3.023,0,0,0-3.42-.433,3.778,3.778,0,0,0-2.11,2.371s-.812,2.382,1.023,3.692a3.158,3.158,0,0,0,3.623-.078l-.033.208a.226.226,0,0,0,.13.242.231.231,0,0,0,.1.021h1.589a.249.249,0,0,0,.246-.208l.966-6.086a.224.224,0,0,0-.13-.242.229.229,0,0,0-.095-.021Zm-2.34,3.365a1.755,1.755,0,0,1-.606,1.089,1.793,1.793,0,0,1-1.179.426,1.638,1.638,0,0,1-.5-.073,1.4,1.4,0,0,1-.964-1.582,1.757,1.757,0,0,1,.609-1.092,1.8,1.8,0,0,1,1.182-.424,1.627,1.627,0,0,1,.5.073,1.388,1.388,0,0,1,.959,1.582Zm-8.483.168a3.617,3.617,0,0,0,2.347-.864,3.566,3.566,0,0,0,1.217-2.172,2.913,2.913,0,0,0-3.072-3.3H99.288a.245.245,0,0,0-.246.208L97.63,91.394a.224.224,0,0,0,.13.242.232.232,0,0,0,.1.021h1.674a.247.247,0,0,0,.246-.208l.414-2.61a.245.245,0,0,1,.246-.208l1.52,0Zm1.4-3.114c-.1.651-.611,1.13-1.58,1.13h-1.241l.377-2.368h1.217c1,0,1.331.59,1.227,1.239Z" transform="translate(-80.334 -79.176)" fill="#003087"/>
    <path id="Path_36181" data-name="Path 36181" d="M35.718,73.049A3.525,3.525,0,0,0,31.91,69.58h-4.6a.451.451,0,0,0-.445.381L25.016,81.489a.368.368,0,0,0,.305.419.462.462,0,0,0,.057,0h2.728l-.426,2.669a.368.368,0,0,0,.305.419.46.46,0,0,0,.057,0h2.221a.422.422,0,0,0,.284-.109.406.406,0,0,0,.111-.272l.651-3.839a.557.557,0,0,1,.152-.313.371.371,0,0,1,.26-.109h1.359a4.385,4.385,0,0,0,4.367-3.706,3.352,3.352,0,0,0-1.731-3.609Z" transform="translate(-24.914 -69.469)" fill="#001c64"/>
    <path id="Path_36182" data-name="Path 36182" d="M36.989,88.833l-.677,4.31-.426,2.7a.368.368,0,0,0,.305.419.457.457,0,0,0,.057,0H38.6a.451.451,0,0,0,.445-.381l.62-3.929a.455.455,0,0,1,.445-.381H41.5a4.426,4.426,0,0,0,4.369-3.746,3.434,3.434,0,0,0-1.847-3.611,3.331,3.331,0,0,1-.043.485,4.426,4.426,0,0,1-4.367,3.746H37.442a.459.459,0,0,0-.452.381" transform="translate(-33.21 -80.642)" fill="#0070e0"/>
    <path id="Path_36183" data-name="Path 36183" d="M27.7,81.612H24.965a.365.365,0,0,1-.365-.365.46.46,0,0,1,0-.057l1.845-11.7a.455.455,0,0,1,.445-.381h4.7a3.612,3.612,0,0,1,3.808,3.583,4.1,4.1,0,0,0-1.918-.457H29.564a.451.451,0,0,0-.445.381l-.739,4.689-.68,4.305Z" transform="translate(-24.6 -69.11)" fill="#003087"/>
  </g>
</svg>
