<svg width="32" height="39" viewBox="0 0 32 39" fill="none" xmlns="http://www.w3.org/2000/svg">
<g filter="url(#filter0_d_127_365)">
<path d="M10.3996 19.2001C10.1874 19.2001 9.98395 19.1158 9.83392 18.9658C9.6839 18.8158 9.59961 18.6123 9.59961 18.4001C9.59961 18.1879 9.6839 17.9844 9.83392 17.8344C9.98395 17.6844 10.1874 17.6001 10.3996 17.6001H21.5996C21.8118 17.6001 22.0153 17.6844 22.1653 17.8344C22.3153 17.9844 22.3996 18.1879 22.3996 18.4001C22.3996 18.6123 22.3153 18.8158 22.1653 18.9658C22.0153 19.1158 21.8118 19.2001 21.5996 19.2001H10.3996ZM10.3996 24.0001C10.1874 24.0001 9.98395 23.9158 9.83392 23.7658C9.6839 23.6158 9.59961 23.4123 9.59961 23.2001C9.59961 22.9879 9.6839 22.7844 9.83392 22.6344C9.98395 22.4844 10.1874 22.4001 10.3996 22.4001H21.5996C21.8118 22.4001 22.0153 22.4844 22.1653 22.6344C22.3153 22.7844 22.3996 22.9879 22.3996 23.2001C22.3996 23.4123 22.3153 23.6158 22.1653 23.7658C22.0153 23.9158 21.8118 24.0001 21.5996 24.0001H10.3996Z" fill="white" stroke="white"/>
<path fill-rule="evenodd" clip-rule="evenodd" d="M17.8958 1.6001H7.1998C6.56329 1.6001 5.95284 1.85295 5.50275 2.30304C5.05266 2.75313 4.7998 3.36358 4.7998 4.0001V28.0001C4.7998 28.6366 5.05266 29.2471 5.50275 29.6972C5.95284 30.1472 6.56329 30.4001 7.1998 30.4001H24.7998C25.4363 30.4001 26.0468 30.1472 26.4969 29.6972C26.9469 29.2471 27.1998 28.6366 27.1998 28.0001V11.5233C27.1997 10.9225 26.9741 10.3435 26.5678 9.9009L19.6654 2.3777C19.4405 2.13249 19.167 1.93674 18.8623 1.80287C18.5577 1.66901 18.2286 1.59995 17.8958 1.6001ZM6.3998 4.0001C6.3998 3.78792 6.48409 3.58444 6.63412 3.43441C6.78415 3.28438 6.98763 3.2001 7.1998 3.2001H17.8958C18.0068 3.19998 18.1166 3.22296 18.2183 3.26758C18.3199 3.31221 18.4112 3.3775 18.4862 3.4593L25.3886 10.9825C25.5242 11.13 25.5996 11.3229 25.5998 11.5233V28.0001C25.5998 28.2123 25.5155 28.4158 25.3655 28.5658C25.2155 28.7158 25.012 28.8001 24.7998 28.8001H7.1998C6.98763 28.8001 6.78415 28.7158 6.63412 28.5658C6.48409 28.4158 6.3998 28.2123 6.3998 28.0001V4.0001Z" fill="white" stroke="white"/>
<path d="M17.6 11.2001H26.4C26.6122 11.2001 26.8157 11.2844 26.9657 11.4344C27.1157 11.5844 27.2 11.7879 27.2 12.0001C27.2 12.2123 27.1157 12.4158 26.9657 12.5658C26.8157 12.7158 26.6122 12.8001 26.4 12.8001H16.8C16.5878 12.8001 16.3843 12.7158 16.2343 12.5658C16.0843 12.4158 16 12.2123 16 12.0001V2.4001C16 2.18792 16.0843 1.98444 16.2343 1.83441C16.3843 1.68438 16.5878 1.6001 16.8 1.6001C17.0122 1.6001 17.2157 1.68438 17.3657 1.83441C17.5157 1.98444 17.6 2.18792 17.6 2.4001V11.2001Z" fill="white" stroke="white"/>
</g>
<defs>
<filter id="filter0_d_127_365" x="-4" y="0" width="40" height="40" filterUnits="userSpaceOnUse" color-interpolation-filters="sRGB">
<feFlood flood-opacity="0" result="BackgroundImageFix"/>
<feColorMatrix in="SourceAlpha" type="matrix" values="0 0 0 0 0 0 0 0 0 0 0 0 0 0 0 0 0 0 127 0" result="hardAlpha"/>
<feOffset dy="4"/>
<feGaussianBlur stdDeviation="2"/>
<feComposite in2="hardAlpha" operator="out"/>
<feColorMatrix type="matrix" values="0 0 0 0 0 0 0 0 0 0 0 0 0 0 0 0 0 0 0.25 0"/>
<feBlend mode="normal" in2="BackgroundImageFix" result="effect1_dropShadow_127_365"/>
<feBlend mode="normal" in="SourceGraphic" in2="effect1_dropShadow_127_365" result="shape"/>
</filter>
</defs>
</svg>
