<svg xmlns="http://www.w3.org/2000/svg" width="38" height="38.5" viewBox="0 0 38 38.5">
  <g id="Component_621_1" data-name="Component 621 – 1" transform="translate(1.25 1.75)">
    <path id="Path_32690" data-name="Path 32690" d="M74.13,282.1a4.97,4.97,0,1,0-4.97-4.97A4.97,4.97,0,0,0,74.13,282.1Z" transform="translate(-43.6 -246.6)" fill="none" stroke="#eb5757" stroke-linecap="round" stroke-linejoin="round" stroke-width="2.5"/>
    <path id="Path_32691" data-name="Path 32691" d="M53.97,282.1A4.97,4.97,0,1,0,49,277.13,4.97,4.97,0,0,0,53.97,282.1Z" transform="translate(-49 -246.6)" fill="none" stroke="#eb5757" stroke-linecap="round" stroke-linejoin="round" stroke-width="2.5"/>
    <path id="Path_32692" data-name="Path 32692" d="M53.97,261.94A4.97,4.97,0,1,0,49,256.97,4.97,4.97,0,0,0,53.97,261.94Z" transform="translate(-49 -252)" fill="none" stroke="#eb5757" stroke-linecap="round" stroke-linejoin="round" stroke-width="2.5"/>
    <path id="Path_32693" data-name="Path 32693" d="M69.1,252l-4.26,5.68,4.26,5.68m8.52,12.78v-14.2q0-4.26-4.26-4.26H67.68m-14.2,5.68v12.78" transform="translate(-47.8 -252)" fill="none" stroke="#eb5757" stroke-linecap="round" stroke-linejoin="round" stroke-width="2.5"/>
  </g>
</svg>
