<svg id="Send" xmlns="http://www.w3.org/2000/svg" width="18.803" height="18.687" viewBox="0 0 18.803 18.687">
  <g id="Send-2" data-name="Send">
    <path id="Fill_1" data-name="Fill 1" d="M18.272.544a1.823,1.823,0,0,0-1.815-.47L1.324,4.446a1.8,1.8,0,0,0-1.3,1.421A2.1,2.1,0,0,0,.965,7.833L5.7,10.722a1.231,1.231,0,0,0,1.513-.18l5.418-5.418a.691.691,0,0,1,1,0,.71.71,0,0,1,0,1L8.2,11.54a1.232,1.232,0,0,0-.182,1.513l2.891,4.75a1.883,1.883,0,0,0,1.8.874,1.828,1.828,0,0,0,1.533-1.3L18.724,2.359A1.827,1.827,0,0,0,18.272.544" fill="#fde3a1"/>
    <path id="Combined_Shape" data-name="Combined Shape" d="M4.481,7.172a.706.706,0,0,1,0-1L5.765,4.89a.706.706,0,0,1,1,1L5.478,7.172a.705.705,0,0,1-1,0ZM3.744,3.609a.706.706,0,0,1,0-1L5.028,1.327a.706.706,0,1,1,1,1L4.741,3.609a.705.705,0,0,1-1,0ZM.206,2.488a.706.706,0,0,1,0-1L1.49.206a.706.706,0,0,1,1,1L1.2,2.488a.705.705,0,0,1-1,0Z" transform="translate(0.245 11.233)" fill="#fab915"/>
  </g>
</svg>
