<svg id="Star" xmlns="http://www.w3.org/2000/svg" width="18.59" height="17.66" viewBox="0 0 18.59 17.66">
  <g id="Star-2" data-name="Star">
    <path id="Fill_1" data-name="Fill 1" d="M10.2.57l2.069,4.159a1.033,1.033,0,0,0,.779.557l4.648.677a1.042,1.042,0,0,1,.684.4,1.006,1.006,0,0,1,.2.758,1.034,1.034,0,0,1-.3.588l-3.368,3.265a.981.981,0,0,0-.3.9l.829,4.59a1.036,1.036,0,0,1-.829,1.182,1.086,1.086,0,0,1-.664-.106L9.8,15.375a1.087,1.087,0,0,0-.979,0l-4.146,2.16a1.062,1.062,0,0,1-1.424-.416,1.051,1.051,0,0,1-.108-.65l.829-4.591a.986.986,0,0,0-.3-.9L.309,7.719A1.008,1.008,0,0,1,.282,6.294l.027-.027a1,1,0,0,1,.6-.293L5.554,5.3a1.035,1.035,0,0,0,.779-.558l2-4.168A1.029,1.029,0,0,1,9.274,0H9.4a1.037,1.037,0,0,1,.8.57" transform="translate(0 0)" fill="#fab915" opacity="0.4"/>
    <path id="Fill_4" data-name="Fill 4" d="M9.288,15.26a1.14,1.14,0,0,0-.513.14L4.648,17.555a1.076,1.076,0,0,1-1.392-.429,1.028,1.028,0,0,1-.108-.645L3.973,11.9a1.025,1.025,0,0,0-.3-.906L.3,7.732A1.016,1.016,0,0,1,.289,6.3L.3,6.282a1.054,1.054,0,0,1,.587-.295L5.545,5.3a1.006,1.006,0,0,0,.778-.558L8.345.523A1.028,1.028,0,0,1,9.295,0c-.007.276-.007,15.07-.007,15.258" transform="translate(0 0)" fill="#fab915"/>
  </g>
</svg>
