<svg xmlns="http://www.w3.org/2000/svg" width="17.777" height="15.801" viewBox="0 0 17.777 15.801">
  <g id="Ticket_Star" data-name="Ticket Star" transform="translate(0 0)">
    <path id="Fill_1" data-name="Fill 1" d="M17.11,9.2a1.3,1.3,0,1,1,0-2.591.674.674,0,0,0,.471-.19.646.646,0,0,0,.2-.462V3.6A3.648,3.648,0,0,0,14.093,0H3.683A3.648,3.648,0,0,0,0,3.6V6.029a.646.646,0,0,0,.2.462.674.674,0,0,0,.471.19A1.247,1.247,0,0,1,1.99,7.9,1.311,1.311,0,0,1,.667,9.2.66.66,0,0,0,0,9.849V12.2a3.648,3.648,0,0,0,3.682,3.6H14.094a3.648,3.648,0,0,0,3.682-3.6V9.849A.66.66,0,0,0,17.11,9.2" fill="#d5d5d5"/>
    <path id="Fill_4" data-name="Fill 4" d="M6.3,2.974,5.25,3.982,5.5,5.407a.639.639,0,0,1-.263.636.655.655,0,0,1-.693.048L3.249,5.419l-1.3.672a.654.654,0,0,1-.691-.048A.642.642,0,0,1,1,5.407l.247-1.425L.2,2.974a.64.64,0,0,1-.166-.667.653.653,0,0,1,.533-.441l1.445-.208.648-1.3A.657.657,0,0,1,3.249,0h0a.655.655,0,0,1,.588.363l.648,1.3,1.448.209a.648.648,0,0,1,.53.44.636.636,0,0,1-.166.667" transform="translate(5.639 4.565)" fill="#747e93"/>
  </g>
</svg>
