<svg xmlns="http://www.w3.org/2000/svg" xmlns:xlink="http://www.w3.org/1999/xlink" width="36.6" height="23.462" viewBox="0 0 36.6 23.462">
  <defs>
    <clipPath id="clip-path">
      <rect id="Rectangle_147899" data-name="Rectangle 147899" width="36.6" height="23.462" transform="translate(0 0)" fill="none"/>
    </clipPath>
  </defs>
  <g id="Visa_Payment_Card" data-name="Visa Payment Card" transform="translate(0 0)" clip-path="url(#clip-path)">
    <path id="Path_36184" data-name="Path 36184" d="M-219.136-141.675h32.847a1.876,1.876,0,0,1,1.877,1.877v19.708a1.876,1.876,0,0,1-1.877,1.877h-32.847a1.876,1.876,0,0,1-1.877-1.877V-139.8A1.876,1.876,0,0,1-219.136-141.675Z" transform="translate(221.013 141.675)" fill="#0a4693"/>
    <path id="Path_36185" data-name="Path 36185" d="M-146.857-47.866l1.567-9.183h2.506l-1.572,9.183Zm11.548-8.986a6.429,6.429,0,0,0-2.243-.385c-2.473,0-4.218,1.248-4.233,3.031-.014,1.319,1.243,2.055,2.2,2.5.971.45,1.3.737,1.3,1.136,0,.615-.779.9-1.5.9a5.24,5.24,0,0,1-2.356-.483l-.324-.145-.352,2.055a7.849,7.849,0,0,0,2.787.488c2.632,0,4.34-1.229,4.359-3.139.009-1.046-.657-1.839-2.1-2.5-.873-.427-1.412-.709-1.408-1.14,0-.38.455-.788,1.436-.788a4.561,4.561,0,0,1,1.872.352l.225.108.343-1.985m6.443-.2H-130.8a1.244,1.244,0,0,0-1.309.76l-3.721,8.418h2.628s.432-1.131.526-1.38l3.2,0c.075.324.3,1.375.3,1.375h2.323l-2.022-9.178Zm-3.069,5.931,1-2.567c-.014.023.206-.53.333-.877l.169.793s.479,2.191.582,2.651Zm-17.047-5.931-2.449,6.264-.263-1.272a7.144,7.144,0,0,0-3.468-3.852l2.243,8.029,2.651,0,3.942-9.169-2.656,0" transform="translate(160.615 64.228)" fill="#fff"/>
    <path id="Path_36186" data-name="Path 36186" d="M-182.829-54.97h-4.035l-.033.192a8.294,8.294,0,0,1,6.081,4.8l-.877-4.223a1.045,1.045,0,0,0-1.136-.774" transform="translate(189.723 62.149)" fill="#f2ae13"/>
  </g>
</svg>
